<?xml version="1.0" standalone="no"?>
<!DOCTYPE svg PUBLIC "-//W3C//DTD SVG 20010904//EN"
 "http://www.w3.org/TR/2001/REC-SVG-20010904/DTD/svg10.dtd">
<svg version="1.0" xmlns="http://www.w3.org/2000/svg"
 width="1051.000000pt" height="661.000000pt" viewBox="0 0 1051.000000 661.000000"
 preserveAspectRatio="xMidYMid meet">

<g transform="translate(0.000000,661.000000) scale(0.100000,-0.100000)"
fill="#000000" stroke="none">
<path d="M3380 5650 c-25 -4 -92 -26 -150 -47 -58 -22 -177 -61 -265 -88 -194
-57 -406 -131 -500 -174 -98 -45 -274 -165 -383 -263 -271 -243 -488 -569
-748 -1128 -141 -302 -168 -388 -244 -758 -27 -131 -58 -271 -70 -312 -11 -41
-21 -104 -22 -139 -2 -55 0 -66 21 -82 29 -24 63 -24 84 -1 22 24 21 35 -2 56
-23 21 -20 61 15 181 12 45 41 173 63 285 74 369 110 475 290 845 181 371 294
559 457 762 118 145 296 306 450 405 110 71 281 137 594 232 102 31 234 74
293 96 60 22 125 40 146 40 20 0 42 5 49 12 19 19 15 66 -7 78 -11 5 -21 9
-23 9 -2 -1 -23 -5 -48 -9z"/>
<path d="M6820 5543 c-27 -10 -50 -36 -50 -55 0 -20 42 -68 60 -68 5 0 19 9
31 21 20 20 25 20 133 10 62 -6 137 -18 167 -27 133 -40 269 -133 429 -293
107 -107 464 -514 608 -693 280 -346 423 -732 459 -1241 6 -88 18 -117 48
-117 8 0 22 12 31 26 16 23 16 37 5 147 -36 359 -93 578 -217 837 -108 225
-183 326 -567 767 -393 453 -574 603 -792 657 -95 24 -310 42 -345 29z"/>
<path d="M3265 4775 c-115 -27 -305 -113 -429 -194 -216 -143 -468 -358 -552
-473 -48 -65 -394 -764 -494 -998 -15 -36 -51 -114 -79 -173 -60 -127 -65
-169 -25 -216 27 -32 61 -40 82 -19 16 16 15 43 -3 58 -25 20 -18 48 41 175
31 66 83 179 117 250 138 298 361 755 399 820 105 178 480 477 764 611 140 65
256 94 385 94 102 0 129 10 129 45 0 14 -8 29 -19 35 -35 18 -208 10 -316 -15z"/>
<path d="M6776 4604 c-38 -38 1 -74 80 -74 155 0 490 -207 650 -402 121 -146
229 -322 344 -560 92 -190 120 -297 127 -475 6 -137 13 -158 50 -151 44 8 56
130 28 294 -25 145 -51 219 -150 419 -225 459 -452 713 -786 880 -47 24 -114
53 -147 64 -75 26 -174 28 -196 5z"/>
<path d="M6663 3864 c-7 -3 -13 -19 -13 -35 0 -38 35 -54 140 -64 163 -15 228
-40 283 -107 52 -65 81 -121 140 -268 71 -178 109 -314 116 -423 6 -86 15
-106 48 -107 52 -1 57 103 12 281 -60 237 -168 481 -257 580 -79 87 -131 109
-302 129 -41 5 -93 11 -115 14 -22 3 -46 3 -52 0z"/>
<path d="M3283 3845 c-146 -40 -336 -184 -461 -350 -60 -78 -247 -433 -273
-515 -40 -128 -34 -200 15 -200 33 0 42 16 50 83 3 31 17 85 30 120 34 90 207
407 259 475 82 106 223 222 334 275 66 31 72 32 199 32 137 0 164 7 164 45 0
31 -22 37 -145 43 -89 5 -134 2 -172 -8z"/>
<path d="M5040 3540 c-114 -9 -162 -27 -212 -81 l-38 -41 0 -107 0 -106 -92
-44 c-227 -106 -518 -253 -573 -290 -85 -56 -263 -215 -323 -287 -55 -67 -103
-141 -175 -274 -45 -83 -145 -354 -167 -455 -16 -71 -30 -240 -37 -451 l-5
-182 -132 -11 c-202 -17 -298 -30 -426 -56 -125 -25 -281 -74 -342 -108 -96
-53 -140 -215 -81 -300 36 -52 200 -180 285 -223 116 -59 157 -64 498 -63 168
0 375 5 460 10 85 5 281 12 435 15 260 6 288 4 390 -16 90 -17 157 -22 360
-26 268 -4 429 -14 730 -44 105 -11 269 -24 365 -31 226 -15 727 -7 860 15 52
8 201 27 330 41 129 15 267 33 305 41 119 24 297 120 431 232 78 64 114 132
114 212 0 113 -58 151 -315 207 -240 53 -294 62 -358 63 -56 0 -328 26 -374
36 -23 4 -23 5 -23 193 0 120 -5 218 -14 267 -13 69 -25 170 -40 319 -7 73
-37 229 -62 322 -39 151 -188 438 -292 566 -64 78 -181 177 -283 239 -90 55
-269 127 -386 156 l-103 26 0 58 c0 57 1 58 28 58 32 0 52 16 52 41 0 29 -22
37 -135 48 -61 6 -173 18 -250 26 -148 15 -250 17 -405 5z m412 -95 c76 -7
153 -17 173 -21 l36 -6 -3 -57 -3 -56 -220 -1 c-196 -1 -234 -4 -355 -28 -74
-15 -150 -29 -167 -33 l-33 -6 0 90 0 90 43 13 c101 31 320 38 529 15z m206
-257 c7 -56 68 -66 85 -13 5 17 11 31 12 33 2 2 46 -8 99 -22 248 -66 466
-197 601 -361 74 -91 227 -378 263 -495 28 -89 54 -220 73 -370 5 -36 16 -123
26 -195 10 -75 19 -217 20 -334 l4 -203 -178 7 c-98 3 -293 17 -433 31 -242
23 -290 24 -960 24 -590 0 -758 -3 -1030 -20 -179 -11 -370 -27 -425 -35 -55
-8 -146 -15 -202 -15 l-103 0 0 138 c0 129 22 416 36 479 3 15 31 100 61 188
50 149 101 257 176 380 130 211 384 416 675 544 49 22 139 64 201 96 106 53
114 55 131 40 26 -24 51 -15 78 27 23 34 29 37 125 57 197 41 277 49 472 48
l190 -2 3 -27z m532 -2009 c107 -10 290 -24 405 -29 204 -10 331 -20 505 -40
47 -5 144 -14 215 -19 72 -5 166 -18 210 -30 44 -11 127 -29 185 -41 124 -24
191 -54 201 -91 21 -80 -81 -188 -286 -302 -101 -56 -157 -73 -302 -91 -70 -9
-238 -30 -373 -48 -213 -27 -284 -32 -545 -36 -305 -4 -440 2 -820 38 -361 34
-468 41 -625 39 -193 -3 -323 7 -465 33 -107 20 -131 20 -765 13 -413 -4 -662
-11 -674 -17 -11 -6 -56 -8 -108 -6 -76 5 -99 11 -170 45 -75 36 -214 138
-262 191 -24 28 -18 111 11 150 73 98 567 192 1009 192 104 0 214 7 310 20
247 32 497 43 1184 50 763 8 897 6 1160 -21z"/>
</g>
</svg>
