<?xml version="1.0" standalone="no"?>
<!DOCTYPE svg PUBLIC "-//W3C//DTD SVG 20010904//EN"
 "http://www.w3.org/TR/2001/REC-SVG-20010904/DTD/svg10.dtd">
<svg version="1.0" xmlns="http://www.w3.org/2000/svg"
 width="862.000000pt" height="1033.000000pt" viewBox="0 0 862.000000 1033.000000"
 preserveAspectRatio="xMidYMid meet">
<metadata>
Created by potrace 1.16, written by Peter Selinger 2001-2019
</metadata>
<g transform="translate(0.000000,1033.000000) scale(0.100000,-0.100000)"
fill="#000000" stroke="none">
<path d="M5330 9074 c-80 -19 -244 -60 -366 -90 -294 -73 -397 -85 -1054 -124
-96 -6 -220 -17 -275 -25 -238 -36 -836 -185 -1014 -252 -43 -16 -76 -22 -96
-19 -23 5 -36 1 -47 -11 -20 -23 -44 -99 -58 -183 -6 -36 -22 -123 -36 -194
-14 -72 -38 -240 -54 -375 -17 -136 -39 -313 -50 -396 -49 -373 -94 -868 -112
-1226 -10 -217 -10 -260 4 -362 19 -132 29 -157 62 -157 45 0 51 21 35 128
-35 240 8 840 131 1827 41 327 63 480 94 645 37 194 33 182 56 170 26 -14 58
2 66 34 4 15 17 27 42 35 71 23 348 102 442 126 89 22 130 32 365 84 159 35
301 51 578 66 286 16 558 39 667 56 36 6 153 33 260 59 520 128 499 124 618
126 116 2 142 10 142 45 0 37 -38 49 -150 48 -84 0 -133 -7 -250 -35z"/>
<path d="M5773 9018 c-14 -17 -61 -346 -74 -508 -5 -69 -14 -267 -19 -440 -5
-173 -17 -387 -25 -475 -9 -88 -27 -290 -40 -450 -14 -159 -29 -324 -35 -365
-5 -41 -13 -150 -16 -241 l-7 -166 -81 -18 c-45 -9 -155 -43 -246 -76 -305
-108 -391 -129 -1085 -268 -540 -108 -556 -111 -786 -141 -223 -30 -822 -153
-979 -201 -74 -23 -153 -45 -175 -50 -22 -5 -50 -11 -62 -14 -30 -7 -39 -42
-17 -66 29 -32 60 -28 299 45 150 46 745 167 965 196 91 12 199 27 240 35 41
7 77 11 79 9 4 -4 -12 -111 -31 -211 -5 -29 -34 -104 -65 -165 -115 -234 -159
-384 -151 -518 7 -119 50 -180 168 -241 l45 -23 -35 -9 c-294 -74 -386 -120
-818 -404 -112 -73 -261 -163 -330 -200 -70 -37 -144 -77 -164 -90 -21 -13
-47 -23 -58 -23 -22 0 -60 -52 -60 -82 0 -31 29 -49 67 -42 l36 7 -7 -44 c-32
-219 -76 -872 -76 -1127 0 -79 -4 -107 -15 -118 -19 -20 -19 -48 0 -64 8 -7
15 -22 15 -35 0 -72 45 -114 83 -77 l20 20 71 -49 c39 -27 96 -71 126 -97 106
-92 256 -209 335 -262 113 -75 217 -156 310 -239 57 -51 112 -88 190 -128 141
-72 326 -187 412 -256 38 -30 95 -68 129 -86 34 -18 93 -58 132 -90 42 -34
121 -83 189 -116 65 -32 150 -82 188 -111 82 -61 164 -104 199 -104 61 0 101
44 90 99 -5 23 -1 32 24 50 17 12 45 21 66 21 47 0 210 36 246 55 15 8 62 24
104 35 75 20 199 76 278 126 21 14 71 36 111 51 40 14 98 38 129 54 32 16 84
39 115 51 76 27 229 111 498 273 408 245 490 297 595 375 58 43 152 106 210
140 58 34 132 81 165 104 91 64 152 98 184 100 15 1 51 17 79 35 44 28 53 39
68 87 15 49 16 68 4 211 -16 193 -18 432 -6 841 9 300 10 314 30 328 11 7 30
14 42 14 24 0 54 29 54 51 0 9 13 25 30 37 68 51 32 135 -38 91 -16 -10 -29
-1 -98 68 -96 97 -160 141 -329 226 -275 138 -380 215 -630 457 -132 128 -208
194 -285 244 -58 38 -136 90 -174 115 -38 25 -110 82 -160 127 -86 76 -91 83
-91 120 0 58 9 58 -395 -8 -137 -22 -280 -61 -525 -142 -204 -69 -490 -175
-578 -217 -89 -41 -128 -36 -256 32 -53 28 -101 55 -107 60 -25 21 32 305 108
537 56 170 57 202 9 202 -16 0 -33 -6 -38 -12 -15 -19 -98 -277 -128 -396 -39
-155 -66 -348 -54 -375 7 -14 53 -43 121 -77 154 -76 149 -72 95 -103 -24 -15
-105 -53 -178 -85 -74 -33 -155 -70 -181 -82 -42 -21 -50 -22 -92 -10 -64 18
-132 63 -153 102 -14 25 -18 53 -17 118 2 109 32 204 130 410 66 140 75 167
94 275 11 66 20 136 20 156 0 32 3 37 28 41 64 11 567 113 805 164 276 59 420
99 612 170 155 59 314 99 328 85 16 -16 53 -13 67 4 9 11 32 15 80 15 65 0
132 18 145 40 4 6 4 22 1 35 -7 29 -41 40 -78 26 -14 -5 -52 -7 -83 -4 l-57 6
7 131 c3 72 13 187 20 256 8 69 21 215 30 325 9 110 25 290 36 400 11 110 24
342 29 515 13 403 22 535 56 776 20 141 25 200 17 212 -13 21 -56 27 -70 10z
m225 -3822 c31 -26 136 -100 232 -164 155 -103 193 -134 350 -287 245 -239
344 -311 626 -456 184 -95 272 -156 349 -242 l55 -62 -36 -18 c-19 -10 -72
-57 -117 -104 -101 -105 -194 -178 -403 -317 -204 -135 -332 -238 -509 -408
-155 -149 -252 -228 -490 -399 -163 -118 -238 -170 -592 -415 -112 -76 -276
-190 -365 -252 -90 -63 -186 -129 -215 -148 -28 -18 -54 -43 -58 -54 -3 -11
-11 -20 -16 -20 -5 0 -39 20 -76 45 -36 25 -71 45 -78 45 -7 0 -26 16 -42 35
-15 19 -41 52 -58 72 -19 23 -54 47 -95 65 -117 52 -184 90 -220 123 -19 18
-75 57 -125 86 -49 29 -106 69 -125 90 -22 24 -70 55 -133 84 -102 48 -135 80
-234 216 -18 26 -74 81 -124 124 -49 43 -109 103 -131 134 -23 31 -66 83 -97
117 -31 33 -78 87 -105 118 -48 57 -216 203 -352 306 -216 164 -267 206 -347
287 l-88 90 148 78 c81 44 195 111 253 150 150 102 464 297 535 333 81 40 210
85 324 111 106 25 219 77 249 116 12 15 60 43 114 66 112 49 210 98 298 150
126 74 448 202 785 312 260 85 374 113 564 140 l156 23 68 -61 c37 -33 93 -82
125 -109z m1483 -1731 c-15 -225 -13 -550 4 -745 8 -91 15 -170 15 -176 0 -7
-17 -21 -37 -31 -74 -39 -219 -125 -288 -173 -38 -26 -110 -71 -160 -100 -49
-30 -133 -86 -186 -125 -53 -39 -132 -93 -175 -120 -43 -26 -133 -82 -199
-123 -323 -201 -618 -368 -716 -405 -35 -13 -91 -38 -124 -54 -33 -17 -82 -38
-110 -47 -27 -9 -95 -41 -150 -72 -110 -61 -208 -104 -237 -104 -10 0 -45 -11
-76 -24 -70 -30 -179 -56 -230 -56 -21 0 -52 -4 -70 -9 -41 -12 -40 -21 -2
235 27 181 39 251 56 325 7 32 -19 62 -47 54 -15 -5 -19 -1 -19 19 0 31 14 40
41 26 12 -7 37 -9 59 -5 30 5 43 14 58 40 13 20 68 65 148 120 71 49 197 136
279 195 83 58 236 164 340 235 297 201 697 490 780 563 22 19 107 99 189 176
174 165 302 267 481 384 156 102 297 207 345 257 l35 36 3 -68 c2 -37 -1 -140
-7 -228z m-4891 97 c402 -303 473 -367 663 -601 56 -70 139 -156 227 -236 30
-28 82 -85 114 -128 83 -109 100 -124 201 -174 50 -25 108 -62 130 -83 22 -21
83 -64 135 -95 52 -31 109 -70 125 -85 35 -33 144 -95 228 -129 40 -16 66 -35
84 -60 48 -66 96 -111 131 -122 25 -8 32 -15 27 -28 -19 -48 -25 -137 -25
-350 0 -233 -11 -398 -33 -476 -6 -22 -12 -41 -13 -43 -5 -7 -65 30 -128 77
-35 27 -117 75 -182 107 -64 32 -142 79 -174 105 -31 27 -96 71 -145 99 -48
28 -110 70 -139 94 -61 52 -271 182 -411 254 -71 36 -126 75 -190 132 -49 44
-146 120 -214 168 -185 131 -266 192 -371 282 -52 45 -134 108 -181 141 -47
33 -93 67 -101 77 -23 25 -27 132 -16 412 8 218 39 653 55 783 l6 47 51 -48
c28 -26 94 -80 146 -120z"/>
</g>
</svg>
