<svg xmlns="http://www.w3.org/2000/svg" xmlns:xlink="http://www.w3.org/1999/xlink" version="1.1"  x="0px" y="0px" width="32" height="32" viewBox="0 0 24 24" style="fill: rgb(71, 71, 94);" xml:space="preserve" preserveAspectRatio="none" viewbox="0 0 32 32">
<path d="M16.5,2h-9C6.673,2,6,2.673,6,3.5v17C6,21.327,6.673,22,7.5,22h9.001C17.327,22,18,21.327,18,20.5v-17  C18,2.673,17.327,2,16.5,2z M12,21.15c-0.635,0-1.15-0.515-1.15-1.15s0.515-1.15,1.15-1.15s1.15,0.515,1.15,1.15  S12.635,21.15,12,21.15z M16,18H8V4h8V18z" style="fill: rgb(71, 71, 94);"></path>
</svg>