<?xml version="1.0" standalone="no"?>
<!DOCTYPE svg PUBLIC "-//W3C//DTD SVG 20010904//EN"
 "http://www.w3.org/TR/2001/REC-SVG-20010904/DTD/svg10.dtd">
<svg version="1.0" xmlns="http://www.w3.org/2000/svg"
 width="788.000000pt" height="581.000000pt" viewBox="0 0 788.000000 581.000000"
 preserveAspectRatio="xMidYMid meet">

<g transform="translate(0.000000,581.000000) scale(0.100000,-0.100000)"
fill="#000000" stroke="none">
<path d="M2110 4369 c-453 -18 -671 -31 -975 -54 -104 -8 -238 -15 -296 -15
-120 0 -274 -14 -394 -35 -44 -8 -107 -16 -139 -19 -42 -3 -64 -10 -73 -22
-17 -24 -17 -30 8 -55 23 -23 21 -23 234 12 70 12 213 24 345 29 124 5 349 18
500 29 598 44 1033 56 1890 54 770 -3 1187 -12 1480 -33 74 -6 300 -14 502
-19 202 -5 371 -12 375 -14 5 -3 139 -12 298 -21 271 -15 382 -23 645 -46 102
-9 258 -17 785 -41 226 -10 251 -13 263 -30 16 -24 44 -24 70 -1 34 29 37 58
8 87 -24 23 -31 25 -128 25 -57 0 -186 4 -288 10 -102 5 -288 14 -415 20 -126
6 -293 18 -370 25 -77 8 -270 22 -430 30 -159 9 -364 22 -455 30 -91 8 -253
15 -360 15 -108 0 -344 9 -525 20 -214 13 -570 23 -1015 30 -858 12 -1014 11
-1540 -11z"/>
<path d="M3075 3934 c-16 -2 -77 -9 -135 -15 -58 -6 -141 -23 -185 -36 -194
-61 -378 -186 -420 -285 -31 -77 -13 -234 41 -340 16 -31 23 -57 18 -70 -9
-29 -103 -69 -172 -72 -31 -2 -65 -6 -74 -10 -11 -5 -20 -1 -28 14 -8 15 -19
21 -39 19 -16 -2 -40 6 -58 19 -49 35 -192 100 -258 117 -98 26 -237 30 -335
10 -104 -21 -236 -67 -304 -105 -117 -67 -289 -239 -395 -395 -51 -77 -186
-391 -221 -515 -29 -107 -37 -275 -16 -364 38 -159 132 -285 277 -370 46 -28
137 -85 203 -128 65 -43 150 -94 190 -112 260 -125 794 -203 1209 -176 386 25
587 75 912 230 185 88 460 314 562 462 104 150 142 246 219 550 77 309 98 432
99 588 0 128 -3 157 -28 250 -37 137 -106 297 -166 385 -88 130 -261 245 -471
315 -87 29 -108 32 -245 35 -82 2 -163 1 -180 -1z m417 -123 c178 -60 344
-176 419 -292 47 -74 108 -225 141 -349 28 -107 29 -124 25 -245 -6 -144 -36
-305 -112 -601 -68 -261 -108 -352 -220 -501 -95 -128 -339 -316 -525 -405
-276 -133 -466 -182 -815 -209 -339 -26 -772 19 -1062 112 -123 39 -174 65
-348 177 -77 50 -172 111 -212 136 -82 52 -149 133 -184 224 -20 49 -23 75
-23 187 -1 140 10 198 63 328 136 339 172 398 351 578 105 105 137 131 200
162 174 84 368 115 520 83 88 -19 224 -82 295 -136 28 -21 63 -43 78 -49 40
-15 114 -14 140 3 12 8 40 17 62 21 70 12 162 60 179 94 25 48 20 110 -16 187
-24 52 -33 85 -36 146 -7 121 11 149 161 242 168 105 365 147 662 142 150 -3
166 -5 257 -35z"/>
<path d="M3670 3049 c-239 -112 -2139 -1052 -2317 -1146 -44 -24 -84 -51 -87
-59 -9 -23 12 -54 37 -54 12 0 452 214 977 476 938 468 1317 653 1555 761 66
30 128 62 138 70 31 29 15 74 -27 72 -12 0 -136 -54 -276 -120z"/>
<path d="M1440 2545 c-378 -144 -589 -290 -485 -337 21 -9 29 -7 58 19 82 72
262 163 481 243 77 28 146 56 153 62 8 6 13 23 11 37 -5 44 -53 38 -218 -24z"/>
<path d="M3470 2276 c-80 -34 -251 -117 -380 -183 -129 -67 -264 -133 -300
-148 -77 -32 -102 -52 -98 -78 5 -34 31 -42 80 -27 23 8 183 85 353 171 171
86 359 176 419 200 117 47 146 72 126 108 -6 12 -20 21 -33 20 -12 0 -87 -28
-167 -63z"/>
<path d="M5895 3826 c-112 -32 -169 -67 -177 -111 -2 -12 -18 -25 -43 -34
-144 -52 -359 -142 -470 -196 -338 -164 -442 -284 -539 -619 -47 -162 -30
-246 67 -331 90 -78 267 -156 462 -201 130 -31 424 -26 625 9 362 64 694 177
871 298 102 69 170 141 319 340 168 224 172 234 144 346 -23 94 -47 138 -113
208 -31 33 -77 88 -102 121 -54 71 -102 98 -211 119 -40 8 -125 24 -188 36
-148 28 -563 38 -645 15z m607 -100 c73 -13 165 -29 204 -36 85 -14 119 -33
170 -96 21 -27 67 -79 101 -116 63 -69 86 -117 99 -213 6 -39 2 -46 -128 -220
-157 -210 -213 -268 -327 -343 -127 -84 -324 -158 -596 -226 -254 -64 -557
-91 -740 -67 -191 26 -427 123 -509 210 -43 47 -46 53 -46 105 0 119 102 370
189 467 117 131 445 292 926 455 163 55 174 58 275 58 99 1 106 2 115 24 9 19
17 22 72 22 34 0 122 -11 195 -24z"/>
<path d="M6460 3363 c-14 -2 -195 -38 -403 -79 -415 -82 -677 -144 -838 -198
-57 -19 -123 -39 -146 -45 -33 -9 -44 -18 -49 -38 -5 -19 -2 -30 11 -40 27
-19 40 -17 189 32 191 63 442 122 871 206 419 81 444 87 459 112 24 38 -22 63
-94 50z"/>
<path d="M6000 2854 c-183 -28 -399 -101 -414 -140 -9 -24 12 -54 38 -54 12 0
51 11 85 25 85 35 226 72 306 80 90 10 122 45 73 79 -22 16 -37 17 -88 10z"/>
<path d="M5050 1874 c-151 -18 -368 -84 -525 -159 -122 -58 -162 -102 -194
-212 -23 -81 -23 -82 -5 -119 38 -77 132 -99 384 -91 221 7 305 24 437 87 128
62 200 128 231 213 51 136 8 233 -118 267 -44 11 -163 19 -210 14z m212 -110
c42 -21 48 -31 48 -74 -1 -88 -71 -168 -204 -231 -137 -65 -182 -73 -426 -74
-154 0 -223 4 -244 13 -29 12 -29 13 -9 27 16 11 20 26 20 75 1 34 7 67 14 76
45 55 373 175 554 203 82 13 207 5 247 -15z"/>
<path d="M4838 1595 c-138 -34 -222 -107 -176 -153 18 -18 36 -15 71 12 34 25
96 48 186 69 60 13 83 36 65 65 -14 22 -72 25 -146 7z"/>
</g>
</svg>
