<?xml version="1.0" standalone="no"?>
<!DOCTYPE svg PUBLIC "-//W3C//DTD SVG 20010904//EN"
 "http://www.w3.org/TR/2001/REC-SVG-20010904/DTD/svg10.dtd">
<svg version="1.0" xmlns="http://www.w3.org/2000/svg"
 width="657.000000pt" height="1141.000000pt" viewBox="0 0 657.000000 1141.000000"
 preserveAspectRatio="xMidYMid meet">
<metadata>
Created by potrace 1.16, written by Peter Selinger 2001-2019
</metadata>
<g transform="translate(0.000000,1141.000000) scale(0.100000,-0.100000)"
fill="#000000" stroke="none">
<path d="M5480 10919 c-111 -47 -198 -73 -295 -87 -38 -6 -151 -34 -250 -62
-98 -28 -254 -64 -345 -79 -125 -22 -217 -46 -380 -99 -376 -123 -580 -173
-950 -233 -394 -64 -809 -180 -1560 -437 -129 -44 -318 -108 -420 -140 -102
-33 -256 -92 -342 -130 -86 -39 -182 -78 -212 -86 -61 -18 -89 -46 -77 -80 4
-11 4 -212 0 -446 -6 -344 -13 -492 -38 -780 -42 -491 -51 -740 -51 -1450 0
-456 4 -662 15 -795 43 -515 54 -748 60 -1235 3 -278 10 -561 15 -630 12 -165
12 -455 -1 -610 -13 -160 -31 -1033 -36 -1765 -4 -487 -2 -590 12 -705 19
-156 41 -216 81 -226 22 -6 32 -2 48 18 28 35 199 118 319 157 53 17 140 45
192 62 53 16 148 53 213 80 229 99 342 134 578 178 145 27 201 47 525 186 302
129 544 221 874 330 121 41 285 96 365 124 80 28 243 78 364 111 120 34 253
74 295 90 120 45 400 164 468 198 34 18 71 32 82 32 22 0 151 66 286 146 103
60 185 99 233 109 27 6 32 4 32 -12 0 -42 53 -58 82 -25 9 9 18 35 21 57 3 22
9 53 12 68 4 16 3 38 -3 50 -36 75 -43 194 -47 832 -4 502 -8 639 -21 720 -14
89 -15 237 -9 1370 3 699 10 1331 15 1405 17 250 24 1226 11 1465 -18 312 -19
1105 -2 1520 14 346 18 573 12 670 -2 28 0 71 4 97 14 91 -28 99 -175 37z m85
-196 c5 -74 3 -212 -4 -328 -29 -513 -34 -1141 -13 -1679 16 -421 15 -1176 -2
-1541 -10 -205 -17 -682 -20 -1505 -5 -1101 -4 -1214 11 -1305 14 -85 17 -183
18 -645 1 -557 11 -900 26 -900 5 0 9 -11 9 -25 0 -21 -8 -27 -71 -45 -78 -24
-195 -78 -286 -133 -76 -46 -387 -193 -583 -275 -187 -78 -287 -112 -574 -192
-120 -34 -284 -86 -365 -115 -80 -29 -207 -72 -281 -95 -220 -70 -616 -220
-915 -348 -313 -133 -330 -139 -540 -181 -183 -36 -330 -82 -525 -166 -82 -35
-210 -83 -285 -105 -173 -52 -238 -76 -344 -129 -45 -23 -85 -40 -87 -38 -2 2
-12 51 -21 108 -14 89 -16 183 -14 669 1 311 6 617 12 680 5 63 9 261 9 440 0
179 7 469 17 645 14 274 15 354 5 555 -7 129 -15 447 -18 705 -5 467 -17 716
-54 1163 -17 202 -20 325 -20 895 0 812 3 891 76 1747 3 41 9 256 13 478 6
387 7 404 26 415 74 45 392 176 550 227 105 34 359 119 565 190 206 70 434
146 505 169 214 67 684 179 882 212 370 60 596 115 978 239 160 52 252 76 371
96 88 14 211 41 274 59 159 46 305 82 369 90 57 8 154 38 231 73 25 11 50 21
56 21 8 1 14 -41 19 -126z"/>
<path d="M4585 9785 c-22 -14 -52 -25 -66 -25 -15 0 -69 -15 -120 -34 -52 -18
-116 -39 -143 -45 -27 -7 -107 -39 -178 -72 -114 -53 -137 -61 -204 -64 -63
-4 -89 -11 -167 -48 -183 -88 -324 -146 -417 -172 -160 -44 -249 -75 -385
-135 -179 -79 -504 -183 -650 -209 -211 -37 -299 -65 -464 -147 -129 -64 -157
-75 -172 -66 -27 17 -54 15 -72 -6 -15 -17 -16 -33 -5 -176 8 -121 8 -222 -1
-439 -22 -491 -24 -760 -11 -1077 11 -252 10 -335 -1 -475 -14 -187 -18 -525
-6 -567 20 -72 92 -77 92 -7 0 31 3 33 60 49 33 9 157 58 275 110 118 51 294
118 390 150 205 67 293 103 530 215 204 97 277 121 506 169 231 49 271 60 409
116 159 63 323 121 470 164 66 19 173 60 238 90 65 31 133 56 150 56 61 0 66
13 45 115 -15 74 -12 2076 3 2138 6 20 11 90 12 155 2 100 -1 122 -17 146 -15
24 -16 32 -6 51 9 17 9 28 1 44 -15 28 -46 26 -96 -4z m19 -127 c12 -20 12
-47 1 -188 -9 -118 -13 -451 -14 -1165 -1 -550 0 -1017 1 -1037 l3 -38 -136
-63 c-74 -35 -172 -74 -218 -86 -115 -31 -315 -101 -477 -166 -142 -56 -161
-62 -434 -121 -218 -47 -302 -76 -526 -182 -225 -106 -357 -159 -517 -207 -65
-19 -228 -82 -363 -140 -179 -77 -255 -105 -286 -105 l-41 0 7 178 c5 97 11
229 15 292 4 63 3 243 -2 400 -5 157 -6 418 -3 580 3 162 9 459 12 660 5 305
9 368 21 382 8 9 81 51 162 92 161 82 251 111 466 151 161 30 484 133 645 205
132 60 223 92 377 136 118 33 305 109 448 181 57 29 86 37 156 43 78 7 101 14
215 69 71 33 154 66 184 72 30 6 84 23 120 37 56 22 112 36 157 41 7 0 19 -9
27 -21z"/>
<path d="M4725 6790 c-27 -5 -75 -9 -106 -9 -47 -1 -65 -7 -105 -33 -56 -38
-104 -105 -134 -185 -24 -64 -49 -308 -36 -357 11 -45 112 -140 170 -159 57
-20 180 -22 256 -6 106 23 195 116 266 279 42 97 51 187 23 230 -9 14 -24 48
-33 77 -23 69 -68 129 -110 147 -46 19 -129 26 -191 16z m143 -101 c45 -15 77
-111 77 -229 0 -123 -24 -189 -89 -246 -75 -65 -138 -94 -207 -94 -94 0 -141
27 -182 105 -18 33 -22 57 -22 140 0 95 2 103 34 160 18 33 49 77 69 98 l36
37 88 0 c76 0 91 3 105 20 20 22 45 25 91 9z"/>
<path d="M4655 5725 c-27 -6 -70 -22 -93 -34 -57 -29 -649 -223 -777 -255
-181 -44 -499 -144 -691 -217 -104 -39 -268 -99 -364 -134 -427 -153 -565
-208 -762 -298 -42 -20 -99 -42 -126 -51 -82 -24 -94 -33 -90 -69 3 -28 8 -33
41 -41 32 -8 42 -6 67 12 16 12 32 22 35 22 3 0 76 32 163 71 86 39 222 95
302 124 80 29 170 63 200 75 30 13 134 51 230 85 96 34 256 93 355 130 201 75
387 134 640 201 190 50 722 223 801 260 28 13 56 24 62 24 17 0 15 -94 -3
-210 -40 -258 -57 -394 -75 -600 -11 -124 -31 -340 -44 -480 -14 -140 -29
-323 -35 -405 -6 -83 -22 -227 -36 -320 -15 -107 -25 -214 -25 -289 0 -65 -4
-146 -10 -180 -5 -33 -12 -87 -16 -118 l-5 -58 -52 -15 c-28 -8 -89 -15 -138
-15 -134 0 -229 -17 -312 -55 -86 -40 -161 -64 -312 -99 -60 -14 -213 -60
-340 -101 -126 -42 -275 -85 -330 -96 -55 -11 -169 -46 -255 -79 -237 -88
-307 -108 -504 -140 -153 -25 -334 -71 -453 -117 -14 -5 -15 64 -10 653 4 471
10 715 22 854 22 268 32 944 15 965 -17 20 -57 19 -68 -2 -6 -10 -12 -196 -15
-413 -3 -217 -13 -485 -22 -595 -11 -137 -17 -400 -22 -835 l-6 -635 -23 -22
c-48 -45 -18 -71 102 -90 24 -4 35 0 47 17 10 14 54 34 133 61 115 38 170 50
384 84 135 22 233 51 439 129 92 35 200 69 241 76 41 7 198 52 349 101 150 49
324 100 385 114 128 28 193 49 291 95 66 30 80 32 230 40 88 4 175 13 193 18
18 6 32 7 32 1 0 -5 11 -11 25 -15 21 -5 32 1 60 31 40 41 41 47 19 69 -14 15
-14 28 -4 114 7 53 16 178 20 277 4 99 17 239 28 310 11 72 26 204 32 295 6
91 22 278 36 415 13 138 31 327 39 420 23 260 34 357 60 515 13 80 29 205 36
278 15 171 13 174 -96 147z"/>
</g>
</svg>
