<?xml version="1.0" standalone="no"?>
<!DOCTYPE svg PUBLIC "-//W3C//DTD SVG 20010904//EN"
 "http://www.w3.org/TR/2001/REC-SVG-20010904/DTD/svg10.dtd">
<svg version="1.0" xmlns="http://www.w3.org/2000/svg"
 width="1455.000000pt" height="598.000000pt" viewBox="0 0 1455.000000 598.000000"
 preserveAspectRatio="xMidYMid meet">

<g transform="translate(0.000000,598.000000) scale(0.100000,-0.100000)"
fill="#000000" stroke="none">
<path d="M4150 5789 c-273 -25 -577 -120 -790 -246 -198 -117 -304 -205 -630
-526 -135 -133 -295 -289 -356 -347 -60 -58 -139 -143 -174 -190 -35 -47 -117
-150 -181 -230 -131 -163 -285 -372 -342 -463 -78 -125 -444 -498 -570 -581
-104 -69 -390 -204 -670 -317 -335 -134 -362 -150 -327 -185 15 -15 80 -125
80 -135 0 -5 5 -9 10 -9 6 0 10 -5 10 -10 0 -9 51 -93 81 -133 3 -5 33 5 65
21 33 16 124 55 204 87 394 156 676 290 787 375 136 103 480 464 539 566 15
27 56 85 89 129 34 44 77 103 95 130 19 28 49 68 67 90 93 113 183 226 245
308 106 142 832 848 981 955 354 254 701 370 1112 370 83 0 175 -4 205 -8 87
-12 201 -37 245 -53 22 -8 65 -23 95 -32 71 -21 322 -152 425 -221 105 -70
182 -139 205 -184 22 -44 68 -217 109 -410 72 -345 71 -471 -3 -689 -79 -231
-186 -432 -271 -510 -146 -132 -436 -212 -827 -227 -401 -15 -693 59 -882 224
-112 98 -111 96 -110 287 1 88 4 167 6 175 3 8 10 35 17 60 42 151 67 208 133
307 155 233 543 417 857 407 152 -5 383 -43 439 -73 11 -6 28 -32 37 -58 10
-27 28 -77 41 -113 33 -93 37 -115 29 -165 -8 -58 -53 -103 -149 -151 -166
-81 -476 -102 -476 -31 0 7 -12 30 -27 51 l-26 39 -19 -23 c-28 -35 -17 -76
63 -240 79 -161 88 -175 139 -197 52 -22 241 -19 359 6 121 26 193 61 262 130
49 50 57 63 68 117 14 76 8 124 -35 239 -18 50 -45 135 -60 190 -36 132 -166
406 -223 467 -74 81 -212 124 -484 150 -150 14 -272 3 -414 -38 -152 -44 -241
-91 -398 -210 -172 -130 -281 -333 -330 -613 -25 -143 -16 -302 27 -440 31
-101 161 -364 217 -439 50 -68 160 -174 227 -220 50 -33 171 -89 247 -112 327
-101 870 -89 1217 26 207 69 312 169 430 409 149 305 191 485 168 720 -17 180
-111 588 -179 782 -17 48 -72 168 -121 266 -97 194 -149 261 -284 368 -111 88
-373 233 -513 283 -248 89 -491 119 -761 95z"/>
<path d="M8560 5448 c-145 -9 -334 -42 -440 -78 -255 -85 -393 -205 -705 -610
-199 -257 -261 -367 -441 -778 -118 -269 -327 -628 -508 -872 -177 -239 -344
-388 -621 -554 -383 -231 -751 -351 -1510 -495 -148 -29 -389 -81 -535 -116
-271 -66 -593 -136 -710 -155 -36 -5 -106 -10 -157 -10 -95 0 -123 -5 -123
-23 0 -14 83 -147 92 -147 5 0 8 -5 8 -10 0 -6 17 -36 37 -67 l38 -56 140 6
c77 4 183 15 235 26 52 11 131 26 175 35 88 18 162 35 460 107 215 51 416 93
670 139 270 50 565 124 795 200 377 125 781 365 993 590 249 264 527 722 748
1230 94 217 149 323 228 445 55 86 173 249 191 265 3 3 45 53 93 113 203 247
329 343 542 410 255 80 612 99 855 46 52 -11 103 -22 113 -24 76 -17 234 -83
342 -145 174 -98 405 -321 458 -440 20 -44 36 -220 31 -340 -1 -25 -3 -137 -4
-250 -2 -113 -6 -253 -11 -312 -22 -299 -122 -464 -390 -648 -252 -173 -641
-290 -1049 -316 -126 -8 -235 7 -306 41 -103 50 -276 241 -344 378 -30 61 -31
66 -31 212 0 225 24 353 101 523 81 176 238 380 350 452 49 31 156 72 232 89
124 27 337 21 474 -14 157 -41 465 -237 618 -393 48 -50 49 -51 36 -84 -35
-85 -179 -232 -278 -282 -113 -57 -328 -95 -461 -82 -105 11 -108 15 -147 163
-14 53 -30 103 -36 110 -28 34 -54 -2 -64 -90 -5 -42 1 -80 31 -192 43 -165
66 -221 104 -255 71 -64 160 -85 316 -76 251 14 387 73 543 238 103 107 153
207 154 307 1 70 -72 344 -110 415 -50 95 -242 267 -444 399 -86 57 -255 136
-339 158 -56 16 -118 22 -254 26 -160 5 -190 3 -267 -16 -149 -35 -245 -92
-349 -206 -171 -187 -287 -414 -336 -657 -12 -61 -17 -131 -17 -263 1 -208 15
-293 87 -515 75 -230 158 -370 319 -536 141 -146 247 -188 463 -187 414 4 885
144 1150 344 216 161 319 308 369 529 20 89 29 270 30 662 1 383 -2 412 -83
676 -83 275 -129 351 -317 531 -178 170 -372 289 -579 354 -197 62 -435 89
-655 75z"/>
<path d="M12585 5189 c-178 -19 -373 -85 -499 -170 -232 -155 -589 -666 -791
-1134 -26 -60 -56 -129 -66 -152 -11 -24 -19 -49 -19 -56 0 -7 -4 -17 -8 -22
-11 -12 -64 -163 -91 -260 -11 -38 -38 -167 -60 -285 -67 -353 -118 -523 -228
-748 -157 -321 -361 -535 -638 -667 -285 -136 -863 -257 -1570 -330 -365 -38
-889 -118 -1310 -200 -249 -49 -382 -65 -580 -70 -93 -3 -253 -7 -355 -10
-102 -3 -229 -12 -282 -20 -110 -16 -246 -49 -259 -62 -5 -5 24 -75 67 -162
69 -140 77 -152 97 -146 169 52 349 72 707 79 389 7 447 14 850 90 223 42 492
86 735 120 210 29 210 29 470 56 485 51 840 109 1150 186 195 49 272 76 410
143 149 73 223 127 345 250 138 140 204 238 315 469 100 206 164 430 225 777
12 66 28 152 36 190 28 129 123 389 205 563 21 46 39 88 39 92 0 10 68 140
116 223 19 32 34 60 34 63 0 3 16 30 35 60 19 30 35 59 35 64 0 6 5 10 10 10
6 0 10 5 10 10 0 6 46 77 103 158 125 179 286 348 392 409 293 170 826 190
1180 45 86 -36 223 -103 261 -129 118 -79 161 -109 183 -127 152 -126 311
-323 384 -478 107 -225 126 -401 76 -703 -23 -141 -43 -213 -75 -276 -49 -97
-227 -228 -436 -318 -340 -148 -459 -177 -718 -175 -158 2 -184 4 -265 29
-187 55 -192 59 -488 359 -147 149 -279 290 -293 313 -28 46 -28 75 1 174 42
146 155 279 310 365 305 170 490 192 810 99 310 -90 440 -167 570 -336 24 -30
53 -74 64 -96 20 -37 20 -43 7 -81 -36 -101 -124 -202 -193 -222 -66 -18 -232
-32 -338 -28 -90 3 -109 7 -160 33 -41 21 -68 44 -91 78 -42 61 -51 93 -70
242 -21 167 -20 165 -49 165 -21 0 -25 -6 -30 -44 -15 -99 36 -475 79 -585 72
-181 181 -245 411 -244 219 2 344 36 413 112 72 80 131 206 141 304 7 70 -10
280 -34 405 -27 144 -109 279 -247 407 -111 102 -296 186 -578 262 -92 24
-123 28 -245 28 -162 0 -236 -17 -382 -86 -254 -121 -399 -260 -464 -445 -27
-75 -49 -209 -49 -296 0 -79 26 -323 42 -387 28 -120 111 -218 536 -637 116
-115 199 -164 357 -211 84 -25 104 -27 280 -27 172 -1 201 2 302 26 117 28
371 123 507 191 174 85 338 222 388 322 27 52 55 155 85 310 36 188 20 632
-33 924 -48 266 -179 511 -389 730 -138 143 -259 229 -480 339 -261 130 -590
185 -910 151z"/>
</g>
</svg>
