<?xml version="1.0" standalone="no"?>
<!DOCTYPE svg PUBLIC "-//W3C//DTD SVG 20010904//EN"
 "http://www.w3.org/TR/2001/REC-SVG-20010904/DTD/svg10.dtd">
<svg version="1.0" xmlns="http://www.w3.org/2000/svg"
 width="675.000000pt" height="658.000000pt" viewBox="0 0 675.000000 658.000000"
 preserveAspectRatio="xMidYMid meet">

<g transform="translate(0.000000,658.000000) scale(0.100000,-0.100000)"
fill="#000000" stroke="none">
<path d="M3715 5333 c-22 -2 -120 -7 -218 -11 -176 -8 -178 -8 -203 -35 -13
-15 -29 -27 -34 -27 -5 0 -30 -30 -56 -67 -66 -94 -94 -123 -121 -123 -30 0
-57 -42 -50 -77 15 -73 21 -90 43 -113 38 -41 160 -313 214 -475 47 -145 70
-264 70 -367 0 -56 0 -56 -89 -28 -115 36 -238 10 -456 -96 -202 -98 -299
-200 -356 -374 -12 -36 -26 -71 -32 -78 -5 -7 -42 -22 -81 -35 -63 -19 -92
-22 -251 -22 -99 1 -211 4 -249 9 -63 7 -72 11 -112 52 -29 28 -44 52 -44 69
0 14 4 25 9 25 20 0 23 41 5 61 -30 34 -96 16 -112 -30 -42 -118 -56 -184 -60
-281 -5 -126 8 -203 48 -288 38 -81 143 -241 201 -306 44 -50 209 -166 235
-166 8 0 14 -4 14 -8 0 -11 -45 -52 -90 -83 -19 -13 -76 -62 -126 -110 -54
-51 -106 -91 -125 -97 -19 -6 -83 -13 -142 -17 -87 -5 -117 -3 -159 11 -37 12
-70 15 -122 11 -79 -6 -340 17 -383 34 -16 6 -67 17 -114 25 -48 7 -122 27
-166 43 -74 27 -85 28 -188 24 -82 -4 -125 -1 -171 11 -83 22 -174 13 -210
-21 -29 -26 -28 -19 -6 -188 8 -60 75 -202 143 -301 47 -69 148 -134 319 -205
85 -35 238 -105 340 -155 102 -50 217 -101 255 -114 39 -12 131 -45 205 -72
208 -77 449 -101 859 -87 205 7 241 11 322 34 126 36 285 108 344 155 28 22
91 71 140 109 50 38 107 90 128 116 l39 46 39 -78 c22 -43 56 -123 75 -178 20
-55 52 -125 71 -155 40 -63 372 -394 480 -481 39 -31 124 -91 188 -133 64 -42
157 -106 206 -142 176 -127 258 -161 487 -199 194 -32 239 -47 353 -111 52
-30 108 -54 123 -54 28 0 136 -75 166 -115 43 -59 56 -65 134 -65 72 0 76 1
82 25 4 18 -3 37 -27 72 -18 26 -44 65 -58 86 -14 21 -66 72 -116 113 -197
162 -309 263 -396 359 -119 130 -126 140 -188 275 -28 63 -63 137 -78 164 -23
43 -23 47 -7 42 11 -3 75 -17 143 -31 136 -28 228 -31 471 -15 171 10 250 32
336 90 32 22 81 47 108 56 62 21 208 158 231 219 9 22 27 56 41 76 20 30 23
41 15 63 -13 33 -64 37 -81 6 -13 -24 -83 -30 -74 -6 3 8 1 24 -6 35 -15 29
-66 29 -75 1 -11 -35 -50 -53 -98 -46 -43 7 -174 58 -315 122 -42 19 -115 51
-160 70 -213 88 -271 131 -371 271 -79 109 -131 219 -165 343 -24 87 -27 122
-36 395 -5 165 -13 311 -16 325 -57 229 -189 550 -287 702 -98 150 -141 177
-282 178 l-90 0 -3 73 c-2 49 7 125 28 237 34 187 38 301 15 431 -22 129 -80
348 -109 413 -14 32 -26 70 -26 83 0 40 -48 113 -73 111 -12 -1 -40 -3 -62 -5z
m-45 -107 c0 -2 -36 -52 -80 -110 -44 -59 -80 -111 -80 -116 0 -5 -12 -15 -27
-23 -21 -9 -69 -12 -187 -9 l-158 4 38 37 c22 21 66 76 99 123 59 85 61 87
105 90 65 6 290 9 290 4z m122 -125 c32 -80 92 -315 107 -418 15 -101 13 -172
-9 -293 -10 -58 -27 -159 -37 -225 -9 -66 -22 -123 -28 -127 -5 -4 -28 -8 -51
-8 l-41 0 -6 248 c-5 222 -8 257 -31 347 -27 106 -82 229 -115 259 -19 18 -19
18 10 68 47 79 154 218 168 218 4 0 19 -31 33 -69z m-318 -245 c34 -22 79 -90
104 -158 41 -110 54 -219 56 -462 l1 -230 -47 -12 c-26 -6 -67 -9 -91 -7 l-44
5 -6 117 c-6 122 -28 218 -87 385 -33 93 -47 125 -124 290 l-47 99 131 -5 c95
-4 136 -10 154 -22z m421 -928 c9 -21 18 -23 117 -28 127 -6 139 -13 212 -116
77 -110 162 -300 243 -544 l45 -135 14 -325 c13 -315 14 -328 44 -429 39 -129
95 -247 166 -348 l55 -78 -103 106 c-187 192 -242 328 -237 586 3 103 -6 133
-37 133 -8 0 -24 -10 -35 -21 -21 -21 -21 -28 -16 -183 6 -188 20 -245 94
-374 47 -81 175 -242 193 -242 10 0 188 -200 263 -297 54 -68 69 -78 98 -63
36 20 23 60 -48 149 -116 143 -112 138 -57 98 62 -44 98 -62 297 -149 393
-171 445 -188 585 -188 34 0 62 -3 62 -6 0 -3 -32 -36 -70 -73 -47 -45 -86
-72 -120 -84 -27 -10 -69 -33 -94 -52 -76 -58 -152 -75 -396 -87 -211 -10
-217 -10 -341 15 -69 14 -153 36 -185 49 -58 23 -60 24 -101 107 -24 47 -67
123 -97 170 -29 47 -74 127 -100 178 -25 51 -72 133 -105 183 -44 66 -62 103
-66 138 -8 59 -29 171 -54 285 -14 65 -21 143 -24 297 -3 115 -8 214 -12 220
-10 15 -61 12 -75 -5 -10 -12 -12 -64 -6 -238 6 -194 11 -237 35 -342 16 -66
32 -149 36 -185 10 -89 26 -128 90 -227 31 -46 78 -129 105 -183 27 -54 75
-137 106 -185 31 -48 72 -126 90 -173 19 -47 58 -128 87 -181 30 -53 58 -107
62 -121 4 -14 22 -54 40 -90 18 -36 40 -81 49 -100 25 -56 236 -299 293 -338
32 -22 43 -42 23 -42 -6 0 -15 -11 -21 -24 l-11 -23 -71 24 c-39 13 -139 35
-222 48 -222 36 -284 61 -447 176 -54 39 -146 102 -205 141 -164 108 -213 148
-411 340 -220 211 -260 262 -302 383 -18 49 -50 127 -72 172 -39 81 -40 83
-40 200 0 120 -6 143 -39 143 -13 0 -21 11 -28 38 -18 64 -34 283 -28 372 9
129 73 296 136 356 47 44 37 94 -17 94 -57 0 -152 -159 -193 -321 -19 -75 -21
-102 -16 -254 6 -177 22 -282 58 -365 l21 -48 -27 -43 c-37 -60 -116 -140
-200 -205 -38 -30 -92 -72 -120 -94 -59 -47 -195 -108 -320 -145 -89 -26 -94
-27 -420 -28 -361 -2 -518 12 -631 53 -32 13 -122 44 -200 70 -80 28 -227 91
-345 148 -112 55 -238 114 -279 131 -209 84 -234 98 -297 163 -35 36 -77 106
-138 228 -7 14 -16 58 -19 98 l-6 74 62 -6 c35 -4 133 -10 218 -15 128 -7 168
-13 229 -35 41 -14 99 -29 130 -33 31 -3 74 -12 96 -20 52 -18 308 -44 410
-42 46 2 97 -3 120 -11 57 -19 303 -6 359 19 23 10 86 60 141 111 55 51 116
103 135 115 43 27 152 142 202 211 67 92 137 250 154 347 8 48 24 116 34 150
11 34 20 73 20 87 0 35 84 198 115 222 26 21 33 56 13 76 -19 19 56 157 122
223 45 46 82 69 193 123 212 102 280 113 424 74 69 -19 83 -26 83 -43 0 -29
28 -65 49 -65 21 0 37 17 42 44 3 16 25 26 109 48 89 24 246 53 300 57 8 1 20
-9 25 -21z m-2126 -598 c59 -16 435 -24 520 -11 40 6 76 10 78 7 2 -2 -5 -22
-16 -45 -12 -22 -21 -49 -21 -60 0 -12 -11 -58 -24 -105 -14 -46 -29 -115 -34
-154 -8 -53 -23 -95 -66 -178 -31 -60 -66 -122 -78 -137 l-23 -28 -55 20
c-130 50 -262 187 -364 380 -37 71 -48 105 -57 172 -11 81 -8 196 5 218 5 7
23 -3 53 -29 25 -22 62 -44 82 -50z"/>
<path d="M3621 2491 c-50 -50 -54 -334 -7 -531 68 -291 207 -563 387 -760 48
-52 61 -61 85 -58 24 2 29 8 32 33 2 24 -9 43 -58 100 -132 151 -241 341 -305
530 -72 211 -101 449 -72 592 12 63 12 76 0 93 -18 25 -38 25 -62 1z"/>
</g>
</svg>
