<?xml version="1.0" standalone="no"?>
<!DOCTYPE svg PUBLIC "-//W3C//DTD SVG 20010904//EN"
 "http://www.w3.org/TR/2001/REC-SVG-20010904/DTD/svg10.dtd">
<svg version="1.0" xmlns="http://www.w3.org/2000/svg"
 width="650.000000pt" height="623.000000pt" viewBox="0 0 650.000000 623.000000"
 preserveAspectRatio="xMidYMid meet">

<g transform="translate(0.000000,623.000000) scale(0.100000,-0.100000)"
fill="#000000" stroke="none">
<path d="M4616 5370 c-35 -11 -76 -48 -76 -70 0 -38 41 -51 72 -24 25 24 110
31 126 11 22 -27 -13 -92 -217 -399 -157 -238 -186 -316 -142 -386 28 -44 69
-67 165 -92 91 -24 126 -43 126 -66 0 -22 -32 -66 -118 -158 -135 -147 -175
-240 -170 -396 2 -75 6 -95 20 -104 14 -8 22 -7 35 6 12 13 18 43 23 120 10
147 34 195 175 348 111 121 134 175 100 240 -19 37 -48 52 -158 83 -48 13 -98
32 -112 41 -50 33 -28 95 113 304 129 191 223 348 238 399 28 92 -21 154 -121
152 -27 0 -63 -5 -79 -9z"/>
<path d="M2807 5312 c-10 -10 -17 -25 -17 -33 0 -30 21 -38 91 -32 119 10 129
-27 43 -163 -63 -99 -84 -155 -84 -223 0 -78 16 -114 75 -170 54 -51 54 -53
41 -80 -8 -15 -63 -79 -121 -141 -164 -175 -199 -237 -170 -305 26 -63 207
-181 242 -159 36 22 20 47 -62 101 -44 29 -88 62 -97 73 -30 37 -10 69 165
258 105 114 143 176 132 219 -3 15 -32 51 -63 79 -55 51 -56 53 -60 116 -4 69
0 77 87 218 52 84 62 139 36 194 -24 50 -59 66 -148 66 -59 0 -77 -4 -90 -18z"/>
<path d="M3720 5295 c-16 -20 -5 -62 19 -70 10 -3 31 -1 47 5 18 7 52 9 88 4
47 -5 66 -13 88 -34 15 -16 28 -34 28 -40 0 -19 -71 -77 -142 -116 -88 -48
-172 -136 -188 -195 -25 -90 0 -137 112 -216 48 -34 78 -62 78 -73 0 -29 -27
-84 -84 -172 -70 -110 -106 -201 -106 -273 0 -93 51 -168 89 -130 14 13 14 21
-1 77 -16 59 -16 63 5 126 11 36 43 99 69 139 69 106 98 168 105 221 6 59 -8
78 -105 147 -87 61 -99 81 -84 133 14 47 69 100 150 146 81 46 149 102 169
139 30 58 -14 144 -91 181 -47 22 -228 23 -246 1z"/>
<path d="M2062 5199 c-60 -24 -81 -53 -63 -88 15 -26 34 -27 69 -1 36 27 97
37 118 19 21 -18 32 -46 44 -125 14 -86 -1 -119 -110 -244 -102 -118 -140
-175 -140 -214 0 -24 17 -46 94 -120 86 -84 94 -95 106 -147 17 -74 2 -157
-51 -297 -57 -150 -54 -217 10 -210 23 3 26 8 27 46 1 23 20 90 42 150 49 131
68 242 53 313 -17 79 -45 122 -127 196 -91 83 -93 69 37 219 123 144 142 178
141 262 -1 75 -23 169 -48 208 -37 56 -110 68 -202 33z"/>
<path d="M5698 5139 c-20 -11 -24 -54 -8 -64 6 -4 52 -8 103 -10 51 -2 105 -8
121 -14 26 -11 27 -13 14 -34 -21 -31 -94 -69 -227 -118 -208 -77 -301 -166
-301 -287 0 -62 28 -105 95 -149 71 -47 75 -51 75 -82 0 -37 -11 -46 -175
-131 -243 -128 -299 -208 -220 -316 79 -110 77 -104 55 -142 -24 -40 -25 -65
-5 -82 36 -30 113 76 99 137 -4 15 -29 57 -55 92 -27 35 -49 70 -49 77 0 37
73 92 230 173 89 47 168 94 176 106 20 30 28 114 15 147 -6 17 -36 44 -80 72
-80 51 -83 55 -83 103 0 74 90 148 253 208 129 47 188 76 233 115 67 59 69
142 5 176 -53 27 -238 43 -271 23z"/>
<path d="M1177 4875 c-170 -61 -278 -153 -232 -199 23 -22 29 -21 72 20 60 57
209 124 275 124 25 0 28 -3 28 -34 0 -19 -14 -60 -32 -92 -117 -218 -127 -253
-85 -292 12 -12 58 -37 102 -57 208 -92 210 -98 98 -339 -46 -98 -57 -133 -60
-186 -3 -54 0 -71 19 -105 18 -31 30 -41 55 -43 43 -4 53 26 22 69 -32 45 -23
103 40 239 85 185 95 252 49 327 -19 32 -38 43 -195 113 -40 18 -73 37 -73 42
0 5 32 70 71 145 68 130 71 139 67 192 -9 101 -80 126 -221 76z"/>
<path d="M1923 3569 c-45 -4 -134 -21 -197 -38 -80 -22 -138 -31 -191 -31 -69
0 -78 -2 -100 -26 -14 -15 -25 -30 -25 -35 0 -4 -46 -44 -102 -90 -57 -45
-134 -112 -173 -149 -59 -57 -77 -68 -113 -73 -71 -9 -127 -78 -166 -206 -18
-62 -20 -105 -27 -671 -4 -333 -12 -720 -18 -860 -6 -140 -11 -339 -11 -442 0
-217 8 -254 66 -281 92 -44 413 -86 669 -88 88 0 201 -5 250 -10 50 -5 151
-12 225 -15 125 -6 189 -3 540 27 63 5 248 14 410 19 488 16 732 33 935 64 55
9 154 16 220 16 66 0 156 7 200 15 44 8 143 24 220 36 118 18 151 27 218 60
56 28 84 49 98 73 34 57 184 178 284 229 95 48 160 144 185 272 6 33 18 83 25
110 7 28 18 91 25 140 6 50 16 112 21 138 12 62 11 157 -1 249 -10 77 -18 155
-51 493 -11 116 -26 248 -34 295 -25 158 -38 318 -33 397 7 91 -3 181 -21 193
-8 4 -16 36 -20 71 -8 75 -23 107 -55 115 -37 9 -651 -3 -776 -16 -63 -6 -173
-13 -243 -15 -71 -2 -165 -9 -209 -15 -61 -9 -102 -8 -176 2 -116 16 -243 13
-369 -7 -106 -17 -218 -19 -283 -4 -25 6 -135 14 -245 18 -130 5 -219 13 -255
24 -42 12 -119 16 -335 19 -154 2 -317 1 -362 -3z m692 -106 c30 -9 131 -18
255 -23 113 -5 225 -14 250 -19 67 -15 173 -13 280 5 56 10 140 16 205 15 320
-6 406 -5 585 7 107 7 240 16 295 22 55 5 225 9 377 10 l278 0 4 -22 c14 -68
14 -126 0 -146 -7 -11 -42 -40 -76 -65 -35 -25 -92 -75 -127 -111 -62 -62 -65
-64 -90 -52 -14 8 -56 21 -92 30 -60 15 -97 15 -390 4 -394 -15 -585 -12 -648
9 -49 17 -28 16 -801 31 -228 4 -374 9 -325 10 50 1 146 9 216 16 216 25 717
39 1044 31 399 -10 460 -10 525 -1 62 10 81 21 73 42 -6 16 -68 18 -128 4 -26
-7 -96 -6 -205 1 -274 19 -1082 5 -1275 -21 -65 -9 -219 -17 -765 -40 -165 -6
-244 -14 -340 -34 -69 -14 -149 -26 -177 -26 -44 0 -53 -3 -53 -18 0 -26 -136
-52 -270 -52 l-104 0 59 61 c33 33 103 95 155 137 52 41 109 90 125 108 28 30
36 33 105 37 41 2 116 16 165 31 136 39 204 44 525 39 218 -4 308 -9 345 -20z
m2575 -463 c6 -63 20 -173 30 -245 10 -71 24 -179 30 -240 6 -60 22 -221 35
-357 27 -270 30 -333 16 -405 -5 -26 -15 -91 -22 -143 -7 -52 -16 -106 -21
-118 -4 -13 -15 -58 -24 -99 -15 -74 -43 -141 -73 -177 -9 -10 -38 -29 -66
-43 -27 -14 -79 -45 -114 -70 l-63 -44 6 38 c9 58 28 421 29 573 1 74 1 410
-1 745 l-3 610 60 57 c33 31 84 74 113 96 l53 39 2 -51 c1 -28 7 -103 13 -166z
m-1820 64 c211 -4 269 -9 335 -26 74 -19 96 -20 315 -13 423 14 710 12 755 -5
27 -10 41 -22 43 -36 2 -12 14 -26 28 -33 l25 -11 -5 -748 c-7 -1134 -18
-1237 -141 -1299 -16 -8 -39 -23 -50 -33 -22 -19 -74 -32 -200 -50 -44 -6
-118 -17 -165 -25 -47 -8 -157 -17 -245 -20 -88 -3 -182 -10 -210 -15 -122
-25 -405 -45 -870 -60 -159 -5 -348 -14 -420 -20 -492 -39 -483 -39 -630 -24
-77 8 -232 17 -345 19 -207 5 -321 14 -505 41 -124 17 -169 30 -186 51 -18 21
-18 252 0 648 7 165 17 559 20 875 7 631 9 644 61 634 22 -5 34 1 63 30 l36
36 138 0 c83 0 162 6 198 14 33 8 130 24 215 35 85 12 166 24 180 27 29 7
1154 23 1245 18 33 -2 175 -7 315 -10z"/>
<path d="M4240 3409 c-47 -5 -132 -14 -190 -20 -115 -14 -773 -26 -1813 -35
l-667 -5 -16 -24 c-21 -32 -15 -70 11 -70 13 0 21 8 23 21 l3 22 717 7 c394 4
895 8 1112 9 288 2 446 7 585 20 105 10 246 23 315 30 118 10 125 12 128 34 3
21 0 22 -60 21 -35 -1 -101 -5 -148 -10z"/>
</g>
</svg>
