<?xml version="1.0" standalone="no"?>
<!DOCTYPE svg PUBLIC "-//W3C//DTD SVG 20010904//EN"
 "http://www.w3.org/TR/2001/REC-SVG-20010904/DTD/svg10.dtd">
<svg version="1.0" xmlns="http://www.w3.org/2000/svg"
 width="1366.000000pt" height="950.000000pt" viewBox="0 0 1366.000000 950.000000"
 preserveAspectRatio="xMidYMid meet">
<metadata>
Created by potrace 1.16, written by Peter Selinger 2001-2019
</metadata>
<g transform="translate(0.000000,950.000000) scale(0.100000,-0.100000)"
fill="#000000" stroke="none">
<path d="M8395 7974 c-16 -1 -217 -8 -445 -14 -228 -6 -530 -18 -670 -26 -140
-7 -361 -19 -490 -24 -129 -6 -300 -15 -380 -21 -231 -17 -682 -27 -1280 -28
-474 -1 -558 -4 -577 -16 -30 -20 -31 -67 -2 -96 11 -11 19 -22 17 -24 -10
-10 -363 -160 -478 -203 -222 -83 -522 -178 -745 -238 -261 -69 -461 -136
-675 -226 -91 -39 -246 -101 -345 -139 -99 -38 -238 -94 -310 -123 -71 -30
-188 -74 -260 -99 -145 -51 -418 -177 -452 -210 -56 -51 6 -104 72 -61 l23 15
-23 -69 c-43 -129 -102 -460 -155 -882 -12 -91 -34 -255 -50 -365 -16 -110
-36 -276 -45 -370 -22 -234 -31 -324 -65 -595 -60 -487 -80 -793 -80 -1237 0
-363 -12 -610 -42 -868 -17 -150 -21 -260 -25 -657 -5 -490 4 -732 31 -820 13
-43 12 -47 -7 -67 -18 -17 -19 -24 -9 -46 13 -29 35 -31 89 -11 67 25 92 28
116 11 27 -19 60 -19 95 -1 53 27 750 28 1007 0 146 -15 272 -18 890 -20 919
-2 1232 -13 1493 -51 100 -14 215 -17 812 -18 554 -1 712 -4 780 -16 68 -11
200 -14 675 -12 677 3 977 14 1330 50 319 32 496 43 516 32 9 -5 20 -21 24
-36 9 -38 23 -53 51 -53 28 0 48 32 41 66 -5 31 15 32 28 2 6 -13 17 -24 26
-26 36 -7 627 301 1204 627 217 123 496 265 700 356 83 37 186 85 230 107 118
59 692 366 750 401 28 17 82 48 120 70 39 22 89 55 112 74 41 33 42 33 53 13
15 -28 65 -27 81 2 12 22 9 136 -11 358 -17 200 -31 807 -27 1200 3 313 8 434
24 585 12 105 26 316 33 470 11 265 43 666 76 965 8 74 19 226 25 337 5 111
23 327 39 480 17 153 35 377 40 498 13 293 17 341 46 537 13 92 24 203 24 248
l0 80 34 14 c42 17 55 50 30 77 -24 27 -41 24 -130 -18 -73 -35 -86 -38 -164
-37 -47 0 -159 8 -250 18 -248 26 -427 35 -850 46 -212 5 -443 15 -515 24
-184 21 -468 44 -695 56 -167 8 -1398 12 -1485 4z m1675 -108 c124 -9 288 -23
365 -31 293 -31 372 -35 775 -45 371 -8 790 -35 790 -50 0 -3 -26 -18 -57 -35
-32 -16 -148 -81 -258 -144 -110 -63 -260 -141 -334 -173 -178 -77 -295 -140
-476 -258 -83 -53 -213 -131 -290 -172 -77 -42 -210 -115 -295 -162 -160 -89
-310 -165 -655 -329 -191 -90 -475 -212 -478 -205 -33 64 -30 62 -105 75 -39
6 -77 15 -84 20 -7 4 -128 11 -268 15 -140 3 -293 12 -340 19 -56 8 -245 13
-555 15 -258 1 -663 8 -900 16 -236 7 -731 13 -1100 13 -789 0 -1020 11 -1060
51 -30 30 -54 30 -89 3 l-27 -21 -687 7 c-378 3 -790 10 -917 15 -126 5 -390
14 -585 20 -195 6 -463 14 -595 19 l-240 7 46 21 c26 12 99 40 164 62 65 23
166 61 224 86 58 24 176 71 261 103 85 33 259 102 385 154 270 112 426 164
735 247 263 71 312 86 565 176 210 74 220 78 520 207 227 99 258 117 249 155
l-6 23 598 0 c330 0 676 5 769 10 94 5 305 16 470 25 165 8 419 22 565 30 888
51 2396 66 2920 31z m2260 -161 c0 -19 -13 -130 -29 -247 -18 -133 -33 -307
-41 -463 -6 -137 -25 -378 -41 -535 -17 -157 -34 -376 -39 -488 -6 -111 -16
-260 -24 -330 -30 -259 -65 -684 -75 -917 -14 -309 -28 -508 -47 -664 -13
-102 -16 -245 -15 -761 1 -349 6 -673 11 -720 5 -47 14 -159 21 -249 12 -154
11 -165 -5 -175 -10 -6 -45 -33 -78 -59 -33 -26 -79 -57 -102 -69 -22 -11 -63
-35 -91 -53 -27 -18 -97 -57 -155 -87 -58 -31 -222 -118 -365 -195 -143 -76
-343 -176 -445 -222 -256 -116 -516 -248 -775 -394 -399 -225 -748 -413 -920
-497 -154 -74 -173 -81 -200 -71 -16 6 -49 13 -72 17 -27 4 -44 13 -47 23 -5
16 -22 188 -30 296 -2 33 -12 117 -20 186 -18 142 -27 828 -13 961 8 71 11 79
35 90 35 17 40 51 11 71 -20 14 -21 21 -15 74 4 32 14 112 22 178 8 66 19 216
24 334 16 344 46 676 90 986 11 77 29 225 40 329 11 104 35 279 54 390 48 280
85 560 96 739 6 84 13 170 16 192 9 66 63 342 89 461 18 82 25 141 25 222 0
118 6 133 53 148 48 14 287 119 382 167 55 27 176 85 269 128 92 43 227 112
300 152 72 41 221 123 331 182 110 60 269 153 353 207 181 117 305 184 502
271 80 35 219 108 310 161 227 133 367 200 475 226 50 12 97 26 105 31 26 14
30 10 30 -26z m-10030 -1284 c201 -5 500 -14 665 -20 165 -6 605 -15 977 -19
373 -4 680 -10 682 -13 5 -5 28 -1142 30 -1494 l1 -180 -55 -8 c-291 -43 -703
-135 -915 -204 -79 -25 -270 -106 -512 -216 -97 -45 -129 -55 -156 -50 -28 4
-37 1 -55 -22 -12 -15 -22 -32 -22 -37 0 -6 -12 -24 -26 -41 -21 -25 -25 -37
-19 -66 3 -20 5 -63 3 -96 -2 -33 -3 -256 -2 -495 0 -397 2 -448 22 -577 43
-278 88 -411 210 -628 l51 -90 -32 -33 c-100 -105 -328 -289 -582 -470 -163
-117 -353 -263 -650 -501 -38 -31 -151 -135 -251 -232 -177 -173 -263 -242
-396 -320 -65 -38 -71 -40 -145 -37 l-78 3 -14 40 c-37 110 -39 1059 -2 1395
32 295 41 482 41 835 0 460 23 828 80 1280 16 127 43 365 59 530 17 166 42
377 55 470 14 94 37 260 51 370 29 229 34 263 75 515 17 102 38 212 46 245 17
66 60 165 78 178 6 5 103 6 216 2 113 -3 369 -9 570 -14z m2680 -67 c180 -12
373 -15 825 -13 375 2 736 -2 990 -12 220 -8 632 -14 915 -15 368 0 542 -4
610 -13 52 -8 212 -17 355 -20 181 -5 269 -11 290 -20 17 -7 53 -16 80 -20
l50 -7 -41 -22 c-49 -25 -60 -47 -39 -78 18 -28 24 -29 72 -9 19 8 38 15 41
15 14 0 -10 -229 -37 -350 -53 -238 -79 -401 -91 -565 -13 -199 -50 -480 -100
-780 -21 -126 -46 -304 -55 -395 -9 -91 -23 -210 -31 -265 -43 -286 -94 -836
-94 -1005 0 -90 -22 -341 -43 -502 l-13 -93 -243 -3 c-134 -1 -258 2 -277 7
-27 7 -38 6 -57 -9 -14 -12 -32 -16 -50 -13 -15 3 -35 2 -44 -2 -10 -3 -184
-8 -388 -9 -326 -2 -395 -6 -580 -28 -115 -15 -211 -25 -213 -23 -2 1 10 34
27 71 121 277 231 554 277 692 115 350 125 414 131 889 4 301 8 375 19 384 18
15 18 53 -1 69 -7 6 -17 31 -21 55 -8 55 -24 69 -67 61 -28 -5 -45 2 -127 55
-52 34 -118 83 -146 109 -57 54 -68 58 -269 95 -77 14 -174 35 -215 47 -62 16
-121 22 -330 28 -176 6 -277 13 -325 25 -145 34 -184 36 -595 33 l-415 -2 -2
149 c-2 83 -7 213 -13 290 -7 102 -16 1141 -11 1208 1 9 -25 10 251 -9z m739
-1755 c120 -25 299 -39 426 -32 73 4 121 0 175 -12 66 -14 470 -95 477 -95 1
0 31 -26 66 -57 36 -32 108 -85 161 -117 92 -57 133 -96 121 -116 -3 -5 -22
-12 -43 -16 -51 -10 -105 -34 -184 -82 -153 -94 -271 -140 -500 -196 -168 -41
-343 -70 -520 -86 -70 -6 -227 -26 -350 -46 -161 -25 -282 -37 -433 -44 -115
-6 -291 -15 -390 -22 -99 -6 -250 -11 -335 -11 -143 1 -170 4 -340 42 -102 22
-247 49 -322 61 -76 11 -166 30 -200 41 -92 29 -358 165 -421 215 l-55 44 32
34 c53 58 535 267 741 323 72 19 171 45 220 58 50 14 200 44 335 69 212 38
302 51 505 70 22 2 198 2 390 -1 298 -4 364 -7 444 -24z m1429 -896 c-5 -398
-9 -432 -68 -638 -52 -177 -105 -325 -189 -525 -46 -107 -105 -249 -133 -315
-28 -66 -55 -126 -61 -132 -6 -8 -35 -13 -78 -13 -38 0 -138 -13 -222 -30
-215 -42 -302 -50 -552 -50 -121 -1 -332 -5 -470 -10 -146 -6 -611 -7 -1121
-3 l-870 6 -31 56 c-16 31 -74 133 -127 226 -110 194 -148 286 -182 435 -48
218 -58 345 -58 775 -1 379 5 495 24 495 4 0 28 -17 54 -38 57 -47 347 -193
441 -221 38 -12 117 -29 175 -37 58 -9 202 -36 320 -61 266 -56 382 -62 695
-40 121 9 303 19 405 22 107 3 240 13 315 25 260 40 472 68 560 74 122 9 292
39 460 80 242 60 360 106 513 198 75 45 167 87 195 88 5 0 7 -165 5 -367z
m1497 -1645 c-4 -18 -9 -211 -12 -428 -4 -321 -1 -422 12 -540 14 -129 54
-533 55 -552 0 -5 -19 -8 -43 -8 -24 0 -176 -14 -338 -30 -435 -45 -568 -51
-1310 -57 -503 -4 -697 -2 -760 7 -56 8 -332 15 -829 20 -600 5 -766 10 -855
23 -220 32 -504 41 -1315 42 -746 1 -810 3 -1030 24 -211 21 -266 22 -535 16
l-300 -7 75 53 c41 29 152 128 245 219 94 91 197 188 230 216 137 115 541 428
690 533 187 133 406 307 522 415 l82 77 25 -43 c13 -24 32 -61 41 -83 32 -74
26 -70 101 -65 88 6 865 6 1309 0 373 -5 1322 14 1479 31 54 6 151 21 215 35
64 13 145 27 180 30 l65 7 -23 -37 c-25 -40 -23 -79 5 -90 30 -12 52 4 94 69
49 75 15 65 340 102 227 26 461 33 880 27 259 -4 531 3 542 14 7 7 44 12 91
12 l79 0 -7 -32z"/>
<path d="M11750 6721 c-85 -38 -370 -170 -632 -294 -262 -124 -539 -253 -615
-286 -340 -149 -685 -295 -757 -321 -97 -35 -114 -50 -98 -85 21 -46 72 -34
327 78 83 36 222 95 310 132 240 101 403 175 826 376 470 223 726 339 745 339
8 0 36 11 63 25 44 22 61 40 61 65 0 17 -32 40 -53 39 -12 0 -92 -31 -177 -68z"/>
<path d="M11640 6001 c-19 -15 -53 -38 -76 -49 -79 -40 -401 -172 -589 -240
-171 -63 -312 -118 -845 -328 -214 -84 -448 -201 -473 -235 -40 -55 22 -92 81
-49 45 33 357 174 532 240 91 34 253 97 360 140 107 43 278 108 380 145 354
129 634 253 688 304 33 30 41 68 20 89 -19 19 -41 14 -78 -17z"/>
<path d="M11590 5149 c-14 -6 -135 -40 -270 -75 -135 -36 -306 -84 -380 -106
-201 -61 -447 -128 -810 -222 -179 -47 -349 -92 -379 -101 -94 -29 -125 -61
-101 -106 14 -25 29 -23 135 15 39 13 187 54 330 91 266 67 453 118 840 230
121 35 324 92 450 125 127 34 240 68 253 76 26 17 29 46 6 68 -18 18 -38 19
-74 5z"/>
<path d="M11529 4644 c-66 -49 -147 -83 -320 -132 -371 -106 -1015 -358 -1349
-528 -149 -75 -356 -204 -422 -263 -39 -34 -47 -58 -26 -79 22 -22 53 -12 133
44 97 67 227 148 315 196 297 159 1095 468 1440 558 150 39 299 120 315 170 8
25 -11 60 -33 60 -10 0 -34 -12 -53 -26z"/>
<path d="M11315 3801 c-176 -71 -399 -161 -495 -201 -789 -325 -1066 -429
-1365 -513 -243 -69 -281 -89 -255 -136 15 -29 43 -27 173 13 62 19 182 55
267 81 198 59 359 120 925 351 253 103 575 234 715 290 140 57 267 104 281
104 41 0 143 61 147 88 5 31 -15 52 -47 52 -14 0 -170 -58 -346 -129z"/>
<path d="M11325 3065 c-77 -29 -214 -83 -305 -118 -397 -155 -1004 -349 -1514
-483 -206 -55 -327 -94 -353 -115 -20 -17 -16 -57 7 -69 16 -9 47 -2 148 29
70 22 221 65 336 96 531 142 1070 319 1568 516 124 49 232 87 240 84 19 -7 82
36 86 59 5 23 -26 56 -52 56 -12 0 -84 -25 -161 -55z"/>
<path d="M11090 2210 c-96 -26 -260 -78 -365 -115 -104 -37 -453 -157 -775
-266 -587 -200 -686 -238 -727 -278 -29 -27 -30 -67 -3 -81 17 -9 32 -4 84 25
38 21 259 102 552 201 269 91 613 210 764 264 151 54 343 117 425 140 266 73
290 82 293 108 5 31 -15 52 -47 51 -14 0 -105 -22 -201 -49z"/>
<path d="M6000 3230 c-19 -19 -19 -21 -2 -72 12 -38 16 -86 16 -168 -1 -100
-5 -129 -32 -217 -45 -145 -41 -175 22 -159 26 6 32 19 73 151 25 80 28 105
28 230 0 150 -17 224 -55 245 -25 13 -27 13 -50 -10z"/>
<path d="M3580 3195 c-9 -11 -11 -60 -7 -197 4 -158 8 -196 31 -274 43 -151
107 -277 147 -289 26 -9 59 12 59 37 0 12 -14 42 -30 68 -76 119 -120 306
-120 514 0 89 -4 136 -12 144 -17 17 -53 15 -68 -3z"/>
<path d="M5192 3114 c-21 -14 -22 -21 -22 -166 0 -89 -8 -221 -21 -323 -22
-189 -19 -215 25 -215 13 0 29 6 35 14 39 47 70 655 35 690 -19 20 -24 20 -52
0z"/>
<path d="M4377 2932 c-15 -16 -17 -45 -17 -195 0 -164 2 -179 20 -197 24 -24
34 -25 54 -4 13 13 16 45 16 199 0 154 -3 186 -16 199 -20 21 -37 20 -57 -2z"/>
</g>
</svg>
