<?xml version="1.0" standalone="no"?>
<!DOCTYPE svg PUBLIC "-//W3C//DTD SVG 20010904//EN"
 "http://www.w3.org/TR/2001/REC-SVG-20010904/DTD/svg10.dtd">
<svg version="1.0" xmlns="http://www.w3.org/2000/svg"
 width="667.000000pt" height="280.000000pt" viewBox="0 0 667.000000 280.000000"
 preserveAspectRatio="xMidYMid meet">
<metadata>
Created by potrace 1.16, written by Peter Selinger 2001-2019
</metadata>
<g transform="translate(0.000000,280.000000) scale(0.100000,-0.100000)"
fill="#000000" stroke="none">
<path d="M1080 1985 c-156 -43 -338 -187 -314 -250 4 -8 -3 -38 -15 -65 -27
-62 -28 -159 -2 -215 27 -60 106 -133 185 -171 220 -106 386 -56 564 169 73
92 104 160 110 239 6 92 -11 148 -64 207 -68 75 -121 94 -279 98 -93 2 -146
-1 -185 -12z m351 -105 c61 -32 89 -82 89 -161 0 -52 -6 -77 -26 -115 -54
-101 -171 -224 -249 -260 -112 -53 -284 -9 -378 95 -49 55 -62 99 -46 164 10
43 22 62 72 110 73 71 185 129 261 135 44 3 69 -2 134 -28 95 -38 136 -37 140
1 4 31 -11 44 -75 70 l-48 20 43 -6 c24 -3 61 -14 83 -25z"/>
<path d="M2790 1791 c-19 -11 -68 -37 -108 -57 -81 -41 -182 -139 -213 -208
-40 -88 -19 -183 58 -266 62 -67 140 -109 263 -140 216 -56 356 -9 423 140 15
34 22 73 25 156 4 103 2 116 -20 165 -34 75 -117 162 -185 195 -76 38 -192 45
-243 15z m145 -115 c31 -8 59 -10 73 -5 19 7 29 1 63 -33 65 -67 83 -111 82
-198 -1 -208 -96 -287 -297 -245 -264 55 -380 190 -283 331 43 62 116 118 187
143 66 23 109 25 175 7z"/>
<path d="M4668 1739 c-10 -5 -18 -20 -18 -33 0 -18 -10 -27 -45 -41 -112 -42
-265 -248 -265 -355 0 -46 37 -115 87 -161 58 -53 212 -126 307 -145 214 -44
351 94 364 367 9 197 -60 311 -216 359 -69 21 -185 26 -214 9z m284 -146 c88
-84 74 -359 -24 -460 -63 -65 -154 -67 -290 -7 -132 58 -208 126 -208 185 1
64 104 213 176 255 64 37 131 39 197 4 37 -20 51 -23 64 -14 28 17 28 55 1 76
-23 19 -23 19 17 3 22 -9 52 -28 67 -42z"/>
</g>
</svg>
