<?xml version="1.0" standalone="no"?>
<!DOCTYPE svg PUBLIC "-//W3C//DTD SVG 20010904//EN"
 "http://www.w3.org/TR/2001/REC-SVG-20010904/DTD/svg10.dtd">
<svg version="1.0" xmlns="http://www.w3.org/2000/svg"
 width="983.000000pt" height="934.000000pt" viewBox="0 0 983.000000 934.000000"
 preserveAspectRatio="xMidYMid meet">

<g transform="translate(0.000000,934.000000) scale(0.100000,-0.100000)"
fill="#000000" stroke="none">
<path d="M7300 8434 c-25 -2 -126 -13 -225 -24 -99 -10 -216 -21 -260 -24
-316 -22 -548 -40 -725 -57 -128 -13 -350 -24 -590 -30 -514 -12 -737 -24
-970 -54 -110 -14 -304 -29 -445 -35 -683 -28 -1128 -53 -1380 -75 -93 -8
-258 -20 -365 -25 -206 -11 -265 -16 -615 -55 -121 -14 -269 -25 -330 -25
-130 -1 -184 -11 -208 -41 -16 -20 -17 -47 -15 -323 3 -306 1 -331 -48 -776
-8 -74 -21 -207 -29 -295 -8 -88 -22 -218 -30 -290 -8 -71 -20 -184 -25 -250
-6 -66 -19 -187 -30 -270 -11 -82 -29 -256 -40 -385 -12 -129 -30 -287 -41
-350 -11 -63 -24 -189 -30 -280 -5 -91 -18 -255 -29 -365 -12 -125 -21 -326
-25 -537 -6 -330 -5 -338 15 -358 25 -25 31 -25 64 1 26 20 34 21 284 16 141
-2 334 -10 427 -17 234 -17 1190 10 1425 40 85 11 238 23 339 27 l184 6 -6
-69 c-4 -38 -11 -114 -17 -169 -16 -165 -13 -346 6 -373 21 -30 55 -25 72 11
10 21 38 415 42 595 0 9 39 12 161 12 l161 0 -6 -27 c-13 -59 -25 -234 -26
-385 0 -129 3 -159 16 -172 19 -19 48 -21 61 -3 6 6 13 93 16 192 6 167 24
384 33 394 2 3 91 11 197 19 133 10 340 14 672 13 366 -1 530 3 690 15 187 15
227 15 365 3 219 -20 451 -17 655 9 155 19 207 21 600 17 237 -2 449 -7 471
-11 36 -5 43 -3 58 17 20 29 21 63 1 79 -12 10 -15 40 -16 149 0 75 -4 168 -9
206 -6 39 -14 179 -20 313 -5 134 -12 248 -16 253 -3 5 -10 118 -15 252 -5
133 -16 287 -24 342 -21 131 -42 380 -55 630 -5 111 -19 271 -30 355 -11 85
-24 227 -30 315 -6 88 -13 167 -16 177 -3 9 -9 153 -13 320 -9 310 -3 504 24
778 8 80 18 240 21 356 6 175 5 212 -7 220 -8 5 -41 9 -74 10 -33 0 -87 3
-120 6 -33 3 -80 4 -105 2z m170 -100 c25 -3 48 -9 52 -13 9 -8 -6 -253 -28
-476 -21 -202 -29 -755 -15 -975 17 -269 39 -523 56 -650 9 -63 20 -203 25
-310 11 -236 34 -503 56 -642 8 -57 20 -206 25 -333 5 -126 13 -266 19 -310 5
-44 9 -143 10 -220 0 -77 7 -187 15 -245 8 -58 15 -171 15 -252 l0 -147 -47
-7 c-27 -4 -217 -4 -424 -1 -349 6 -388 5 -540 -15 -195 -25 -453 -29 -669
-10 -111 9 -178 10 -285 2 -242 -19 -527 -27 -707 -19 -160 8 -711 -6 -730
-17 -4 -3 -196 -9 -425 -15 -464 -10 -684 -22 -848 -44 -115 -16 -430 -29
-965 -41 -258 -5 -356 -3 -540 11 -157 12 -280 16 -407 12 l-182 -5 5 312 c3
171 12 369 20 439 8 71 19 212 24 314 6 102 21 256 34 342 14 86 34 262 46
391 11 129 29 303 40 385 10 83 22 184 25 225 3 41 15 152 25 245 10 94 21
208 25 255 3 47 15 159 26 250 21 181 45 430 59 613 5 64 6 198 3 297 -5 158
-4 185 11 218 l18 39 151 6 c84 3 226 15 317 26 252 31 358 40 570 51 107 6
267 17 355 25 88 8 288 21 445 30 157 8 301 17 321 20 19 2 186 9 370 15 375
11 538 23 749 51 199 27 404 38 895 49 249 5 477 15 560 25 132 14 346 31 705
55 85 6 234 19 330 30 271 30 294 31 410 14z"/>
<path d="M7130 7926 c-11 -10 -60 -16 -185 -21 -93 -4 -172 -8 -176 -11 -6 -4
-49 -8 -334 -34 -66 -6 -172 -24 -236 -40 -145 -37 -160 -38 -854 -50 -327 -6
-632 -17 -715 -25 -80 -8 -289 -16 -465 -19 -176 -4 -412 -13 -525 -21 -113
-8 -275 -19 -360 -25 -497 -35 -517 -35 -688 -4 -72 13 -135 14 -454 5 -262
-7 -385 -7 -423 1 -49 9 -56 8 -84 -11 l-31 -22 0 -178 c0 -172 -14 -326 -45
-481 -8 -41 -19 -167 -25 -280 -6 -113 -17 -284 -25 -380 -8 -96 -19 -272 -25
-390 -11 -212 -16 -245 -91 -660 -19 -102 -34 -226 -39 -325 -5 -88 -13 -223
-19 -300 -6 -77 -15 -212 -21 -300 -6 -88 -15 -218 -20 -289 -10 -144 -6 -161
42 -154 21 4 28 0 28 -13 0 -22 25 -42 53 -41 12 0 51 9 86 21 45 15 91 21
150 21 47 1 120 5 161 10 41 6 197 14 345 20 223 7 293 14 400 35 284 56 561
75 1095 73 654 -1 750 0 1975 26 649 14 1317 28 1485 31 277 6 307 8 324 24
23 24 13 59 -21 72 -14 5 -53 6 -87 3 l-62 -6 -23 76 c-59 198 -63 234 -72
676 -5 228 -14 480 -21 560 -16 179 -20 884 -6 1040 22 256 24 306 16 575 -8
280 6 574 32 680 13 55 12 119 -2 133 -16 16 -40 15 -58 -2z m-34 -143 c-18
-109 -27 -339 -25 -688 1 -262 -2 -415 -10 -465 -7 -44 -14 -247 -17 -495 -4
-340 -2 -447 10 -560 10 -84 20 -321 26 -595 10 -477 14 -520 64 -696 14 -49
23 -91 20 -93 -3 -3 -474 -15 -1047 -27 -573 -12 -1267 -27 -1542 -33 -293 -7
-537 -8 -590 -3 -49 4 -277 5 -505 0 -448 -8 -674 -26 -925 -75 -105 -20 -180
-26 -390 -33 -143 -5 -294 -14 -335 -19 -41 -6 -117 -11 -168 -11 -81 0 -151
-12 -273 -46 -15 -4 -16 7 -12 93 2 54 8 135 14 180 5 45 14 176 19 293 6 116
12 221 15 233 3 12 10 103 15 202 7 129 20 234 45 370 64 345 73 418 85 650 6
127 16 268 21 315 5 47 14 191 20 320 7 151 19 288 34 385 38 238 46 319 44
464 l-1 136 408 8 c351 7 421 6 495 -7 112 -21 356 -21 604 -1 456 36 650 46
955 51 179 3 388 12 465 20 84 9 347 18 655 24 763 14 785 15 931 51 68 17
169 34 224 39 160 14 315 30 380 39 33 5 113 9 179 10 l119 1 -7 -37z"/>
<path d="M5568 7020 c-28 -17 -91 -126 -231 -405 -189 -376 -309 -584 -499
-867 -207 -307 -338 -537 -338 -593 0 -9 -7 -26 -15 -39 -14 -21 -14 -27 4
-70 24 -54 42 -64 76 -42 13 9 36 16 50 16 15 0 36 11 49 25 20 21 32 25 85
25 106 0 324 74 616 210 121 56 302 127 346 135 l36 7 8 -297 c6 -238 10 -299
22 -310 25 -25 31 -22 88 51 l24 31 -6 275 c-5 246 -4 278 10 299 23 31 21 72
-2 93 -18 16 -20 36 -23 245 -3 244 -7 261 -54 261 -30 0 -44 -27 -44 -84 0
-39 -3 -45 -22 -48 -22 -3 -23 -7 -23 -108 0 -58 4 -142 8 -186 l8 -81 -29 -6
c-46 -9 -214 -84 -320 -143 -180 -100 -267 -133 -383 -145 -57 -5 -139 -17
-184 -24 -44 -8 -83 -15 -88 -15 -4 0 21 46 56 103 35 56 90 149 122 207 32
58 104 184 160 280 175 300 585 1103 585 1147 0 55 -44 81 -92 53z"/>
<path d="M3993 6891 c-62 -18 -113 -45 -113 -60 0 -4 -43 -52 -95 -106 -88
-90 -101 -108 -163 -234 -106 -213 -166 -387 -204 -591 -31 -164 -33 -189 -32
-385 0 -227 12 -298 68 -421 76 -165 243 -245 481 -231 164 10 194 24 307 134
60 60 108 116 127 153 49 92 79 224 96 420 9 96 22 234 30 305 17 151 7 408
-20 510 -22 84 -74 244 -87 269 -21 40 -91 117 -119 131 -17 9 -36 33 -48 60
-13 29 -29 49 -46 55 -39 15 -112 11 -182 -9z m144 -77 c-3 -3 -12 -4 -19 -1
-8 3 -5 6 6 6 11 1 17 -2 13 -5z m90 -173 c29 -41 58 -93 64 -115 6 -23 20
-63 31 -91 12 -27 34 -99 51 -160 38 -143 45 -270 24 -447 -9 -73 -21 -195
-28 -272 -12 -151 -25 -213 -65 -308 -51 -121 -126 -202 -240 -259 -57 -28
-68 -30 -175 -30 -160 0 -191 11 -256 91 -84 105 -120 174 -144 277 -19 82
-21 113 -16 236 3 80 12 166 21 197 9 30 23 93 31 140 37 196 123 435 201 555
47 71 182 207 229 230 43 21 116 33 180 31 37 -1 42 -5 92 -75z"/>
<path d="M2916 6808 c-44 -45 -98 -139 -246 -433 -209 -414 -409 -749 -556
-930 -31 -38 -63 -84 -70 -102 -19 -45 -18 -162 2 -191 24 -35 108 -29 304 19
91 22 221 51 290 64 69 13 176 36 239 50 62 14 115 24 118 22 2 -3 -14 -76
-36 -163 -22 -88 -42 -196 -45 -242 -5 -79 -4 -85 19 -108 27 -27 57 -31 74
-10 6 7 23 78 36 157 23 131 50 254 75 349 7 26 18 38 40 47 32 12 41 48 18
71 -14 14 1 106 38 222 13 43 29 116 35 161 9 75 8 85 -7 96 -53 39 -72 6
-143 -243 -34 -120 -66 -223 -70 -227 -9 -9 -288 -74 -416 -97 -38 -7 -151
-32 -250 -56 -99 -24 -191 -44 -204 -44 -22 0 -23 1 -8 18 8 9 67 91 131 182
140 202 289 456 456 780 146 283 216 406 264 464 61 76 82 136 54 164 -7 7
-34 12 -61 12 -42 0 -54 -5 -81 -32z"/>
<path d="M4355 2919 c-38 -4 -221 -12 -405 -18 -282 -8 -359 -13 -490 -35
-182 -30 -346 -46 -485 -46 -119 0 -250 -18 -440 -59 -226 -50 -360 -69 -545
-81 -229 -14 -388 -32 -705 -80 -143 -21 -296 -42 -340 -46 -95 -8 -141 -24
-150 -54 -11 -36 12 -53 65 -46 25 4 88 11 140 17 52 6 163 21 245 34 256 41
532 73 724 85 197 12 362 37 636 95 148 31 204 37 430 50 176 10 310 23 415
41 133 22 202 27 490 35 184 5 364 13 400 18 75 9 885 -4 1135 -18 94 -6 253
-13 355 -16 122 -4 226 -14 305 -28 110 -20 150 -22 485 -20 201 1 446 7 545
13 348 23 360 23 374 6 12 -14 11 -16 -7 -16 -12 0 -26 -9 -32 -20 -15 -27 2
-55 39 -68 44 -15 87 -83 204 -312 166 -328 238 -543 263 -789 18 -180 59
-349 108 -457 30 -63 32 -74 18 -74 -27 0 -62 -29 -62 -50 0 -10 9 -25 19 -33
19 -12 19 -14 3 -38 -51 -74 -111 -108 -189 -109 -18 0 -63 -4 -100 -10 -38
-5 -122 -14 -188 -20 -66 -6 -147 -15 -180 -21 -139 -23 -338 -39 -610 -49
-159 -5 -334 -14 -388 -20 -141 -14 -271 -19 -1062 -37 -390 -9 -1056 -17
-1480 -18 -423 -1 -810 -5 -860 -9 -49 -4 -232 -22 -405 -39 l-315 -31 -615 1
c-799 1 -1195 14 -1304 42 -44 12 -81 22 -82 24 -3 2 10 124 27 250 6 45 14
114 19 152 16 126 59 301 135 550 24 77 59 217 79 310 47 218 81 345 104 392
11 21 22 55 25 75 3 20 20 66 38 102 27 54 30 67 19 80 -21 27 -57 19 -84 -17
-15 -19 -26 -37 -26 -41 0 -3 -22 -55 -49 -114 -156 -342 -318 -967 -341
-1317 -14 -214 -29 -387 -35 -404 -3 -7 -1 -30 5 -51 12 -43 14 -44 160 -81
113 -28 552 -41 1345 -42 557 0 590 1 830 26 458 48 491 50 1280 52 418 1 868
5 1000 9 132 4 524 14 870 22 347 8 662 19 700 24 39 5 180 11 315 15 298 7
617 35 775 66 28 6 111 15 185 20 174 12 275 24 325 39 49 15 121 78 152 132
13 23 37 57 54 76 22 25 29 40 24 56 -4 11 -10 37 -15 56 -4 19 -20 59 -35 89
-41 84 -83 261 -100 426 -18 165 -36 250 -91 406 -54 155 -107 277 -197 449
-92 178 -137 252 -173 285 -22 20 -24 26 -12 44 16 27 2 68 -35 95 -24 18 -42
21 -125 21 -53 0 -167 -6 -252 -14 -90 -7 -322 -14 -555 -14 -371 -2 -409 0
-525 20 -84 15 -188 24 -320 28 -107 3 -278 11 -380 16 -102 6 -345 12 -540
14 -195 1 -380 5 -410 8 -30 3 -86 1 -125 -4z"/>
<path d="M5460 2585 c-10 -12 -11 -43 -7 -118 3 -56 8 -109 12 -118 9 -24 -67
-29 -451 -29 l-334 0 0 41 c0 52 -15 79 -43 79 -35 0 -47 -19 -47 -72 l0 -48
-336 0 -337 0 5 125 c5 132 0 151 -39 143 -35 -6 -53 -65 -53 -174 l0 -101
-302 -6 c-166 -4 -348 -7 -406 -7 l-105 0 7 69 c6 65 4 71 -16 85 -52 37 -78
8 -78 -85 0 -47 -4 -71 -12 -74 -7 -2 -181 -6 -387 -8 l-374 -4 6 83 c5 88 -1
104 -39 104 -37 0 -54 -36 -54 -116 l0 -72 -68 -7 c-85 -8 -506 -54 -550 -60
l-34 -4 4 87 3 87 -32 3 c-41 4 -51 -15 -61 -110 l-7 -73 -165 -6 c-116 -4
-195 -12 -265 -28 -55 -12 -110 -24 -122 -26 -24 -6 -37 -33 -27 -59 11 -28
51 -29 147 -6 58 14 137 23 212 26 66 3 143 6 172 7 l51 3 7 -163 c4 -90 5
-166 2 -170 -3 -3 -77 -16 -164 -28 -341 -50 -437 -84 -418 -145 8 -26 35 -25
127 0 61 17 271 54 416 74 l42 6 0 -204 0 -204 -83 -12 c-45 -6 -140 -19 -212
-28 -120 -16 -130 -19 -142 -42 -10 -20 -10 -29 1 -45 15 -22 29 -22 115 -6
29 6 97 15 150 21 53 6 113 13 133 17 l38 6 0 -167 c0 -149 -7 -194 -24 -151
-3 8 -17 15 -30 15 -26 0 -46 -24 -46 -55 0 -25 46 -65 75 -65 25 0 25 -1 25
-78 0 -83 16 -122 49 -122 33 0 41 22 41 112 0 48 1 88 3 88 17 1 645 24 681
24 l49 1 13 -45 c19 -65 35 -90 66 -106 34 -18 43 -18 62 2 22 22 20 39 -8 66
-21 21 -51 86 -43 95 2 1 194 7 428 13 233 6 483 15 556 20 122 10 596 29 708
30 50 0 50 0 69 -45 21 -53 60 -71 83 -39 13 18 13 30 -1 65 -6 14 14 17 186
23 163 5 517 10 554 7 6 -1 16 -19 23 -41 15 -51 45 -69 72 -44 16 14 19 26
14 55 l-6 36 283 7 c347 8 528 9 532 5 1 -2 8 -31 15 -64 21 -95 36 -125 64
-125 44 0 51 21 33 99 -9 39 -16 76 -16 84 0 11 43 15 233 20 127 4 264 10
303 13 l72 7 27 -89 c30 -99 51 -130 83 -120 33 11 35 40 8 126 -15 45 -26 83
-26 85 0 2 30 6 68 10 145 13 325 48 344 67 22 22 23 32 2 52 -19 20 -26 20
-156 -4 -123 -22 -288 -37 -288 -25 0 4 -15 80 -34 169 -19 89 -37 178 -40
199 l-7 37 344 0 c264 0 347 -3 354 -12 6 -7 34 -98 62 -203 54 -202 72 -236
112 -215 28 16 24 51 -27 238 -25 92 -47 172 -47 177 -2 13 157 8 287 -10 54
-7 105 -11 112 -8 21 8 29 52 12 69 -18 19 -204 44 -328 44 -52 0 -100 4 -107
8 -12 7 -70 209 -62 216 2 2 51 -5 109 -15 58 -10 162 -22 231 -25 120 -7 127
-6 148 15 25 25 26 35 7 54 -11 10 -50 16 -143 20 -137 5 -361 41 -379 60 -6
7 -29 84 -51 173 l-40 161 120 7 c66 3 173 6 238 6 136 0 169 9 169 44 0 47
-11 49 -288 41 l-259 -7 -7 32 c-3 18 -6 48 -6 67 0 47 -16 73 -45 73 -36 0
-48 -31 -40 -105 l6 -63 -298 5 c-164 3 -305 9 -314 14 -11 5 -22 42 -35 115
-21 119 -37 151 -72 140 -32 -10 -37 -47 -18 -139 24 -124 26 -120 -41 -113
-32 3 -175 11 -318 17 -143 6 -263 14 -267 18 -4 3 -11 57 -16 118 -5 64 -14
119 -22 128 -16 19 -44 19 -60 0z m55 -497 c17 -82 29 -148 26 -148 -3 0 -187
-1 -409 -2 -396 -3 -403 -3 -407 17 -2 11 -9 61 -15 110 -6 50 -13 107 -16
127 l-6 38 319 3 c175 1 354 3 397 2 l79 0 32 -147z m553 132 c79 -4 146 -11
149 -14 3 -3 14 -54 24 -113 10 -60 21 -121 24 -138 l5 -30 -313 4 c-171 1
-314 5 -316 7 -7 7 -61 257 -61 283 l0 24 173 -8 c94 -3 236 -10 315 -15z
m-2229 -150 c5 -80 7 -147 4 -150 -3 -3 -127 -8 -276 -12 -150 -4 -326 -12
-392 -17 -66 -5 -123 -6 -127 -3 -7 7 -32 311 -26 317 6 6 793 21 800 15 4 -3
12 -71 17 -150z m761 158 c0 -2 9 -68 19 -148 11 -80 18 -146 17 -147 -1 -1
-157 -5 -348 -9 -335 -7 -346 -6 -351 12 -3 10 -9 81 -12 157 l-7 137 341 0
c188 0 341 -1 341 -2z m-1669 -64 c4 -21 10 -94 14 -160 l7 -122 -104 -6 c-56
-3 -218 -8 -358 -12 -140 -3 -268 -7 -285 -7 l-30 -2 -8 163 c-5 90 -6 166 -2
170 5 6 714 21 750 17 5 -1 13 -19 16 -41z m3772 32 c126 -3 231 -7 234 -10 4
-3 82 -300 83 -314 0 -2 -17 -1 -37 2 -49 8 -245 23 -452 36 -90 5 -166 11
-168 14 -6 6 -50 275 -46 280 2 2 39 2 81 0 42 -2 180 -6 305 -8z m-4629 -123
c4 -65 9 -144 12 -175 4 -51 3 -58 -13 -58 -10 0 -130 -11 -268 -25 -137 -14
-278 -25 -312 -25 l-61 0 -7 93 c-3 50 -5 126 -3 167 l3 74 245 28 c277 30
310 34 362 36 l36 2 6 -117z m3495 -245 c12 -32 63 -309 58 -314 -2 -2 -190
-5 -418 -7 l-414 -2 -21 125 c-36 205 -36 208 -16 213 9 3 194 5 410 6 l392 1
9 -22z m676 3 l39 -6 24 -143 c13 -79 21 -146 17 -150 -8 -9 -588 -21 -597
-13 -7 6 -68 299 -68 325 0 9 518 -2 585 -13z m-1591 -13 c13 -58 49 -318 45
-321 -2 -3 -164 -7 -360 -11 l-356 -6 -12 97 c-6 54 -14 133 -18 175 l-6 77
164 4 c533 9 538 9 543 -15z m-780 -161 c10 -92 16 -171 13 -174 -4 -3 -39 -7
-79 -9 -40 -3 -218 -14 -395 -26 -177 -12 -325 -19 -328 -17 -9 9 -35 353 -27
361 9 9 605 36 752 34 l45 -1 19 -168z m2891 147 c176 -13 270 -25 280 -36 9
-10 63 -233 57 -238 -4 -3 -158 -4 -343 -2 l-336 3 -22 132 c-12 73 -21 140
-21 150 0 20 -12 20 385 -9z m-3801 -56 c12 -88 27 -320 22 -325 -12 -12 -763
-60 -773 -49 -3 2 -10 89 -18 192 -10 145 -11 190 -2 196 7 4 35 8 62 9 28 1
151 5 275 8 124 4 271 8 327 9 l102 2 5 -42z m-870 -20 c3 -13 8 -70 11 -128
3 -58 8 -134 11 -170 l6 -66 -193 -12 c-200 -14 -355 -26 -447 -38 l-52 -6 2
193 3 194 105 8 c58 4 186 16 285 26 254 26 264 26 269 -1z m4260 -315 c2 -16
21 -108 42 -206 20 -98 35 -180 32 -182 -10 -11 -248 -25 -419 -25 l-185 0
-42 207 c-23 114 -39 210 -34 215 4 4 109 9 232 11 124 1 257 3 297 5 71 2 71
2 77 -25z m-696 -40 c36 -172 74 -374 71 -377 -2 -2 -187 -7 -411 -11 l-407
-8 -11 41 c-22 82 -80 352 -80 371 0 23 -37 21 632 29 l196 2 10 -47z m-902
-118 c17 -82 39 -179 49 -214 9 -35 15 -64 13 -66 -2 -1 -172 -6 -379 -10
l-376 -7 -21 109 c-27 140 -48 311 -39 319 5 5 653 23 706 20 10 -1 24 -45 47
-151z m-830 -20 c12 -82 27 -176 34 -208 6 -32 10 -61 7 -63 -2 -3 -134 -9
-293 -14 -159 -6 -343 -15 -408 -20 -66 -6 -123 -7 -127 -3 -9 9 -55 401 -48
407 2 2 141 13 309 25 373 26 403 28 460 27 l45 -1 21 -150z m-922 43 c32
-286 37 -350 32 -355 -4 -4 -183 -11 -398 -15 -300 -7 -393 -6 -399 3 -4 7
-10 82 -14 168 -3 86 -7 165 -8 176 -3 26 26 30 334 45 134 7 278 15 319 20
139 13 128 17 134 -42z m-867 -195 c6 -104 10 -189 9 -190 -5 -6 -293 -23
-489 -28 l-227 -6 2 178 3 177 40 8 c66 13 452 46 556 47 l95 1 11 -187z"/>
</g>
</svg>
