<?xml version="1.0" standalone="no"?>
<!DOCTYPE svg PUBLIC "-//W3C//DTD SVG 20010904//EN"
 "http://www.w3.org/TR/2001/REC-SVG-20010904/DTD/svg10.dtd">
<svg version="1.0" xmlns="http://www.w3.org/2000/svg"
 width="416.000000pt" height="364.000000pt" viewBox="0 0 416.000000 364.000000"
 preserveAspectRatio="xMidYMid meet">
<metadata>
Created by potrace 1.16, written by Peter Selinger 2001-2019
</metadata>
<g transform="translate(0.000000,364.000000) scale(0.100000,-0.100000)"
fill="#000000" stroke="none">
<path d="M3070 3215 c-38 -10 -116 -14 -248 -15 -169 0 -207 -3 -301 -25 -74
-17 -152 -26 -252 -31 -79 -3 -197 -14 -263 -25 -81 -14 -185 -21 -330 -24
-124 -2 -252 -11 -311 -20 -55 -9 -201 -20 -325 -24 -217 -8 -227 -9 -288 -36
-51 -23 -67 -36 -83 -67 -25 -50 -61 -241 -101 -548 l-32 -245 -1 -600 c0
-502 3 -624 17 -745 9 -80 20 -181 23 -225 4 -44 9 -88 12 -98 13 -49 184 -77
471 -77 145 0 253 -5 321 -15 83 -13 117 -13 184 -4 143 20 358 29 907 38 322
6 554 14 584 21 27 6 49 9 50 8 1 -2 7 -16 14 -31 10 -22 18 -28 39 -25 14 2
31 11 37 22 6 10 22 30 34 43 23 23 23 25 7 49 -15 24 -16 36 -4 128 10 74 14
315 16 916 2 448 4 986 6 1195 2 398 0 426 -42 452 -31 20 -84 23 -141 8z m91
-92 c11 -13 14 -78 11 -342 -1 -179 -7 -409 -13 -511 -7 -113 -10 -448 -7
-860 2 -493 0 -699 -9 -764 -7 -49 -14 -90 -16 -92 -17 -18 -197 -27 -652 -35
-554 -9 -762 -18 -906 -39 -75 -11 -102 -10 -196 4 -79 12 -166 16 -323 15
-223 -1 -353 14 -371 43 -10 15 -12 33 -37 248 -14 131 -17 249 -17 760 0 600
1 607 28 820 24 191 69 465 83 513 3 9 12 17 19 17 8 0 26 12 40 27 l25 28
218 7 c119 3 264 14 322 23 59 10 211 20 350 25 149 5 276 14 325 23 44 9 159
21 255 26 117 7 202 18 255 32 69 18 106 21 280 20 147 0 212 3 245 14 60 18
75 18 91 -2z"/>
<path d="M1892 2714 c-30 -21 -56 -75 -88 -181 -22 -73 -27 -109 -28 -213 -1
-111 2 -132 23 -185 63 -156 161 -153 213 5 39 121 34 425 -9 533 -23 56 -66
73 -111 41z"/>
<path d="M2338 1334 c-147 -20 -177 -30 -220 -77 -71 -78 -86 -140 -44 -182
31 -31 87 -39 239 -33 108 4 135 9 232 42 121 41 155 65 155 108 0 43 -46 125
-80 143 -36 18 -144 18 -282 -1z"/>
<path d="M1445 1319 c-77 -13 -221 -57 -273 -83 -62 -31 -84 -57 -80 -93 2
-22 13 -33 49 -51 62 -31 169 -52 266 -52 106 0 261 46 306 92 27 27 29 32 23
80 -9 67 -21 87 -61 104 -37 15 -149 17 -230 3z"/>
</g>
</svg>
