<?xml version="1.0" standalone="no"?>
<!DOCTYPE svg PUBLIC "-//W3C//DTD SVG 20010904//EN"
 "http://www.w3.org/TR/2001/REC-SVG-20010904/DTD/svg10.dtd">
<svg version="1.0" xmlns="http://www.w3.org/2000/svg"
 width="1645.000000pt" height="1379.000000pt" viewBox="0 0 1645.000000 1379.000000"
 preserveAspectRatio="xMidYMid meet">
<metadata>
Created by potrace 1.16, written by Peter Selinger 2001-2019
</metadata>
<g transform="translate(0.000000,1379.000000) scale(0.100000,-0.100000)"
fill="#000000" stroke="none">
<path d="M7395 13140 c-14 -15 -31 -20 -70 -20 -28 0 -148 -18 -266 -40 -348
-66 -514 -88 -910 -120 -206 -17 -429 -37 -495 -45 -207 -25 -807 -114 -1059
-156 -397 -66 -427 -70 -752 -79 -375 -11 -493 -25 -811 -95 -236 -52 -272
-64 -272 -90 0 -8 -9 -10 -24 -8 -16 3 -31 -2 -46 -17 -19 -19 -21 -29 -16
-64 9 -52 73 -184 171 -350 68 -117 74 -131 60 -146 -23 -25 -18 -42 21 -80
50 -46 78 -113 177 -421 178 -551 233 -767 281 -1114 20 -137 52 -353 71 -480
20 -126 38 -284 41 -350 3 -74 13 -146 25 -187 58 -202 89 -415 89 -619 l0
-147 -267 -90 c-148 -50 -341 -116 -430 -146 -162 -56 -545 -155 -680 -175
-88 -13 -426 -15 -471 -2 -27 8 -36 7 -53 -10 -10 -10 -19 -23 -19 -29 0 -19
39 -49 73 -55 28 -6 36 -12 41 -35 3 -18 14 -31 28 -35 47 -14 257 -110 427
-195 361 -180 700 -339 816 -383 66 -25 188 -72 270 -105 83 -33 222 -85 310
-117 88 -32 214 -80 280 -107 66 -27 293 -119 505 -204 455 -183 601 -253 934
-444 279 -160 554 -297 726 -360 157 -58 233 -99 224 -119 -4 -9 -11 -88 -15
-176 -10 -203 -25 -423 -39 -545 -5 -52 -14 -189 -20 -305 -16 -333 -74 -894
-110 -1072 -11 -51 -24 -150 -30 -220 -38 -467 -45 -574 -44 -703 0 -80 4
-169 8 -197 l9 -53 -54 16 c-120 35 -434 140 -594 199 -225 83 -771 300 -921
365 -222 97 -398 162 -932 341 -569 191 -743 257 -1107 419 -239 106 -735 310
-913 375 -117 43 -110 34 -144 175 -20 86 -22 119 -22 340 1 441 49 827 195
1584 94 489 127 683 159 941 36 290 44 332 72 412 18 52 19 64 8 78 -23 28
-62 14 -87 -31 -31 -55 -46 -137 -82 -424 -35 -278 -61 -433 -160 -950 -157
-818 -195 -1134 -195 -1605 0 -260 2 -298 21 -367 11 -43 18 -89 16 -102 -6
-29 25 -115 41 -117 6 -1 34 -3 61 -3 59 -2 502 -176 980 -386 421 -185 524
-225 1063 -405 581 -195 694 -236 962 -350 113 -48 255 -107 315 -130 61 -24
198 -78 305 -120 332 -132 780 -288 960 -335 24 -7 57 -23 73 -36 34 -28 36
-29 64 -9 31 22 123 42 248 55 61 6 128 15 150 21 22 5 128 16 235 24 107 8
238 23 290 34 182 38 327 52 615 61 160 5 355 16 435 24 79 8 146 13 148 11
11 -11 127 -552 157 -735 20 -118 51 -298 70 -400 19 -102 48 -275 65 -385 34
-214 44 -248 76 -253 33 -5 48 24 46 84 l-2 55 26 -17 c23 -16 46 -16 292 -5
147 6 550 16 895 21 645 10 662 11 992 60 123 19 150 20 225 9 127 -17 656
-14 767 6 49 8 151 21 228 30 322 34 563 70 710 105 55 13 775 13 775 0 0 -6
-9 -27 -20 -47 -17 -32 -18 -40 -6 -58 31 -47 74 -23 112 63 22 49 26 52 60
52 41 0 69 13 78 35 10 27 -12 54 -49 61 -19 3 -35 9 -35 13 0 3 7 58 15 121
9 63 20 264 25 445 6 182 15 418 20 525 5 107 9 304 10 437 l0 243 23 4 c12 3
38 8 57 11 19 4 51 11 70 15 110 25 154 33 240 41 52 5 111 11 131 15 l36 6 6
-51 c10 -87 46 -133 87 -111 24 13 34 44 21 69 -6 11 -11 40 -11 66 0 37 5 50
27 69 33 28 27 72 -12 82 -20 5 -23 11 -19 32 18 104 27 215 34 402 4 118 13
235 20 260 11 43 21 130 40 360 15 188 30 306 43 341 8 25 12 166 13 519 1
396 4 500 17 565 8 44 18 139 21 210 3 72 10 154 17 184 14 67 6 166 -15 190
-24 27 -20 31 34 31 39 0 51 4 60 20 19 36 3 58 -53 74 -29 9 -64 27 -77 42
-51 54 -173 137 -251 170 -44 19 -102 52 -128 74 -26 22 -52 40 -59 40 -6 0
-26 6 -44 14 -18 8 -55 23 -82 32 -27 10 -79 38 -115 62 -36 24 -102 62 -146
84 -44 23 -99 54 -122 70 -24 16 -111 62 -195 103 -84 41 -202 101 -263 133
-60 31 -191 99 -290 149 -141 72 -205 112 -295 183 -131 104 -227 163 -414
257 -72 36 -223 121 -336 188 -113 68 -272 160 -355 205 -82 45 -251 148 -375
230 -124 81 -253 162 -288 180 -34 18 -93 58 -130 89 -133 112 -208 168 -280
210 -40 23 -96 63 -123 87 -55 49 -82 53 -106 17 -13 -19 -11 -24 19 -58 38
-44 110 -98 188 -142 53 -31 118 -80 248 -190 33 -28 107 -77 164 -109 57 -32
189 -115 293 -185 105 -70 260 -165 345 -211 85 -47 236 -134 335 -193 99 -60
268 -154 375 -210 213 -110 267 -144 410 -259 72 -57 142 -100 285 -173 105
-53 240 -123 300 -155 61 -31 178 -91 261 -132 84 -40 172 -87 195 -103 24
-17 78 -47 119 -68 41 -20 102 -56 135 -79 33 -23 76 -49 95 -56 19 -8 45 -24
57 -37 16 -17 33 -23 64 -23 34 0 52 -8 93 -40 29 -21 84 -52 124 -69 40 -16
81 -35 91 -43 84 -61 131 -100 131 -108 0 -5 -15 -12 -32 -14 -18 -3 -73 -13
-123 -21 -49 -8 -140 -29 -201 -46 l-111 -32 -22 22 c-25 25 -42 22 -106 -14
-29 -17 -70 -26 -150 -34 -131 -14 -192 -23 -345 -50 -63 -12 -162 -25 -220
-31 -58 -5 -148 -19 -200 -30 -178 -36 -545 -99 -730 -125 -102 -14 -264 -36
-360 -50 -299 -42 -410 -54 -570 -65 -85 -6 -211 -17 -280 -25 -69 -8 -165
-15 -215 -15 -140 0 -343 -18 -535 -47 -174 -26 -177 -27 -980 -33 -772 -7
-816 -8 -1065 -34 -143 -14 -377 -31 -520 -37 -143 -5 -318 -17 -390 -25 -71
-8 -278 -19 -460 -24 -181 -6 -348 -14 -369 -19 -36 -9 -42 -7 -55 12 -39 57
-148 158 -199 185 -31 16 -113 51 -182 76 -172 65 -470 212 -691 341 -298 175
-519 283 -849 415 -168 67 -402 162 -520 210 -118 49 -296 117 -395 153 -99
36 -259 96 -355 134 -96 39 -224 89 -285 113 -109 42 -224 96 -750 355 -148
73 -285 138 -302 145 -18 7 -33 16 -33 21 0 5 57 9 126 9 87 0 157 6 227 21
217 43 480 114 657 176 102 36 287 99 412 141 l227 76 36 -42 c37 -43 78 -55
102 -31 8 8 18 6 37 -6 14 -10 26 -21 26 -25 0 -4 21 -31 46 -59 36 -40 70
-63 148 -101 55 -28 106 -50 113 -50 6 0 22 -14 34 -31 l22 -32 96 6 c62 4
132 17 196 35 58 17 171 39 270 51 203 26 611 91 822 131 219 42 251 47 538
75 143 14 329 32 414 41 85 8 238 28 340 44 252 39 269 40 641 49 l325 8 120
36 c66 19 136 38 156 41 49 9 55 18 74 107 8 42 44 157 79 255 35 99 67 197
71 217 4 20 12 40 17 44 6 3 66 9 134 14 148 9 279 40 474 109 80 29 222 77
315 107 94 30 235 79 315 108 232 85 433 147 460 142 14 -3 33 -1 42 4 17 9
18 2 18 -95 0 -124 23 -200 71 -241 68 -57 122 -2 64 66 -34 41 -45 89 -45
195 0 78 -3 94 -20 109 -10 9 -26 15 -35 12 -10 -4 -15 0 -15 12 0 26 -26 44
-62 43 -40 -1 -284 -77 -503 -157 -93 -34 -219 -77 -280 -95 -60 -18 -181 -59
-267 -91 -240 -89 -438 -139 -555 -139 l-45 0 7 58 c3 31 14 91 23 132 14 62
16 122 14 341 -3 238 -1 280 18 390 12 68 35 160 52 204 65 178 88 354 88 677
0 153 5 220 27 365 27 172 28 191 28 598 l0 420 -27 52 c-15 28 -32 54 -38 58
-6 4 -6 12 2 24 15 24 3 68 -21 76 -11 3 -33 -3 -53 -15 -38 -23 -138 -28
-185 -9 -46 19 -237 13 -328 -11 -44 -11 -87 -23 -96 -25 -13 -5 -15 21 -17
221 -1 237 -5 254 -46 254 -12 0 -27 9 -34 20 -24 40 -74 50 -242 50 -144 0
-158 -2 -175 -20z m345 -85 c23 -8 46 -12 51 -9 6 3 8 -85 7 -217 l-3 -223
-25 -7 c-36 -10 -587 -10 -705 1 -62 5 -156 4 -250 -2 -112 -8 -180 -8 -270 1
-126 13 -180 9 -480 -35 -77 -11 -229 -18 -505 -24 -437 -8 -392 -2 -675 -90
-103 -32 -225 -58 -495 -105 -85 -15 -182 -36 -215 -48 -52 -17 -92 -21 -300
-24 -200 -4 -243 -7 -257 -20 -26 -23 -22 -43 14 -80 35 -36 62 -41 89 -17 15
13 51 17 191 21 145 4 192 10 293 34 66 16 212 45 325 64 212 37 278 53 465
111 186 58 243 65 585 63 308 -2 367 2 665 46 71 10 244 12 810 8 396 -2 721
-6 723 -8 3 -2 -3 -36 -12 -76 -21 -92 -20 -106 4 -119 44 -23 83 36 96 144 4
30 9 58 13 63 3 5 61 22 127 37 106 24 134 27 215 22 52 -4 137 -9 189 -12
l95 -6 30 -60 30 -59 0 -387 c-1 -369 -2 -395 -28 -565 -22 -144 -27 -212 -27
-358 0 -313 -23 -498 -85 -677 -60 -172 -75 -297 -78 -627 -2 -234 -6 -310
-22 -393 -15 -86 -22 -105 -39 -112 -12 -4 -34 -22 -50 -39 -26 -28 -28 -32
-16 -60 15 -38 10 -61 -58 -245 -30 -83 -64 -189 -76 -235 l-22 -83 -99 -29
c-187 -54 -227 -59 -482 -59 -284 0 -415 -10 -662 -50 -103 -16 -260 -37 -351
-45 -476 -44 -693 -70 -860 -101 -276 -51 -650 -111 -867 -140 -105 -13 -225
-34 -265 -45 -40 -11 -101 -26 -135 -33 l-62 -14 -107 44 c-58 24 -133 58
-165 75 -51 27 -59 36 -59 60 0 22 -8 34 -35 51 -19 13 -37 31 -40 40 -17 52
-95 106 -134 93 -20 -6 -21 -3 -21 82 0 48 9 139 20 202 11 62 20 131 20 153
0 21 10 85 21 141 21 100 21 113 15 781 -4 374 -12 704 -17 735 -5 31 -9 173
-9 316 0 254 -8 361 -45 610 -8 55 -19 150 -25 211 -7 80 -23 153 -55 262 -25
83 -45 164 -45 180 0 33 -16 52 -44 52 -25 0 -56 -28 -56 -51 0 -11 23 -97 50
-191 28 -96 53 -204 56 -243 3 -38 14 -131 24 -205 36 -265 41 -329 44 -615 3
-159 9 -326 15 -370 5 -44 12 -366 15 -715 5 -566 3 -644 -12 -720 l-16 -85
-14 65 c-7 36 -25 106 -39 155 -18 65 -28 129 -33 230 -5 77 -25 244 -45 370
-20 127 -52 343 -71 480 -19 138 -44 288 -55 335 -39 169 -170 610 -250 845
-63 184 -81 251 -80 289 1 44 -4 58 -47 120 -59 86 -211 350 -248 430 -35 76
-28 106 24 106 20 0 87 12 147 25 371 86 438 95 810 105 351 10 421 18 855 90
572 95 1050 157 1500 195 399 33 611 59 860 106 270 51 317 59 365 59 31 0 66
-8 90 -20 22 -11 44 -20 51 -20 21 0 46 38 39 59 -6 20 -3 21 78 21 49 0 102
-6 127 -15z m6820 -6600 c0 -7 7 -18 16 -23 13 -7 16 -23 15 -72 -1 -34 -4
-67 -8 -72 -3 -6 -9 -83 -14 -172 -4 -88 -15 -199 -23 -246 -14 -74 -16 -140
-10 -495 6 -363 5 -421 -11 -505 -23 -127 -34 -221 -45 -365 -13 -186 -30
-336 -42 -380 -5 -22 -14 -137 -18 -255 -5 -118 -14 -246 -20 -285 -6 -38 -14
-97 -18 -129 l-7 -59 -50 -14 c-27 -8 -93 -18 -145 -23 -52 -6 -116 -14 -142
-20 -116 -25 -145 -30 -180 -36 l-36 -6 -6 83 c-4 46 -11 183 -16 304 -15 343
-55 558 -162 885 -38 113 -52 173 -53 220 -3 83 -1 78 -27 85 -13 4 -42 16
-65 26 -55 27 -141 23 -157 -6 -16 -29 -27 -35 -65 -35 -18 0 -61 -4 -95 -10
-33 -5 -110 -17 -171 -26 -60 -9 -153 -27 -205 -40 -135 -35 -307 -44 -817
-44 -369 0 -475 -3 -635 -20 -125 -13 -302 -21 -500 -25 -297 -5 -420 -15
-618 -50 -59 -11 -215 -19 -505 -26 -413 -10 -591 -6 -1060 21 -88 6 -292 10
-453 10 -279 0 -295 1 -319 20 -29 23 -90 27 -117 7 -30 -22 -18 -77 23 -101
31 -18 56 -19 420 -21 212 -2 469 -8 571 -14 296 -18 741 -23 1070 -12 249 8
333 15 460 36 137 24 197 28 525 36 234 5 414 14 490 25 92 12 261 18 730 24
625 8 658 10 782 51 34 11 82 19 268 44 61 8 148 20 195 26 47 6 104 17 127
24 l42 13 6 -37 c3 -20 33 -121 66 -226 83 -266 134 -512 154 -745 4 -41 13
-101 21 -132 29 -117 35 -168 40 -383 5 -181 3 -233 -10 -295 -24 -110 -48
-511 -66 -1105 -9 -269 -24 -431 -45 -464 -4 -8 -134 -11 -398 -11 -381 0
-396 -1 -517 -26 -182 -37 -345 -60 -605 -85 -60 -6 -146 -17 -190 -26 -112
-22 -605 -30 -777 -13 -124 13 -130 12 -345 -20 l-218 -33 -640 -8 c-353 -4
-669 -12 -705 -18 -36 -6 -163 -11 -283 -11 -227 0 -252 -4 -266 -43 -5 -14
-16 33 -36 154 -15 96 -42 253 -60 349 -19 96 -50 272 -70 390 -19 118 -65
330 -100 470 -36 140 -68 266 -71 280 -65 304 -265 843 -463 1255 l-106 220 0
154 c-1 139 -3 155 -20 167 -24 18 -36 18 -61 0 -16 -12 -19 -29 -22 -120 -3
-75 -8 -108 -18 -117 -22 -18 -18 -33 31 -117 55 -94 183 -369 269 -574 65
-158 269 -719 280 -774 7 -32 7 -32 -41 -38 -135 -17 -295 -27 -558 -36 -284
-9 -358 -17 -585 -61 -58 -11 -175 -24 -260 -29 -85 -5 -209 -18 -275 -28
-192 -32 -323 -44 -342 -33 -35 19 -55 250 -33 399 5 37 14 130 19 207 29 387
35 447 53 535 38 190 98 796 118 1193 6 120 13 223 15 230 8 22 35 434 35 532
0 52 3 95 8 95 9 0 35 -40 38 -58 6 -35 27 -44 88 -38 34 3 201 10 371 15 171
5 369 17 440 26 72 8 238 20 370 25 243 10 476 27 750 56 115 12 340 18 960
24 808 8 811 8 975 34 112 18 256 31 445 41 154 8 308 19 343 24 35 5 116 13
180 16 146 8 326 28 552 60 96 14 274 39 395 55 220 31 342 51 680 115 99 19
227 39 285 45 100 10 239 31 325 50 22 5 101 14 175 20 74 7 155 18 179 26 25
8 72 14 105 14 34 0 86 7 116 16 137 38 169 46 240 59 103 18 140 18 140 0z"/>
</g>
</svg>
