<?xml version="1.0" standalone="no"?>
<!DOCTYPE svg PUBLIC "-//W3C//DTD SVG 20010904//EN"
 "http://www.w3.org/TR/2001/REC-SVG-20010904/DTD/svg10.dtd">
<svg version="1.0" xmlns="http://www.w3.org/2000/svg"
 width="615.000000pt" height="594.000000pt" viewBox="0 0 615.000000 594.000000"
 preserveAspectRatio="xMidYMid meet">

<g transform="translate(0.000000,594.000000) scale(0.100000,-0.100000)"
fill="#000000" stroke="none">
<path d="M2300 5805 c-19 -23 -7 -134 44 -383 24 -119 56 -298 71 -397 62
-417 75 -497 85 -516 6 -10 21 -19 34 -19 47 0 49 16 22 192 -14 90 -37 244
-51 343 -15 99 -46 277 -70 395 -24 118 -48 250 -53 293 -6 43 -16 84 -22 92
-16 19 -44 19 -60 0z"/>
<path d="M3552 5523 c-24 -22 -292 -638 -346 -796 -9 -27 29 -60 54 -47 25 14
32 27 128 260 44 107 114 273 156 368 42 95 76 182 76 192 0 11 -9 24 -19 30
-25 13 -25 13 -49 -7z"/>
<path d="M3016 4968 c-69 -156 -158 -482 -160 -584 -1 -78 11 -104 50 -104 32
0 36 12 39 99 3 92 27 188 107 428 65 195 66 213 11 213 -20 0 -28 -10 -47
-52z"/>
<path d="M3883 4943 c-11 -10 -63 -70 -116 -133 -52 -63 -181 -200 -286 -305
-196 -194 -215 -222 -172 -245 13 -6 28 -7 43 -1 34 14 401 389 506 519 90
111 106 144 80 170 -17 17 -32 15 -55 -5z"/>
<path d="M2106 4734 c-25 -25 -19 -41 32 -92 26 -26 107 -127 180 -224 72 -97
136 -180 142 -183 17 -10 49 5 55 26 8 26 -27 80 -192 296 -149 197 -176 218
-217 177z"/>
<path d="M3275 4015 c-30 -13 -417 -42 -725 -55 -399 -17 -612 -37 -780 -71
-58 -12 -172 -25 -255 -30 -82 -5 -200 -11 -262 -15 -104 -6 -113 -5 -139 15
-54 43 -119 17 -152 -61 -25 -59 -63 -280 -72 -417 -21 -319 -30 -409 -45
-488 -14 -72 -14 -85 -1 -117 18 -44 76 -83 143 -95 30 -6 135 -8 250 -4 165
5 231 2 398 -16 191 -21 232 -22 935 -18 557 2 745 6 775 16 24 8 144 16 300
22 665 23 717 26 810 48 134 32 303 54 536 69 68 4 112 12 123 21 54 45 66
139 66 549 0 308 -2 349 -19 412 -11 38 -22 74 -26 80 -9 15 -119 88 -152 102
-15 6 -98 15 -183 20 -85 4 -200 13 -255 19 -95 10 -1249 23 -1270 14z m1280
-104 c50 -6 159 -15 242 -19 l153 -8 56 -40 c50 -34 59 -45 70 -89 17 -66 18
-724 1 -805 l-12 -55 -80 -6 c-235 -19 -416 -43 -535 -71 -86 -20 -173 -25
-795 -47 -139 -5 -289 -16 -337 -24 -73 -13 -206 -16 -800 -18 -640 -1 -727 1
-848 17 -105 14 -191 18 -390 17 -261 -2 -314 3 -344 35 -15 17 -15 25 -1 98
9 43 20 142 25 219 23 340 30 416 51 515 12 58 26 109 30 114 6 6 22 3 44 -7
43 -21 59 -21 77 -4 14 15 79 21 348 37 85 4 202 18 260 29 174 35 371 53 770
71 332 14 707 44 720 56 9 10 1206 -5 1295 -15z"/>
<path d="M2761 3829 c-138 -27 -227 -75 -318 -173 -82 -88 -121 -158 -158
-285 -23 -79 -27 -107 -22 -170 6 -84 30 -156 69 -204 16 -20 74 -57 157 -100
152 -79 228 -97 419 -97 128 0 285 33 357 75 85 49 165 163 209 298 33 99 13
387 -31 457 -27 44 -57 71 -98 92 -22 12 -53 32 -69 45 -16 13 -51 35 -77 49
-46 23 -57 24 -221 23 -95 -1 -193 -5 -217 -10z m397 -93 c27 -14 54 -32 62
-41 8 -9 34 -27 59 -40 96 -49 111 -85 118 -291 4 -111 2 -138 -15 -185 -46
-128 -129 -229 -200 -245 -15 -3 -58 -15 -97 -26 -54 -16 -95 -21 -175 -20
-180 2 -238 15 -362 78 -60 31 -122 67 -138 80 -81 69 -77 264 10 434 66 130
206 232 320 234 35 0 63 -5 78 -15 22 -16 22 -16 -23 -21 -33 -4 -68 -21 -130
-62 -92 -62 -128 -103 -177 -205 -29 -61 -30 -68 -26 -166 6 -138 28 -170 163
-243 l50 -27 204 3 c221 4 229 5 304 65 68 53 127 198 127 310 0 145 -44 215
-167 266 -111 46 -163 72 -163 81 0 6 -14 19 -32 29 l-31 20 44 4 c116 10 149
7 197 -17z m-183 -166 c3 -5 25 -10 48 -10 27 0 65 -12 107 -33 76 -38 88 -62
89 -172 0 -54 -6 -85 -27 -135 -34 -83 -40 -91 -82 -122 -34 -24 -42 -26 -218
-32 l-183 -6 -60 32 c-88 46 -99 64 -99 163 0 73 4 90 31 141 55 106 122 158
220 172 89 13 167 14 174 2z"/>
<path d="M2289 2323 c-30 -32 -77 -84 -103 -115 -92 -112 -202 -222 -373 -375
-181 -161 -200 -188 -152 -213 27 -15 33 -10 204 142 149 133 345 331 410 413
22 28 61 73 87 102 50 54 56 71 36 91 -24 24 -54 12 -109 -45z"/>
<path d="M2650 2318 c-5 -13 -14 -54 -20 -93 -9 -63 -79 -328 -161 -614 -31
-109 -31 -136 2 -146 32 -10 54 18 77 98 143 502 192 713 173 754 -14 31 -58
32 -71 1z"/>
<path d="M3010 2301 c-6 -13 -7 -28 -1 -43 5 -13 84 -108 176 -213 91 -104
204 -240 251 -301 46 -62 92 -115 101 -118 10 -4 25 1 37 14 l21 20 -23 43
c-27 51 -177 237 -367 456 -144 165 -171 185 -195 142z"/>
<path d="M2969 1997 c-8 -19 -2 -60 31 -198 54 -225 73 -321 116 -564 41 -236
113 -583 126 -607 13 -26 56 -23 69 5 8 17 1 65 -30 207 -21 102 -53 268 -71
370 -49 286 -154 766 -175 800 -12 20 -55 11 -66 -13z"/>
<path d="M2275 1903 c-6 -5 -57 -93 -114 -198 -57 -104 -151 -271 -209 -370
-167 -285 -332 -586 -332 -606 0 -10 10 -23 21 -30 17 -9 26 -8 45 7 14 11 84
127 158 259 73 132 170 303 216 380 92 157 235 418 265 483 14 32 16 48 8 60
-11 19 -42 26 -58 15z"/>
</g>
</svg>
