<?xml version="1.0" standalone="no"?>
<!DOCTYPE svg PUBLIC "-//W3C//DTD SVG 20010904//EN"
 "http://www.w3.org/TR/2001/REC-SVG-20010904/DTD/svg10.dtd">
<svg version="1.0" xmlns="http://www.w3.org/2000/svg"
 width="680.000000pt" height="911.000000pt" viewBox="0 0 680.000000 911.000000"
 preserveAspectRatio="xMidYMid meet">
<metadata>
Created by potrace 1.16, written by Peter Selinger 2001-2019
</metadata>
<g transform="translate(0.000000,911.000000) scale(0.100000,-0.100000)"
fill="#000000" stroke="none">
<path d="M5868 7885 c-2 -3 -19 -7 -37 -9 -46 -5 -163 -88 -219 -155 -178
-213 -265 -294 -557 -516 -94 -71 -244 -187 -335 -258 -164 -127 -324 -240
-472 -331 l-77 -47 -20 20 c-13 13 -34 21 -55 21 -20 0 -36 6 -39 14 -3 8 -31
33 -61 55 -30 23 -70 62 -88 88 -41 61 -67 85 -149 138 -36 23 -90 70 -120
104 -48 56 -70 70 -194 133 -77 38 -160 81 -184 95 -37 22 -61 27 -160 33 -64
5 -154 14 -200 20 -58 9 -131 11 -230 6 -80 -4 -283 -11 -451 -16 -223 -6
-321 -12 -365 -24 -33 -9 -139 -29 -235 -46 -96 -17 -206 -40 -245 -51 -80
-24 -206 -85 -286 -139 -113 -78 -275 -257 -374 -417 -28 -44 -46 -63 -65 -67
-51 -10 -53 -29 -61 -451 -7 -398 -11 -453 -54 -750 -14 -93 -34 -258 -45
-365 -11 -107 -29 -260 -40 -340 -33 -246 -54 -621 -69 -1200 -7 -261 -16
-412 -30 -530 -19 -145 -21 -216 -21 -597 l1 -431 42 -39 c74 -68 249 -204
338 -263 90 -59 286 -142 439 -186 47 -13 171 -38 275 -56 l190 -31 465 -4
c528 -5 590 -1 815 57 378 97 543 177 799 385 90 72 165 124 304 209 11 7 12
4 3 -13 -16 -28 2 -61 33 -61 12 0 33 12 47 26 38 41 96 69 199 98 162 46 409
174 609 315 63 45 170 111 240 148 158 84 352 215 456 308 94 84 185 147 237
164 20 7 41 17 46 24 5 7 12 82 15 167 3 98 12 190 25 250 47 222 75 469 101
915 6 94 16 247 22 340 18 259 22 528 10 650 -6 61 -16 187 -21 280 -15 240
-37 445 -66 623 -24 141 -25 169 -20 360 18 624 18 745 1 867 -24 181 -31 376
-15 416 13 29 12 33 -9 50 -24 20 -34 23 -43 14z m-44 -237 c4 -68 14 -174 21
-237 23 -180 28 -382 15 -531 -6 -74 -14 -229 -17 -345 -4 -184 -3 -224 16
-325 31 -172 59 -417 66 -580 4 -80 13 -206 21 -280 16 -158 18 -462 4 -593
-5 -51 -15 -186 -20 -302 -28 -548 -54 -804 -110 -1080 -11 -55 -23 -160 -27
-232 -4 -87 -10 -133 -17 -133 -21 0 -176 -110 -243 -173 -90 -84 -286 -216
-453 -306 -74 -40 -184 -108 -245 -151 -190 -134 -419 -254 -562 -295 -124
-36 -162 -52 -207 -88 -42 -33 -41 -28 11 44 32 44 43 92 24 103 -29 18 -31
98 -21 766 16 1070 28 1596 39 1709 6 57 11 301 12 540 0 240 5 546 10 681 5
135 12 329 15 432 l6 187 147 91 c210 131 262 169 889 655 222 172 341 284
467 443 37 47 127 122 145 122 4 0 10 -55 14 -122z m-2910 -448 c34 -5 114
-14 178 -18 102 -8 121 -12 150 -34 18 -13 88 -51 156 -83 109 -52 130 -66
175 -119 30 -34 87 -82 134 -113 55 -35 95 -70 122 -106 21 -30 69 -80 105
-112 36 -31 66 -61 66 -66 0 -4 -25 -35 -56 -69 -97 -104 -306 -239 -449 -289
-91 -33 -422 -105 -525 -116 -36 -3 -99 -13 -140 -21 -57 -11 -185 -15 -540
-16 l-465 -3 -100 27 c-55 15 -156 36 -225 47 -144 25 -371 81 -432 109 -47
21 -139 88 -215 156 -55 50 -89 112 -79 149 9 38 124 193 210 285 92 97 167
153 285 212 96 48 168 67 406 110 94 17 199 37 235 46 47 11 128 15 295 15
127 0 262 4 300 8 105 12 340 12 409 1z m-2195 -805 c23 -41 56 -75 136 -138
59 -46 131 -97 162 -111 68 -34 318 -100 478 -126 66 -11 165 -31 220 -46
l100 -26 470 1 c372 1 486 4 545 16 41 8 113 19 160 24 117 13 439 84 530 116
41 15 111 46 155 70 84 45 280 180 304 209 7 9 24 16 37 16 19 0 24 -5 24 -25
0 -13 7 -28 16 -33 13 -7 15 -26 10 -118 -2 -60 -9 -422 -15 -804 -5 -382 -15
-744 -20 -805 -6 -60 -11 -279 -12 -485 0 -206 -5 -411 -10 -455 -13 -101 -27
-1436 -16 -1490 5 -22 11 -51 13 -65 8 -38 -51 -100 -159 -166 -51 -31 -144
-98 -207 -149 -249 -201 -410 -278 -765 -370 -166 -43 -265 -53 -555 -59 -377
-8 -671 6 -895 43 -215 35 -277 52 -457 123 -148 57 -232 109 -415 256 -129
103 -132 107 -118 129 19 29 19 48 0 67 -13 13 -16 66 -17 373 -1 309 1 384
20 543 14 124 25 308 33 560 18 610 38 951 69 1175 11 77 29 228 40 335 12
107 34 287 50 400 37 255 50 470 50 808 0 144 2 262 4 262 2 0 18 -25 35 -55z"/>
<path d="M2180 6780 c-100 -20 -294 -76 -331 -96 -45 -23 -79 -71 -79 -113 0
-46 24 -71 70 -71 21 0 52 -13 91 -39 65 -43 185 -93 299 -122 106 -28 304
-28 464 0 65 12 122 21 127 21 18 0 73 57 90 95 36 78 20 151 -52 229 -60 66
-95 79 -264 101 -152 19 -307 18 -415 -5z m418 -85 c136 -18 171 -31 208 -81
39 -50 41 -126 5 -155 -13 -10 -33 -19 -44 -19 -21 0 -21 0 1 16 27 19 28 45
2 69 -17 16 -31 17 -117 11 -54 -4 -127 -14 -163 -22 -36 -9 -140 -18 -234
-21 l-168 -6 -34 37 c-38 41 -88 66 -134 66 -52 0 -33 19 43 41 39 11 92 27
117 35 142 44 324 55 518 29z"/>
</g>
</svg>
