<?xml version="1.0" standalone="no"?>
<!DOCTYPE svg PUBLIC "-//W3C//DTD SVG 20010904//EN"
 "http://www.w3.org/TR/2001/REC-SVG-20010904/DTD/svg10.dtd">
<svg version="1.0" xmlns="http://www.w3.org/2000/svg"
 width="681.000000pt" height="683.000000pt" viewBox="0 0 681.000000 683.000000"
 preserveAspectRatio="xMidYMid meet">

<g transform="translate(0.000000,683.000000) scale(0.100000,-0.100000)"
fill="#000000" stroke="none">
<path d="M3080 6583 c-14 -3 -83 -20 -155 -38 -71 -18 -163 -36 -204 -40 -71
-6 -111 -18 -261 -78 -36 -14 -117 -35 -180 -47 -63 -11 -155 -34 -205 -50
-49 -15 -143 -38 -207 -49 -90 -17 -146 -34 -245 -77 -70 -31 -158 -69 -195
-84 -66 -28 -119 -60 -206 -127 -23 -17 -74 -49 -112 -69 -54 -28 -82 -52
-121 -100 -28 -35 -64 -73 -81 -85 -55 -40 -79 -147 -38 -169 11 -6 25 -8 31
-4 13 8 29 -13 29 -40 0 -10 20 -62 45 -115 30 -63 44 -103 40 -118 -7 -29 31
-436 50 -528 8 -38 21 -113 31 -165 17 -98 144 -568 170 -630 33 -76 184 -508
193 -550 16 -70 44 -146 95 -253 25 -54 46 -101 46 -106 0 -5 25 -44 56 -87
31 -43 70 -106 87 -140 l30 -62 -19 -59 c-14 -44 -18 -85 -18 -173 3 -282 65
-479 209 -656 35 -43 91 -113 124 -154 70 -90 165 -180 240 -228 65 -42 210
-102 346 -143 55 -17 135 -46 179 -65 45 -20 86 -32 97 -29 20 7 35 47 24 65
-14 22 -136 75 -292 126 -90 29 -195 68 -235 87 -93 45 -195 131 -273 229 -33
42 -86 107 -117 145 -81 98 -124 174 -158 279 -33 104 -51 226 -51 354 0 118
6 140 40 140 56 0 66 41 21 88 -16 17 -43 59 -61 94 -17 35 -55 97 -84 138
-29 41 -67 109 -85 150 -18 41 -39 84 -46 95 -7 11 -27 67 -44 125 -38 124
-149 448 -197 575 -37 95 -157 503 -168 570 -4 22 -20 108 -35 190 -16 83 -34
206 -40 275 -5 69 -13 146 -16 172 l-6 47 50 -19 c132 -50 258 -47 379 10 36
17 67 29 68 28 2 -2 8 -57 15 -123 6 -66 18 -149 25 -185 7 -36 16 -105 20
-154 10 -128 87 -444 130 -534 19 -41 59 -115 89 -165 29 -51 70 -126 91 -167
20 -41 52 -95 70 -120 17 -25 64 -99 103 -165 39 -66 93 -148 121 -183 104
-129 126 -196 96 -292 -8 -25 -26 -83 -40 -129 -63 -206 -33 -518 66 -690 70
-122 342 -370 488 -445 234 -120 303 -136 626 -146 143 -5 285 -13 315 -18 32
-5 209 -6 430 -2 336 6 382 9 440 27 36 11 107 30 159 43 142 33 190 58 286
150 46 44 86 80 88 80 11 0 -7 -49 -49 -135 -47 -97 -182 -284 -294 -407 -39
-42 -70 -85 -70 -95 0 -25 19 -43 46 -43 46 0 298 307 387 471 44 82 81 188
111 320 8 36 37 122 65 190 28 68 54 151 59 183 14 91 -10 283 -49 387 -17 46
-46 129 -65 184 -44 128 -121 245 -202 306 -31 23 -100 77 -152 119 -52 42
-110 85 -128 94 -18 9 -59 34 -91 55 -32 20 -119 63 -194 95 -93 40 -153 73
-196 108 -63 51 -112 72 -142 63 -10 -3 -20 -2 -22 2 -3 4 -12 89 -21 188 -9
99 -23 212 -31 250 -8 39 -17 102 -20 140 -4 39 -22 138 -40 220 -18 83 -45
215 -60 295 -15 79 -35 171 -45 205 -10 33 -30 105 -44 161 -60 232 -174 496
-271 624 -44 58 -64 94 -65 114 0 48 -35 107 -121 207 -89 102 -205 219 -219
219 -5 0 -21 11 -36 25 -19 17 -38 25 -64 25 -21 0 -50 2 -66 4 -16 2 -40 2
-54 -1z m146 -122 c60 -29 307 -291 290 -308 -3 -4 -66 24 -139 61 -129 65
-305 125 -437 148 -88 16 -281 3 -395 -26 -54 -14 -100 -24 -102 -23 -1 2 43
22 98 45 79 34 124 46 212 57 62 8 157 28 212 44 115 35 193 35 261 2z m-863
-168 c-7 -2 -21 -2 -30 0 -10 3 -4 5 12 5 17 0 24 -2 18 -5z m-115 -27 c-37
-13 -97 -41 -134 -62 -37 -22 -108 -61 -158 -89 -86 -48 -94 -55 -173 -160
-68 -91 -90 -130 -128 -228 -39 -101 -47 -135 -56 -228 -5 -61 -6 -115 -3
-121 9 -15 -45 -67 -101 -96 -66 -34 -186 -42 -268 -18 -44 13 -63 25 -91 59
-40 49 -116 201 -116 233 0 40 -18 73 -45 80 -14 3 -25 7 -25 8 0 0 40 42 88
93 55 57 105 100 137 116 28 14 89 54 136 89 47 35 101 70 120 78 19 7 57 23
84 36 204 91 267 114 375 134 63 12 147 31 185 43 191 56 296 76 173 33z m777
-19 c44 -14 107 -33 140 -42 33 -9 105 -40 160 -69 55 -30 123 -61 150 -71 96
-35 186 -147 272 -339 78 -174 100 -234 139 -386 19 -74 41 -155 49 -180 8
-25 23 -97 35 -160 12 -63 39 -198 60 -300 21 -102 41 -214 45 -250 3 -36 12
-96 20 -135 13 -63 35 -285 35 -354 l0 -28 -87 4 c-172 6 -389 3 -443 -6 -183
-32 -224 -42 -307 -75 -51 -20 -102 -36 -113 -36 -47 0 -168 -34 -221 -61 -30
-17 -77 -49 -105 -73 -27 -23 -69 -56 -94 -73 -25 -17 -73 -60 -107 -95 -55
-57 -77 -85 -146 -185 -12 -18 -25 -33 -29 -33 -4 0 -23 27 -43 60 -20 33 -64
96 -98 139 -34 44 -89 126 -121 183 -33 57 -72 119 -87 138 -14 19 -47 77 -73
127 -25 51 -64 122 -86 158 -93 153 -120 220 -165 419 -24 105 -46 227 -50
271 -3 44 -12 112 -20 150 -18 91 -45 393 -45 498 0 45 5 102 11 127 20 91 82
225 140 305 83 113 87 117 159 157 36 19 101 56 145 82 72 42 185 86 221 86 8
0 72 14 142 31 171 42 220 48 337 44 70 -3 124 -11 180 -28z m1102 -2443 l32
-39 34 18 c34 18 35 18 75 -2 23 -12 51 -21 62 -21 12 0 36 -11 54 -25 18 -13
85 -47 150 -75 197 -85 283 -137 479 -290 157 -122 222 -205 262 -331 12 -41
39 -117 58 -169 39 -107 63 -258 54 -350 -3 -34 -20 -95 -42 -147 -80 -191
-86 -201 -213 -320 -66 -62 -135 -122 -154 -133 -34 -19 -303 -94 -398 -110
-57 -9 -680 -4 -1035 8 -300 11 -354 20 -514 89 -165 70 -305 174 -466 345
-131 139 -177 273 -177 518 0 114 3 136 35 248 20 67 39 127 42 132 4 6 24 19
45 30 27 14 40 28 45 49 3 17 21 49 38 73 18 24 45 61 59 83 28 41 115 122
178 165 19 13 58 43 85 66 72 60 119 81 241 105 60 12 140 35 178 51 63 26
127 41 291 68 28 5 144 7 260 5 l209 -3 33 -38z"/>
<path d="M3510 3285 c-165 -23 -234 -60 -383 -204 -77 -74 -106 -133 -117
-234 -16 -163 21 -296 117 -421 41 -52 143 -121 203 -135 19 -4 94 -23 165
-41 72 -18 166 -41 210 -52 100 -25 284 -27 440 -5 103 14 119 20 243 84 184
94 202 117 217 278 6 67 4 77 -40 195 -55 150 -96 210 -166 246 -28 14 -79 48
-114 75 -67 52 -119 80 -285 152 -157 68 -310 87 -490 62z m90 -93 c0 -4 -5
-13 -11 -19 -17 -17 -2 -61 22 -68 15 -5 30 0 48 14 14 12 46 31 70 42 43 21
45 21 101 4 32 -10 62 -15 68 -11 21 12 251 -97 330 -157 42 -32 97 -69 122
-82 55 -29 78 -63 124 -184 33 -86 49 -191 29 -191 -4 0 -21 13 -38 29 -16 16
-102 75 -190 132 -218 140 -287 164 -475 163 -159 -1 -220 -14 -359 -80 -81
-38 -107 -57 -191 -140 l-97 -95 -24 53 c-20 46 -24 69 -24 173 0 102 3 126
21 160 31 59 195 200 263 226 75 28 211 48 211 31z m339 -432 c104 -25 140
-43 321 -163 137 -90 213 -159 194 -177 -5 -4 -57 -33 -115 -64 -99 -53 -113
-57 -225 -72 -179 -24 -326 -15 -484 29 -69 19 -160 42 -202 51 -78 16 -153
47 -197 83 l-23 19 86 91 c63 66 105 100 154 126 176 91 330 115 491 77z"/>
<path d="M4636 1354 c-25 -24 -20 -35 44 -101 75 -78 127 -157 146 -218 27
-91 15 -333 -20 -390 -7 -11 -18 -47 -25 -80 -19 -88 -27 -104 -58 -111 -15
-4 -44 -15 -64 -25 -33 -16 -50 -17 -170 -9 -74 5 -152 12 -174 15 -22 4 -110
0 -195 -9 -92 -9 -233 -15 -345 -14 -179 2 -198 0 -340 -30 -218 -47 -364 -58
-539 -42 -87 8 -145 18 -151 26 -5 7 -43 29 -83 50 -84 42 -114 74 -154 162
-61 133 -75 283 -37 395 22 66 118 218 153 243 11 7 33 14 48 14 52 0 76 51
38 85 -25 23 -87 16 -130 -15 -44 -32 -135 -157 -175 -243 -63 -133 -67 -281
-10 -447 46 -136 112 -222 205 -270 22 -11 40 -25 40 -30 0 -42 253 -78 478
-67 81 4 193 19 310 42 172 33 195 35 390 36 114 0 263 6 332 13 80 8 146 9
185 3 56 -7 286 -13 381 -8 80 3 120 60 172 244 96 334 58 540 -134 735 -64
64 -90 74 -118 46z"/>
</g>
</svg>
