<?xml version="1.0" standalone="no"?>
<!DOCTYPE svg PUBLIC "-//W3C//DTD SVG 20010904//EN"
 "http://www.w3.org/TR/2001/REC-SVG-20010904/DTD/svg10.dtd">
<svg version="1.0" xmlns="http://www.w3.org/2000/svg"
 width="667.000000pt" height="920.000000pt" viewBox="0 0 667.000000 920.000000"
 preserveAspectRatio="xMidYMid meet">
<metadata>
Created by potrace 1.16, written by Peter Selinger 2001-2019
</metadata>
<g transform="translate(0.000000,920.000000) scale(0.100000,-0.100000)"
fill="#000000" stroke="none">
<path d="M2238 8631 c-88 -50 -118 -92 -84 -120 8 -7 46 -10 97 -9 83 2 86 2
184 -47 l100 -50 3 -47 3 -48 -61 -39 c-64 -42 -106 -60 -202 -86 -58 -16 -75
-35 -62 -68 9 -24 31 -28 100 -16 76 13 131 3 207 -39 54 -29 131 -108 170
-174 28 -48 72 -176 64 -184 -3 -3 -45 -7 -92 -9 l-87 -4 8 52 c15 95 11 127
-20 153 -26 23 -34 24 -179 24 -158 0 -247 -14 -311 -47 -19 -10 -61 -54 -94
-99 -58 -77 -142 -154 -168 -154 -27 0 -45 14 -79 60 -65 89 -133 87 -213 -6
-95 -112 -126 -227 -83 -312 11 -22 21 -43 21 -46 0 -2 -17 -10 -37 -16 -56
-18 -265 -126 -291 -150 -12 -11 -22 -31 -22 -44 0 -24 63 -95 114 -129 24
-16 26 -21 14 -36 -7 -10 -28 -37 -45 -61 -42 -55 -43 -93 -3 -130 17 -16 44
-31 60 -35 30 -7 30 -7 30 -78 0 -40 5 -115 11 -167 5 -52 14 -306 19 -565 4
-258 15 -558 24 -665 15 -196 30 -459 46 -865 12 -292 27 -590 41 -810 6 -99
8 -261 5 -360 -2 -99 -5 -191 -5 -205 -3 -162 22 -630 44 -810 14 -118 30
-284 36 -369 10 -142 9 -157 -8 -188 l-18 -35 28 -22 c27 -21 29 -31 43 -142
7 -65 14 -149 14 -186 0 -117 14 -131 113 -109 23 5 89 19 147 31 58 11 165
36 239 55 l134 33 28 -20 c24 -18 33 -20 53 -10 13 6 26 21 28 34 2 19 12 25
63 35 33 7 113 16 178 20 113 6 119 5 133 -15 19 -28 60 -28 76 -2 11 17 24
20 94 20 66 0 86 -4 107 -20 28 -22 57 -26 73 -10 7 7 150 12 395 14 211 2
463 8 559 15 175 11 732 9 860 -4 53 -6 68 -4 79 8 17 22 10 60 -14 71 -19 8
-20 17 -17 165 3 117 7 160 18 172 18 20 18 38 -2 60 -14 15 -17 44 -17 166 0
180 0 172 28 363 13 85 29 236 35 335 6 99 15 198 20 220 13 58 38 269 50 425
19 232 61 564 75 595 8 16 14 48 13 70 0 22 17 126 40 230 22 105 47 237 56
295 8 58 20 129 27 159 10 46 14 52 32 47 28 -7 57 11 57 35 0 12 -11 34 -25
51 -14 16 -25 33 -25 37 0 4 15 14 33 22 40 17 47 51 16 72 -18 13 -21 22 -16
49 13 74 58 282 61 286 2 2 13 -2 24 -9 44 -28 96 17 67 58 -8 11 -15 35 -17
54 -2 24 -10 37 -25 44 -28 12 -28 5 -3 146 39 218 62 313 88 352 23 34 24 41
13 75 -10 31 -7 72 19 267 17 127 37 257 45 290 8 33 16 76 20 95 4 26 14 41
35 53 44 26 55 53 35 83 -8 13 -23 24 -33 24 -38 0 -39 18 -5 119 36 108 51
241 36 321 -8 40 -6 46 12 55 11 6 21 22 23 35 5 45 22 75 52 92 16 9 45 42
65 72 l35 55 -9 79 c-4 43 -18 100 -30 128 -43 96 -94 134 -343 251 -155 72
-192 86 -243 88 l-59 3 -84 -81 c-46 -45 -93 -97 -104 -115 -18 -30 -24 -33
-52 -27 -116 24 -224 34 -271 26 -110 -20 -250 -88 -368 -178 -58 -45 -380
-406 -399 -449 -6 -13 -15 -24 -20 -24 -17 0 -48 86 -48 135 0 42 5 54 31 81
24 25 30 38 25 57 -9 36 -55 52 -99 36 -30 -11 -39 -10 -68 8 l-34 19 0 94 c0
58 4 95 11 97 33 11 47 31 40 56 -8 35 -45 44 -87 23 -40 -20 -49 -20 -122 1
-82 23 -132 71 -142 136 -6 41 -4 51 14 71 11 12 21 32 21 44 0 35 -31 44
-106 31 -75 -13 -176 -7 -219 13 -32 14 -89 99 -173 255 -43 79 -61 103 -96
126 -49 30 -87 35 -106 12 -10 -12 -10 -21 -1 -42 10 -22 9 -29 -10 -49 -29
-31 -43 -30 -58 4 -7 15 -20 41 -28 59 -9 18 -31 39 -50 48 -19 9 -51 28 -70
41 -20 13 -48 24 -62 24 -14 0 -44 11 -66 25 -50 30 -68 30 -127 -4z m617
-323 c61 -118 115 -198 155 -231 41 -35 119 -57 201 -57 l68 0 6 -37 c11 -72
26 -112 51 -142 31 -37 127 -86 197 -101 l52 -10 0 -95 c0 -90 1 -95 30 -126
17 -17 49 -40 73 -51 l42 -19 0 -58 c0 -79 23 -150 74 -223 47 -70 86 -99 112
-83 19 12 45 82 37 101 -3 7 10 33 28 58 l32 45 27 -42 c44 -71 129 -149 235
-220 55 -37 122 -87 150 -112 l50 -45 -45 5 c-25 2 -84 7 -132 11 -47 3 -94
11 -103 18 -11 7 -19 34 -24 71 -15 125 -58 150 -194 110 -32 -9 -81 -15 -114
-13 -63 3 -60 -1 -84 97 -6 24 -22 55 -36 68 -22 23 -31 25 -74 20 -26 -3 -81
-20 -121 -36 -71 -30 -72 -30 -92 -12 -12 10 -44 24 -72 30 -49 12 -52 14 -73
66 -49 118 -129 185 -222 185 -50 0 -69 -13 -69 -47 0 -27 27 -43 73 -43 21 0
44 -8 58 -21 29 -24 29 -25 -105 15 -48 14 -94 26 -102 26 -18 0 -18 4 2 42
11 22 15 49 12 90 -5 64 -25 100 -75 133 -23 15 -32 32 -42 75 -18 79 -82 207
-132 266 -55 65 -95 98 -159 133 l-51 28 28 18 c16 11 43 18 64 16 30 -1 44 5
78 37 22 21 41 47 41 58 0 16 74 93 91 94 3 0 27 -42 54 -92z m2581 -404 c203
-98 257 -132 280 -176 18 -36 53 -137 54 -156 0 -7 -30 -43 -67 -81 l-68 -68
-35 42 c-58 68 -126 120 -251 191 l-120 67 33 14 c41 17 128 101 128 124 0 24
-20 37 -65 44 -46 7 -50 4 -93 -54 -33 -47 -41 -88 -19 -110 6 -7 -8 -3 -33 7
-94 42 -130 63 -130 77 0 25 131 157 151 152 9 -3 23 -1 30 4 8 5 17 9 20 9 3
0 86 -39 185 -86z m-2928 -79 c1 -1 -2 -22 -7 -46 -6 -24 -11 -65 -11 -91 0
-39 4 -50 28 -68 23 -19 35 -21 90 -16 60 5 62 4 62 -18 0 -13 7 -29 15 -36
22 -18 62 2 67 32 4 33 68 38 97 9 24 -24 29 -89 9 -120 -11 -19 -16 -18 -97
25 -68 36 -91 44 -115 38 -43 -9 -56 -22 -56 -55 0 -33 24 -49 61 -42 18 3 53
-10 120 -46 85 -45 142 -65 361 -123 21 -6 35 -14 33 -19 -3 -4 -48 -31 -100
-59 -57 -31 -96 -59 -100 -71 -11 -33 19 -62 92 -92 43 -17 90 -45 123 -75 53
-48 54 -49 58 -113 3 -43 -1 -77 -11 -101 -14 -32 -22 -38 -94 -61 -43 -14
-106 -28 -141 -30 -106 -9 -211 -74 -228 -143 -13 -52 2 -71 89 -113 l82 -40
-40 -17 c-22 -9 -74 -19 -116 -22 -75 -4 -77 -4 -95 23 -16 24 -22 26 -59 20
-50 -7 -160 19 -315 75 -83 30 -130 40 -226 49 -133 12 -174 23 -221 58 -17
13 -67 39 -111 57 -96 40 -177 95 -162 110 15 15 12 54 -6 64 -9 5 -49 7 -88
4 -56 -3 -81 0 -109 13 -21 10 -49 15 -64 12 -15 -3 -38 -1 -52 4 l-24 10 25
27 c46 50 58 76 58 123 0 49 -6 57 -84 112 -14 10 -26 21 -26 26 0 4 54 34
121 66 88 43 134 59 170 61 59 4 69 9 69 34 0 11 9 24 20 30 44 24 9 90 -41
77 -25 -7 -49 38 -49 90 0 43 40 119 89 172 l32 34 50 -56 c60 -67 107 -87
167 -69 48 15 146 103 208 187 54 74 88 91 200 104 57 7 242 4 252 -4z m2218
-36 c4 -7 21 -9 43 -5 58 9 167 -18 194 -49 14 -17 35 -27 57 -30 53 -5 114
-30 235 -97 199 -111 286 -180 278 -222 -3 -14 5 -51 17 -83 64 -171 23 -378
-118 -600 -51 -82 -65 -91 -165 -118 -51 -14 -71 -15 -79 -7 -9 9 -16 8 -28
-3 -22 -20 -52 -9 -140 49 -36 24 -92 59 -125 78 -248 144 -334 200 -402 260
-43 38 -121 98 -173 132 -98 65 -191 156 -224 219 l-18 36 90 104 c162 186
266 264 427 319 87 30 120 34 131 17z m-1421 -615 c6 -7 26 -19 45 -27 l35
-14 -48 -23 c-47 -22 -66 -52 -53 -85 8 -22 36 -30 55 -16 23 17 239 121 285
137 58 21 63 19 76 -38 18 -77 37 -108 75 -124 47 -19 136 -17 223 5 l73 19 8
-21 c5 -12 10 -45 13 -73 l5 -50 -161 -83 c-94 -47 -173 -82 -189 -81 -20 0
-41 13 -68 40 -22 22 -50 42 -64 46 -40 10 -120 -23 -159 -66 -67 -74 -82
-128 -44 -154 29 -20 47 -9 79 51 17 32 37 54 62 66 l36 18 36 -35 c39 -40
101 -61 155 -53 19 3 87 33 152 66 91 47 118 57 122 45 3 -7 18 -14 34 -14 22
0 36 10 62 44 28 38 37 44 59 40 14 -3 73 -8 131 -12 l105 -7 -2 -50 c0 -27
-4 -84 -8 -126 -6 -58 -4 -88 8 -125 9 -27 17 -65 19 -84 3 -34 2 -35 -42 -43
-115 -21 -352 -70 -420 -87 -69 -17 -100 -23 -257 -50 -32 -5 -202 -11 -378
-14 -305 -4 -323 -3 -387 17 -38 11 -68 23 -67 26 0 4 28 20 62 36 112 55 101
111 -31 172 -43 20 -79 38 -82 40 -3 3 7 15 23 29 31 26 74 40 162 49 77 8
192 50 227 83 52 48 74 173 46 265 -14 48 -98 133 -164 168 -24 13 -44 27 -44
30 0 3 17 14 38 23 21 10 52 28 68 41 30 25 69 24 89 -1z m1325 -419 c47 -28
130 -77 185 -109 122 -72 226 -138 221 -143 -11 -11 -185 -64 -257 -78 -72
-14 -125 -27 -211 -51 -14 -4 -18 1 -18 23 0 15 -9 60 -20 98 -19 68 -20 73
-3 152 13 64 15 91 6 127 -7 33 -7 44 1 39 6 -4 49 -30 96 -58z m-3130 -110
c19 -14 60 -43 90 -65 30 -22 80 -49 110 -61 30 -11 74 -31 98 -45 49 -29 48
-36 -16 -97 l-39 -38 -59 68 c-148 173 -220 233 -281 233 -27 0 -33 4 -33 21
0 20 4 21 47 15 26 -3 63 -17 83 -31z m-66 -109 c23 -13 79 -69 126 -123 46
-54 93 -108 104 -121 l20 -22 -142 -143 -142 -144 0 51 c0 84 -19 438 -26 484
-7 50 1 53 60 18z m3753 -110 c16 -14 37 -39 47 -58 l17 -33 -132 -132 c-72
-73 -135 -133 -138 -133 -3 0 -39 45 -79 100 -57 79 -71 104 -63 118 21 38 80
79 146 102 39 13 88 31 110 41 53 23 59 23 92 -5z m-3082 -40 c61 -7 127 -21
148 -29 l37 -16 -103 -103 c-57 -57 -124 -127 -149 -156 l-45 -53 -95 118 -96
118 37 40 c20 22 47 54 60 71 26 35 8 35 206 10z m2591 -123 c-50 -64 -223
-240 -229 -232 -2 2 -18 24 -34 49 -51 74 -73 90 -116 83 -20 -3 -37 -10 -37
-15 0 -5 19 -35 43 -66 61 -80 83 -120 72 -131 -96 -87 -367 -322 -370 -319
-37 40 -154 212 -148 217 4 4 49 42 100 84 50 43 119 108 152 145 33 37 78 78
102 92 23 14 51 35 63 46 12 12 41 25 66 29 40 7 43 6 31 -8 -18 -23 -5 -56
26 -63 36 -9 90 22 116 67 18 31 31 39 86 57 37 11 79 20 94 21 l28 1 -45 -57z
m-2179 13 c51 -13 114 -37 141 -54 58 -36 131 -62 172 -62 16 0 31 -4 34 -9 7
-11 -39 -31 -74 -31 -28 0 -29 -1 -18 -26 14 -30 8 -36 -187 -186 -66 -51
-159 -125 -207 -165 l-87 -73 -88 103 c-49 56 -104 121 -122 144 l-34 42 70
78 c116 128 235 237 273 249 19 6 35 12 35 12 0 1 41 -9 92 -22z m2812 -38 c8
-13 32 -54 53 -92 l38 -68 -12 -70 -11 -69 -99 -87 c-54 -48 -102 -88 -107
-90 -5 -2 -41 49 -81 113 l-72 116 47 52 c51 57 217 216 225 217 3 0 12 -10
19 -22z m-3489 -161 c50 -62 90 -114 90 -117 0 -3 -55 -61 -123 -128 l-123
-123 -92 92 c-131 129 -132 120 18 273 68 69 127 123 132 120 5 -3 49 -56 98
-117z m3008 21 l74 -101 -133 -133 c-74 -74 -137 -134 -141 -134 -4 0 -34 48
-67 107 l-59 106 121 129 c67 70 124 128 127 127 3 0 38 -46 78 -101z m-808
16 c-80 -81 -213 -194 -227 -193 -4 0 -36 36 -71 80 l-63 79 -49 0 c-28 0 -50
-2 -50 -4 0 -3 36 -52 80 -110 44 -58 80 -109 80 -114 0 -5 -39 -45 -87 -88
-49 -43 -131 -120 -184 -171 l-95 -93 -44 63 c-24 34 -70 95 -102 135 l-59 72
33 28 c18 15 56 48 84 73 28 26 78 65 111 87 33 22 79 65 104 96 l44 55 73 1
c77 0 326 40 402 64 99 32 101 23 20 -60z m-620 -12 c0 -11 -45 -52 -90 -83
-19 -13 -75 -59 -125 -102 l-90 -78 -30 35 c-16 19 -63 70 -103 114 l-72 80
23 19 c21 16 48 18 255 21 128 1 232 -1 232 -6z m-472 -207 c51 -55 92 -103
92 -107 0 -13 -118 -133 -201 -206 -42 -37 -117 -104 -166 -150 l-91 -82 -108
120 c-60 66 -109 127 -109 135 0 14 116 111 285 240 52 40 115 91 140 113 25
23 50 40 56 39 5 -1 51 -47 102 -102z m2102 -91 l72 -116 -48 -50 c-27 -27
-88 -85 -135 -128 l-85 -79 -77 101 c-42 55 -77 106 -77 113 0 10 265 275 275
275 2 0 35 -52 75 -116z m-2906 -98 l78 -90 -34 -30 c-19 -17 -83 -74 -143
-125 l-109 -95 -17 25 c-10 13 -54 73 -98 133 l-80 109 122 129 122 129 40
-48 c22 -26 75 -88 119 -137z m2322 157 c6 -10 35 -62 64 -117 l53 -98 -174
-169 c-174 -169 -174 -169 -192 -147 -28 33 -130 201 -131 215 -1 11 350 332
364 333 3 0 10 -8 16 -17z m-2922 -142 l69 -70 -99 -106 -99 -107 -7 48 c-3
27 -7 120 -7 207 l-1 159 38 -30 c20 -17 68 -62 106 -101z m2340 -47 c42 -58
76 -109 74 -114 -5 -15 -331 -355 -342 -357 -9 -2 -154 171 -179 214 -7 11 21
43 104 121 63 59 145 137 184 174 38 37 73 68 76 68 3 0 40 -47 83 -106z
m-691 -77 c47 -60 90 -120 98 -133 15 -29 36 -5 -270 -296 l-124 -118 -96 89
c-53 49 -109 102 -124 119 l-28 29 63 60 c35 33 104 96 153 140 50 45 121 113
160 152 38 39 73 70 77 69 4 -2 45 -52 91 -111z m2024 -56 c61 -98 76 -138 70
-189 -4 -41 -14 -54 -108 -148 -57 -57 -108 -104 -114 -104 -10 0 -155 233
-155 250 0 8 251 260 260 259 3 0 24 -30 47 -68z m-3446 -98 c50 -69 92 -131
93 -137 1 -6 -69 -75 -155 -153 -179 -162 -168 -159 -238 -54 -28 43 -40 72
-45 115 -6 54 -5 59 19 78 16 12 25 29 25 47 0 21 22 51 96 129 53 56 100 102
104 102 5 0 50 -57 101 -127z m2938 33 c39 -51 71 -97 71 -100 0 -18 -325
-376 -341 -376 -8 0 -149 215 -149 227 0 9 332 343 341 343 3 0 38 -42 78 -94z
m-2324 -37 c50 -55 99 -111 109 -124 l19 -24 -110 -123 c-61 -68 -121 -133
-134 -145 l-24 -21 -95 110 c-52 60 -108 125 -124 144 l-30 34 40 41 c56 59
236 209 248 208 6 0 52 -46 101 -100z m1661 -6 c15 -27 50 -82 77 -123 l50
-74 -164 -158 c-90 -87 -167 -158 -170 -158 -4 0 -43 45 -88 100 l-82 100 168
179 c92 99 171 180 175 180 3 1 19 -20 34 -46z m-588 -187 c51 -62 92 -116 92
-118 0 -8 -368 -342 -381 -347 -11 -3 -209 187 -209 201 0 9 390 378 399 378
4 0 48 -51 99 -114z m1458 -86 c40 -67 74 -122 74 -124 0 -1 -36 -31 -81 -66
-44 -35 -125 -111 -180 -169 -61 -63 -103 -101 -109 -95 -5 5 -36 54 -69 109
l-60 100 68 70 c37 39 92 99 121 135 65 78 152 171 157 166 2 -2 38 -58 79
-126z m-2803 -138 l70 -83 -149 -150 c-82 -82 -152 -149 -155 -149 -4 0 -39
44 -79 98 -41 53 -96 123 -123 155 l-50 58 24 26 c13 14 80 77 149 140 l125
113 58 -62 c33 -35 91 -100 130 -146z m597 79 c67 -62 120 -117 118 -121 -4
-9 -141 -129 -241 -209 -76 -62 -79 -63 -96 -45 -164 178 -184 204 -170 221
39 50 254 273 261 271 4 -2 62 -54 128 -117z m1657 -167 c2 -6 -64 -75 -147
-154 l-151 -143 -30 29 c-45 43 -142 171 -138 183 2 6 76 77 164 159 l159 149
69 -106 c38 -58 71 -111 74 -117z m-687 35 c104 -129 100 -107 34 -196 -73
-98 -242 -283 -258 -283 -6 0 -61 49 -121 110 l-110 110 55 47 c30 27 114 103
185 170 72 67 135 122 140 122 6 0 39 -36 75 -80z m1401 -47 c14 -20 34 -49
43 -63 l16 -26 -186 -173 -187 -173 -28 34 c-15 19 -36 48 -45 65 l-17 32 79
87 c79 86 270 255 289 255 6 0 22 -17 36 -38z m-2078 -110 l98 -98 -43 -50
c-91 -105 -230 -254 -239 -254 -5 0 -63 53 -129 118 l-121 117 73 57 c40 32
111 91 158 132 47 41 90 75 95 76 6 0 54 -44 108 -98z m-1396 25 c61 -66 213
-272 213 -288 -1 -32 -99 -113 -195 -162 -51 -26 -88 -60 -120 -109 -9 -16
-21 -28 -25 -28 -4 0 -10 87 -14 193 -3 105 -9 208 -12 228 -5 32 -3 38 15 44
31 10 55 50 43 71 -7 13 -3 27 15 56 14 21 29 38 33 38 4 0 25 -19 47 -43z
m748 -90 l89 -98 -168 -167 -167 -167 -35 40 c-19 21 -59 75 -90 119 l-54 80
157 158 c120 120 160 155 168 145 6 -6 51 -56 100 -110z m2143 -14 l62 -102
-92 -94 c-51 -51 -111 -110 -134 -130 l-41 -36 -81 95 -82 96 26 31 c41 50
268 255 275 248 3 -3 33 -52 67 -108z m-529 -123 l39 -44 -47 -52 c-25 -28
-89 -103 -141 -167 -52 -64 -99 -116 -104 -117 -5 0 -51 44 -101 98 l-93 97
92 95 c50 52 120 132 155 178 l63 83 48 -63 c27 -35 67 -83 89 -108z m1161
-27 c-27 -169 -28 -173 -44 -173 -7 0 -50 -32 -95 -71 -45 -40 -83 -70 -85
-68 -2 2 -20 36 -40 74 l-37 70 157 152 c87 84 160 150 162 148 2 -1 -6 -61
-18 -132z m-1896 -323 l-160 -161 -89 108 c-50 59 -94 114 -98 121 -7 10 18
41 85 110 52 54 116 123 143 155 l49 58 115 -115 116 -116 -161 -160z m-605
202 l124 -117 -187 -180 c-104 -99 -189 -180 -190 -180 -2 0 -49 58 -105 128
l-102 128 21 27 c21 27 301 307 310 310 3 1 61 -51 129 -116z m2048 -6 l28
-39 -71 -66 c-39 -36 -98 -90 -132 -119 l-60 -53 -45 58 -46 58 127 128 127
128 23 -28 c12 -15 34 -45 49 -67z m-529 -50 c39 -46 72 -88 72 -93 0 -10 -99
-107 -227 -221 l-91 -83 -59 66 c-32 37 -59 70 -61 75 -6 16 269 340 288 340
3 0 38 -38 78 -84z m-2179 -59 c45 -59 81 -112 81 -117 0 -11 -359 -350 -371
-350 -13 0 -98 105 -122 151 -18 33 -30 45 -50 47 -32 4 -33 7 -7 39 11 14 20
31 20 38 0 6 12 22 26 36 14 13 34 38 45 56 12 19 48 47 92 72 40 21 99 62
132 89 33 28 63 50 66 49 4 -1 43 -51 88 -110z m1590 -91 l94 -94 -169 -166
c-93 -91 -172 -166 -176 -166 -7 0 -118 122 -158 172 l-21 27 157 160 c86 89
162 161 168 161 6 0 54 -42 105 -94z m1281 -57 c0 -17 -227 -242 -237 -236
-13 8 -103 134 -103 144 0 3 21 24 47 47 26 22 86 76 132 118 l85 78 38 -72
c21 -40 38 -76 38 -79z m-1926 -45 l95 -117 -181 -188 c-100 -104 -187 -189
-192 -189 -11 1 -117 125 -175 206 l-30 40 184 182 c101 100 189 182 194 182
6 0 53 -52 105 -116z m1454 -34 c-2 -4 -72 -69 -156 -145 l-154 -137 -44 48
c-24 27 -43 52 -44 56 0 3 70 72 157 152 l156 145 44 -56 c24 -31 42 -59 41
-63z m-2121 -118 l65 -83 -108 -107 c-60 -59 -137 -139 -171 -177 l-63 -70
-31 35 c-17 19 -69 76 -115 127 l-84 91 43 34 c23 18 107 95 187 171 l145 138
33 -38 c19 -21 63 -75 99 -121z m2717 13 c21 -42 37 -77 35 -78 -64 -41 -105
-76 -165 -141 l-73 -80 -22 49 c-12 28 -33 64 -45 81 -13 17 -24 35 -24 39 0
4 50 59 112 121 129 132 121 131 182 9z m-1186 -1 l61 -70 -167 -167 c-92 -92
-172 -167 -178 -167 -11 0 -124 132 -124 144 0 9 335 336 341 333 3 -1 34 -34
67 -73z m705 -43 l55 -79 -32 -30 c-24 -23 -188 -155 -253 -205 -9 -6 -31 9
-73 49 -33 32 -59 62 -57 67 2 7 296 274 304 276 1 1 26 -35 56 -78z m-1282
-163 l40 -47 -182 -185 c-101 -103 -186 -186 -190 -186 -8 0 -162 176 -168
192 -2 6 79 93 180 195 l184 184 48 -53 c26 -29 66 -74 88 -100z m748 18 l44
-45 -172 -178 c-95 -98 -176 -179 -179 -180 -4 -1 -26 23 -49 53 l-41 55 171
169 c95 93 174 170 177 170 3 0 25 -20 49 -44z m-1450 -149 l73 -89 -163 -164
c-90 -90 -168 -164 -174 -164 -6 0 -55 52 -108 116 l-97 116 39 46 c21 26 48
56 60 66 12 11 31 35 43 54 11 18 59 67 107 108 l86 74 30 -37 c17 -20 63 -77
104 -126z m2118 126 c7 -10 25 -40 38 -68 13 -27 32 -62 41 -76 17 -26 16 -27
-39 -112 -49 -75 -141 -167 -167 -167 -5 0 -23 19 -41 43 -18 23 -57 70 -86
103 l-53 62 143 115 c78 64 144 116 146 117 2 0 10 -8 18 -17z m348 -160 c-8
-75 -18 -139 -20 -141 -7 -7 -115 128 -115 144 0 11 71 96 110 132 26 25 36
29 38 18 2 -8 -4 -77 -13 -153z m-3180 -4 c55 -61 104 -118 109 -127 10 -17
-54 -81 -260 -264 l-109 -97 -7 220 -7 220 37 39 c20 21 52 57 71 79 18 23 41
41 50 41 9 0 61 -50 116 -111z m2349 -80 c-61 -53 -161 -145 -257 -239 l-88
-85 -44 50 c-24 28 -44 54 -45 60 0 5 80 90 177 187 l178 178 59 -59 59 -59
-39 -33z m-770 58 c31 -38 56 -72 56 -77 0 -10 -292 -294 -347 -338 l-41 -32
-51 69 c-28 37 -51 72 -51 77 0 12 363 375 372 372 3 -2 31 -34 62 -71z m1494
-159 c56 -59 59 -53 -86 -206 l-107 -113 -57 85 -56 85 54 43 c32 24 79 78
111 125 l56 82 20 -27 c11 -15 41 -48 65 -74z m-474 -97 l29 -42 -59 -51 c-32
-29 -123 -117 -202 -196 -78 -80 -144 -143 -146 -141 -2 2 -16 24 -31 49 -15
25 -50 76 -78 113 l-50 69 84 85 c46 47 134 130 194 184 l110 99 60 -63 c33
-36 73 -83 89 -106z m-1684 83 c115 -133 113 -112 18 -190 -46 -37 -124 -108
-174 -156 l-91 -89 -19 24 c-11 14 -45 54 -76 89 l-57 64 162 167 c89 92 164
167 167 166 3 0 34 -34 70 -75z m829 -27 c22 -30 41 -56 41 -59 0 -3 -85 -92
-189 -198 l-189 -192 -50 63 -51 63 192 187 c106 104 195 188 198 189 4 0 25
-24 48 -53z m-1455 -114 c47 -57 86 -104 86 -106 0 -2 -53 -57 -118 -123 -135
-137 -254 -244 -270 -244 -6 0 -54 50 -107 111 l-95 110 17 31 c10 16 32 39
48 51 31 22 151 129 264 234 51 48 69 59 77 50 7 -7 51 -58 98 -114z m1611
-83 l45 -55 -63 -65 c-35 -36 -114 -122 -177 -192 -62 -71 -116 -128 -120
-128 -4 0 -31 27 -59 60 l-52 60 113 123 c127 138 249 257 260 254 5 -1 28
-27 53 -57z m1239 -12 c-3 -40 -12 -113 -19 -162 -13 -81 -17 -93 -51 -127
-41 -42 -54 -42 -54 1 0 19 -9 36 -29 52 -15 13 -36 35 -46 51 -17 27 -17 27
16 65 19 20 65 72 103 115 38 42 73 77 78 77 4 0 5 -33 2 -72z m-2004 -35 l50
-65 -157 -164 c-179 -188 -154 -181 -246 -66 l-50 64 79 80 c100 101 253 230
265 222 5 -3 32 -35 59 -71z m1647 -48 l28 -54 -45 -47 c-25 -25 -97 -90 -160
-144 -63 -54 -131 -114 -149 -134 -19 -20 -38 -36 -43 -36 -8 0 -94 89 -116
121 -12 17 -10 24 19 57 74 86 240 252 304 306 l70 57 32 -36 c17 -20 44 -61
60 -90z m-2177 -175 c0 -3 -30 -27 -66 -55 -37 -27 -105 -92 -153 -144 -104
-114 -181 -191 -190 -191 -4 0 -38 45 -75 101 l-68 100 43 36 c24 20 112 104
194 185 l150 149 82 -88 c46 -48 83 -90 83 -93z m1460 57 c30 -42 66 -96 79
-120 l24 -44 -49 -60 c-27 -33 -67 -82 -89 -109 -22 -27 -74 -83 -116 -125
l-77 -75 -62 83 c-33 45 -77 95 -95 110 -19 16 -35 32 -35 37 0 5 30 41 68 80
37 39 114 124 172 188 58 65 110 116 115 115 6 -2 35 -38 65 -80z m-743 -74
l25 -33 -27 -32 c-16 -18 -85 -92 -155 -165 l-126 -132 -52 69 c-29 38 -52 73
-52 77 0 4 69 77 153 161 l152 153 28 -33 c16 -18 40 -48 54 -65z m1563 4 c11
-24 33 -61 50 -82 18 -23 27 -42 22 -49 -70 -93 -154 -184 -239 -259 -57 -51
-108 -93 -114 -95 -5 -2 -21 17 -36 43 -16 26 -43 67 -61 92 -18 25 -31 51
-28 58 3 8 51 53 107 102 57 48 139 120 183 160 45 39 85 72 89 72 4 1 17 -18
27 -42z m-3017 -114 l58 -61 -73 -58 c-40 -31 -83 -66 -95 -77 l-23 -20 0 183
0 184 37 -45 c21 -24 64 -72 96 -106z m876 -37 l60 -73 -172 -169 c-95 -93
-193 -183 -218 -201 l-46 -32 -25 27 c-35 38 -98 123 -98 133 0 4 33 41 73 81
39 40 93 99 119 130 64 76 219 200 234 187 7 -5 39 -43 73 -83z m703 -135
c-39 -36 -106 -111 -150 -166 -120 -152 -110 -147 -161 -69 -23 37 -41 73 -39
81 2 7 73 86 158 174 l155 160 54 -57 53 -58 -70 -65z m843 54 l58 -66 -24
-27 c-13 -15 -76 -81 -139 -147 -64 -66 -129 -137 -145 -158 l-30 -37 -53 65
-53 65 30 42 c16 24 42 51 58 62 16 10 74 74 129 142 54 68 102 124 105 124 4
0 32 -29 64 -65z m764 11 c22 -24 23 -29 16 -125 -7 -100 -7 -101 -31 -95 -19
5 -27 0 -40 -23 -9 -15 -39 -44 -66 -63 -27 -18 -80 -67 -118 -107 l-67 -74
-32 50 c-18 27 -39 55 -47 61 -7 7 -14 18 -14 24 0 6 51 56 114 110 63 55 144
137 182 183 38 45 71 83 74 83 4 0 17 -11 29 -24z m-2992 -126 c71 -105 71
-106 -9 -156 -21 -13 -89 -76 -152 -139 -63 -63 -118 -115 -123 -115 -5 0 -15
55 -21 123 -14 141 -7 185 35 230 43 46 186 158 198 154 5 -2 38 -46 72 -97z
m867 -20 l49 -65 -164 -159 c-90 -87 -183 -174 -206 -193 l-42 -35 -66 58
c-36 32 -65 61 -65 65 0 4 30 31 68 59 37 29 130 117 207 195 77 79 147 142
155 141 8 0 37 -30 64 -66z m702 18 c61 -63 144 -172 144 -188 0 -14 -82 -112
-134 -159 -142 -130 -202 -179 -212 -173 -6 4 -52 52 -101 107 l-90 101 35 39
c19 22 59 72 90 110 66 84 192 215 207 215 6 0 33 -24 61 -52z m834 -96 c23
-37 48 -77 56 -88 14 -21 10 -26 -98 -120 -62 -54 -143 -126 -180 -161 -36
-35 -70 -63 -75 -62 -10 0 -93 124 -93 138 0 30 324 376 342 365 4 -3 26 -35
48 -72z m-1391 -142 c23 -38 41 -74 39 -79 -5 -16 -260 -274 -312 -316 l-49
-39 -58 62 c-33 34 -59 67 -59 72 0 5 46 51 102 102 56 51 143 132 193 180 49
48 92 88 95 88 3 0 25 -31 49 -70z m-839 -21 c34 -45 58 -84 53 -88 -85 -70
-255 -240 -285 -284 -27 -39 -43 -55 -52 -50 -7 5 -49 41 -92 81 l-79 73 54
47 c30 26 96 89 145 140 70 71 168 154 193 161 1 1 29 -35 63 -80z m2795 -75
l-19 -116 -59 -54 c-33 -30 -61 -54 -62 -52 -30 32 -85 105 -85 113 0 34 222
246 239 229 2 -2 -4 -56 -14 -120z m-1085 -50 c0 -6 -25 -42 -56 -80 -32 -38
-89 -112 -129 -164 -40 -52 -84 -105 -97 -118 l-24 -22 -67 80 c-37 44 -67 86
-67 94 0 8 12 22 27 31 23 16 121 100 188 164 11 10 43 46 70 80 l50 62 52
-58 c29 -32 53 -63 53 -69z m689 35 c23 -34 41 -67 41 -73 0 -20 -329 -326
-351 -326 -3 0 -30 30 -58 67 l-52 67 38 38 c74 74 318 287 330 287 6 1 30
-27 52 -60z m-1353 -144 c115 -126 117 -109 -22 -255 -52 -55 -113 -132 -144
-183 -61 -101 -57 -101 -136 8 -24 33 -70 86 -103 118 l-60 59 180 179 c100
98 182 179 184 179 2 0 47 -47 101 -105z m-843 17 l67 -67 -131 -130 c-71 -72
-146 -151 -165 -177 -20 -27 -39 -48 -44 -48 -4 0 -37 33 -73 73 l-66 73 45
65 c45 64 267 279 288 279 6 0 42 -30 79 -68z m1624 -62 l42 -62 -38 -47 c-20
-25 -80 -100 -133 -166 -95 -119 -134 -162 -142 -154 -2 2 -25 32 -49 66 -41
55 -44 63 -30 75 9 7 54 62 101 123 147 189 185 236 196 232 6 -2 30 -32 53
-67z m716 -20 c21 -28 37 -56 35 -63 -6 -24 -324 -298 -344 -296 -5 0 -26 22
-46 49 l-37 49 77 68 c42 37 118 107 169 155 51 49 96 88 100 88 4 -1 25 -23
46 -50z m-2172 -87 c19 -21 45 -50 58 -65 l24 -28 -64 -68 c-35 -38 -90 -101
-122 -140 -33 -40 -63 -72 -67 -72 -5 0 -26 -22 -47 -49 l-39 -49 -62 74 -61
73 27 33 c44 54 304 328 311 328 4 0 23 -17 42 -37z m938 -148 l30 -42 -40
-39 c-22 -21 -75 -85 -116 -141 -42 -57 -79 -103 -83 -103 -12 0 -32 -58 -25
-71 6 -8 -8 -9 -56 -4 -55 6 -69 12 -101 43 -40 38 -47 62 -24 81 7 6 31 42
52 78 22 37 73 103 114 148 41 44 90 99 109 123 l34 43 38 -37 c20 -20 51 -55
68 -79z m631 84 c7 -11 28 -39 47 -60 l36 -40 -135 -137 c-75 -75 -143 -152
-152 -169 -9 -18 -20 -33 -25 -33 -4 0 -26 24 -49 54 -33 45 -38 57 -27 66 12
10 117 138 243 298 38 48 47 51 62 21z m772 -111 c10 -10 18 -22 18 -26 0 -13
-124 -136 -222 -219 l-91 -77 -21 30 c-11 16 -41 48 -66 71 -28 26 -41 45 -35
51 6 5 44 36 85 70 41 34 113 94 160 135 l84 74 35 -45 c19 -25 43 -54 53 -64z
m-2129 -56 c36 -37 78 -84 94 -104 15 -20 41 -53 58 -74 20 -26 26 -39 17 -42
-7 -2 -21 -21 -32 -41 l-19 -38 -143 -6 c-84 -3 -188 -15 -252 -28 -104 -21
-110 -21 -122 -4 -18 25 -7 43 95 151 47 49 117 127 154 172 38 45 72 82 77
82 4 0 38 -30 73 -68z m-774 -137 c-30 -28 -83 -87 -119 -130 -61 -75 -65 -78
-71 -55 -4 14 -7 45 -8 69 -1 24 -6 73 -12 109 l-11 64 68 70 69 69 69 -72 68
-73 -53 -51z m2315 83 c20 -23 36 -47 36 -54 0 -7 -38 -45 -84 -84 -46 -38
-90 -79 -97 -89 -11 -15 -31 -20 -96 -24 l-83 -5 15 28 c18 35 247 270 263
270 6 0 27 -19 46 -42z m-668 -52 l33 -49 -25 -31 c-63 -78 -93 -117 -96 -126
-2 -7 -41 -10 -106 -8 l-102 3 71 95 c39 52 92 116 117 142 52 54 54 54 108
-26z m1308 -147 c-9 -10 -14 -25 -10 -35 6 -15 0 -16 -46 -11 -29 4 -82 7
-118 7 l-65 1 50 42 c28 23 84 74 125 114 l75 72 3 -86 c2 -69 0 -89 -14 -104z
m-2798 51 c46 -51 137 -171 132 -175 -17 -16 -445 -111 -455 -101 -16 16 247
316 277 316 5 0 26 -18 46 -40z"/>
<path d="M1951 7392 c-54 -17 -86 -101 -54 -141 26 -32 60 -21 71 22 8 30 11
32 60 35 39 2 67 -4 119 -27 112 -48 200 -71 304 -78 l99 -6 61 -52 c63 -55
97 -69 136 -54 39 15 25 79 -17 79 -9 0 -25 9 -36 21 -10 11 -41 37 -68 57
-47 35 -53 36 -160 43 -112 8 -189 28 -301 79 -52 24 -168 36 -214 22z"/>
<path d="M2486 6975 c-38 -38 -12 -122 65 -208 36 -41 43 -57 46 -100 7 -93
10 -99 45 -95 39 4 52 38 43 117 -7 64 -13 77 -70 141 -25 28 -47 63 -50 78
-15 70 -48 98 -79 67z"/>
<path d="M1910 6937 c-53 -27 -62 -98 -18 -144 25 -27 70 -30 89 -7 11 14 11
21 -3 45 -14 23 -14 29 -3 29 13 0 65 -55 65 -69 0 -4 15 -22 34 -41 24 -26
57 -43 122 -65 78 -26 91 -34 106 -63 34 -68 71 -90 99 -56 10 13 9 24 -6 67
-29 84 -58 106 -188 142 -49 13 -62 22 -85 57 -15 23 -43 58 -63 80 -32 33
-43 38 -80 38 -24 0 -55 -6 -69 -13z"/>
<path d="M4087 6466 c-32 -13 -63 -29 -70 -34 -19 -16 -134 -52 -166 -52 -21
0 -40 11 -65 38 -34 35 -39 37 -93 36 -72 -2 -161 -32 -180 -61 -13 -19 -12
-24 5 -41 20 -20 21 -20 100 1 l81 21 40 -37 c22 -20 55 -39 75 -43 51 -9 157
18 255 65 66 32 88 38 103 30 10 -6 31 -9 46 -7 23 2 27 8 27 33 0 22 -8 35
-34 52 -42 28 -52 28 -124 -1z"/>
</g>
</svg>
