<?xml version="1.0" standalone="no"?>
<!DOCTYPE svg PUBLIC "-//W3C//DTD SVG 20010904//EN"
 "http://www.w3.org/TR/2001/REC-SVG-20010904/DTD/svg10.dtd">
<svg version="1.0" xmlns="http://www.w3.org/2000/svg"
 width="1048.000000pt" height="1163.000000pt" viewBox="0 0 1048.000000 1163.000000"
 preserveAspectRatio="xMidYMid meet">
<metadata>
Created by potrace 1.16, written by Peter Selinger 2001-2019
</metadata>
<g transform="translate(0.000000,1163.000000) scale(0.100000,-0.100000)"
fill="#000000" stroke="none">
<path d="M3190 10725 c-184 -12 -416 -28 -515 -33 -195 -12 -242 -22 -286 -63
-35 -32 -37 -66 -8 -104 l22 -27 -134 -135 c-254 -256 -579 -542 -995 -878
-148 -119 -173 -135 -206 -135 -62 0 -88 -15 -88 -50 0 -18 6 -33 15 -36 12
-5 11 -12 -6 -46 -26 -50 -19 -85 18 -94 l26 -7 -6 -346 c-4 -206 -14 -439
-26 -576 -31 -364 -34 -483 -36 -1515 -2 -536 -7 -1039 -13 -1118 -9 -129 -12
-145 -31 -158 -25 -18 -27 -46 -6 -77 12 -19 15 -113 18 -577 2 -305 10 -695
17 -866 13 -290 12 -313 -3 -329 -22 -21 -21 -38 1 -59 17 -15 19 -42 25 -309
4 -160 11 -366 16 -457 44 -726 48 -1090 16 -1385 -23 -220 -20 -255 27 -255
33 0 46 42 63 200 28 253 29 590 6 1075 -28 569 -46 1093 -39 1100 3 4 30 -1
61 -10 83 -24 236 -34 522 -35 143 0 290 -3 328 -7 l67 -6 0 -31 c0 -76 81
-72 92 4 l3 25 540 -2 c297 -1 807 -4 1133 -8 507 -6 616 -4 750 9 86 9 243
21 347 26 290 14 830 95 1035 155 85 25 160 45 166 45 8 0 9 -11 4 -37 -5 -21
-14 -94 -20 -163 -13 -143 -35 -311 -55 -420 -13 -72 -24 -199 -45 -495 -25
-369 -32 -455 -41 -523 -5 -40 -9 -167 -9 -281 l0 -208 -152 -7 c-189 -8 -345
-25 -698 -76 -533 -77 -607 -83 -1330 -110 -649 -24 -1532 -96 -1961 -160
-108 -16 -306 -38 -440 -50 -231 -19 -395 -48 -427 -73 -18 -14 -11 -57 10
-71 13 -8 35 -6 85 7 38 10 187 29 335 43 147 13 338 35 425 48 417 65 1389
143 2073 166 584 20 693 29 1224 106 324 46 528 68 734 80 l122 7 0 -61 c0
-51 4 -63 21 -76 22 -15 48 -11 61 8 4 6 8 37 8 68 l0 57 808 -2 c444 -1 894
2 1000 7 146 7 198 6 215 -3 31 -17 117 18 117 48 0 36 -12 50 -46 57 -60 11
-44 55 76 203 323 401 582 766 748 1055 51 87 145 243 209 347 106 169 121
189 145 189 34 0 48 24 48 80 0 36 11 58 80 158 81 118 90 138 68 160 -29 29
-57 13 -110 -59 l-53 -72 -8 34 c-13 51 -27 824 -37 1974 -9 1185 -25 2069
-41 2335 -15 252 -24 2689 -9 2704 16 16 12 51 -8 69 -23 21 -48 21 -103 1
-74 -27 -680 -46 -922 -29 -110 8 -174 3 -737 -57 -250 -26 -614 -28 -709 -3
-34 9 -83 20 -109 25 -101 21 -696 35 -1317 32 -726 -3 -954 5 -1245 49 -284
42 -468 45 -900 14z m872 -106 c339 -46 425 -50 1173 -48 624 1 1188 -10 1345
-27 30 -3 91 -15 135 -27 118 -31 497 -31 785 0 458 50 560 58 670 55 237 -7
422 -6 653 2 130 5 237 6 237 2 0 -28 -346 -399 -713 -764 l-234 -233 -64 12
c-107 20 -445 12 -1399 -31 -1268 -57 -1434 -61 -2380 -54 -889 7 -967 5
-1550 -42 -222 -18 -445 -28 -755 -34 -305 -6 -472 -14 -544 -24 -57 -9 -106
-15 -107 -13 -2 1 61 54 139 117 385 312 640 543 952 862 l221 225 129 6 c72
4 234 14 360 23 543 37 630 36 947 -7z m5079 -1379 c4 -665 12 -1290 18 -1395
6 -104 13 -410 16 -679 3 -269 9 -494 12 -500 4 -6 6 -427 5 -936 -2 -644 1
-974 9 -1085 7 -88 12 -290 11 -450 -1 -251 19 -687 33 -735 3 -9 -59 -117
-136 -240 -78 -124 -180 -292 -227 -375 -147 -259 -332 -526 -620 -895 -100
-129 -186 -235 -190 -235 -4 0 -12 43 -18 95 -6 52 -18 151 -27 220 -25 197
-29 1633 -5 1925 10 116 22 280 28 365 6 85 15 207 20 270 5 63 10 210 10 327
0 315 14 479 99 1203 35 302 44 583 36 1150 -10 739 -10 994 3 1570 11 503 13
543 33 611 9 28 8 43 -5 74 l-16 38 313 316 c297 300 534 551 560 592 11 18
12 18 22 -4 6 -14 12 -457 16 -1227z m-1064 251 c28 -11 31 -16 27 -41 -4 -20
-1 -31 13 -41 18 -14 19 -29 9 -509 -5 -272 -8 -677 -7 -900 11 -1329 6 -1584
-45 -1975 -59 -462 -75 -661 -84 -1030 -4 -198 -15 -448 -24 -555 -52 -645
-56 -745 -56 -1512 0 -449 4 -768 10 -815 22 -161 29 -220 39 -303 6 -47 15
-129 22 -183 6 -54 9 -100 6 -103 -3 -3 -81 -11 -174 -17 -173 -12 -1701 -13
-1756 -1 l-28 6 4 211 c2 117 11 302 20 412 10 110 22 265 27 345 23 316 33
421 56 565 13 83 33 236 44 340 11 105 22 199 24 210 3 11 7 32 11 47 4 21 18
34 54 52 27 14 51 32 55 41 13 34 -35 82 -69 68 -15 -5 -17 0 -11 43 16 122
26 292 26 435 0 85 7 207 15 270 43 322 56 526 66 1024 25 1392 34 1649 60
1835 6 44 13 388 16 839 4 665 7 767 20 788 14 21 14 25 -1 48 -17 26 -33 153
-37 290 -2 72 0 80 17 82 10 1 192 10 404 19 212 9 455 20 540 24 227 12 668
6 707 -9z m-1758 -149 c3 -59 5 -138 5 -176 l1 -69 -115 -24 c-168 -36 -167
-36 -174 -24 -12 19 -45 12 -61 -13 -12 -19 -15 -50 -14 -149 1 -68 -1 -130
-5 -136 -4 -6 -18 -11 -31 -11 -13 0 -76 -13 -140 -30 -64 -16 -129 -30 -145
-30 -19 0 -33 -7 -40 -19 -5 -11 -10 -85 -10 -168 l0 -149 -97 -19 c-54 -10
-111 -19 -126 -21 -43 -3 -54 -19 -76 -112 -32 -138 -43 -296 -39 -590 3 -235
1 -273 -12 -277 -87 -26 -728 -135 -795 -135 -14 0 -4 95 21 207 19 85 26 89
153 96 90 5 117 21 107 61 -3 12 4 25 17 36 19 16 22 30 25 108 l4 89 38 12
c20 6 71 11 111 11 62 0 77 -3 92 -20 20 -24 50 -26 67 -5 9 11 11 140 6 572
-8 680 -8 679 -23 694 -7 7 -13 20 -13 29 0 9 -16 32 -36 51 l-35 34 -137 -2
c-75 -1 -161 -7 -191 -15 -53 -13 -56 -12 -78 10 -42 42 -60 17 -123 -164 -31
-87 -65 -177 -77 -199 -11 -22 -24 -54 -27 -71 -6 -27 -13 -32 -44 -38 -60
-10 -174 -7 -237 6 -54 11 -59 10 -75 -9 -12 -15 -19 -50 -24 -115 -3 -51 -21
-156 -39 -233 l-34 -140 -69 -17 c-54 -14 -76 -16 -101 -7 -55 18 -100 -6
-133 -72 -10 -19 -39 -96 -64 -170 -35 -103 -49 -165 -62 -269 -20 -166 -15
-380 13 -486 l18 -70 -375 -14 c-452 -17 -736 -19 -733 -5 1 6 14 38 28 73 14
34 29 85 32 112 5 44 8 50 35 56 17 3 56 17 87 31 36 16 83 27 131 30 83 6
100 14 100 48 0 16 8 25 25 29 47 12 74 106 95 321 6 66 23 228 37 360 14 132
28 292 30 355 4 84 9 117 19 123 19 11 18 52 -3 68 -19 16 -221 19 -387 6 -95
-7 -99 -7 -84 10 8 10 18 31 22 48 11 44 143 315 154 315 6 0 12 -7 16 -15 8
-21 57 -19 163 6 73 18 107 20 198 16 61 -3 133 -12 161 -20 62 -16 94 -7 94
26 0 56 -64 77 -255 84 -120 5 -152 2 -228 -16 -49 -11 -90 -21 -92 -21 -1 0
-5 14 -8 30 -6 25 -11 30 -36 30 -53 0 -88 -42 -166 -204 -106 -221 -113 -250
-70 -284 l26 -20 -92 -8 c-69 -5 -96 -11 -110 -25 -19 -19 -16 -47 5 -61 17
-12 123 -9 231 7 55 8 158 15 228 15 l128 0 -3 -92 c-4 -97 -70 -739 -89 -868
-6 -41 -17 -87 -25 -102 -8 -15 -14 -36 -14 -48 0 -18 -6 -20 -67 -20 -47 0
-90 -8 -138 -26 -38 -13 -78 -27 -87 -31 -16 -5 -18 3 -18 83 0 94 22 331 40
423 5 29 10 75 10 101 0 32 6 55 20 73 11 14 20 34 20 45 0 11 7 25 15 32 22
18 18 36 -11 59 -25 20 -39 21 -285 21 -233 0 -259 2 -259 16 0 24 108 226
150 282 20 26 45 48 55 50 51 7 63 13 68 33 7 28 -33 69 -69 69 -14 0 -39 -8
-56 -17 -54 -32 -209 -287 -237 -390 l-11 -40 -93 -9 c-50 -5 -104 -8 -119 -6
-42 3 -76 -14 -94 -50 -9 -18 -35 -58 -58 -89 -23 -30 -68 -101 -100 -157 -44
-77 -59 -115 -66 -164 -13 -88 -12 -295 1 -343 16 -58 93 -219 134 -281 19
-29 35 -55 35 -58 0 -3 -110 -6 -245 -6 l-245 0 0 274 c0 304 13 602 36 836
10 100 18 309 21 592 4 338 8 440 18 448 15 12 175 45 325 66 69 10 261 18
560 24 250 5 532 16 625 24 567 50 549 49 1815 52 903 1 1268 6 1455 16 138 8
284 16 325 16 l75 2 4 -108z m-1365 -284 c24 -23 25 -28 35 -253 6 -126 11
-382 11 -567 l0 -338 -84 0 c-46 0 -97 -3 -113 -6 l-30 -6 -7 194 c-10 262
-35 480 -59 506 -16 17 -16 20 -2 25 25 10 18 53 -12 77 -26 21 -35 22 -140
17 -69 -3 -113 -2 -113 4 0 5 12 33 26 61 14 28 41 96 59 151 l33 101 63 18
c79 22 165 35 246 37 51 1 66 -3 87 -21z m1384 -192 l3 -129 -68 7 c-37 3
-101 9 -140 12 l-73 7 0 88 0 88 54 16 c82 24 179 44 201 42 19 -2 20 -10 23
-131z m-210 -202 c21 -4 32 -14 36 -30 8 -30 40 -39 112 -30 l54 6 0 -528 0
-527 -49 -18 c-27 -9 -57 -17 -67 -17 -11 0 -37 -9 -59 -19 -22 -10 -58 -21
-79 -25 l-38 -7 5 38 c2 21 17 103 32 183 28 152 29 191 4 370 -17 126 -26
284 -17 295 15 16 9 43 -14 59 -18 13 -25 13 -55 1 -19 -8 -44 -14 -56 -14
-12 1 -71 -8 -130 -21 -59 -12 -110 -20 -113 -18 -2 3 -7 53 -10 111 l-7 106
29 11 c71 27 247 64 380 79 6 0 25 -2 42 -5z m-1461 -58 c4 -4 0 -12 -10 -17
-22 -13 -22 -65 -2 -237 10 -82 16 -240 18 -444 l2 -316 -85 -4 c-47 -2 -86
-3 -88 -2 -2 1 2 56 8 123 10 104 10 134 -5 223 -10 57 -22 114 -27 128 -6 14
-13 58 -17 99 l-6 75 -55 30 c-73 40 -138 39 -284 -3 -60 -17 -111 -29 -114
-27 -2 3 8 56 23 118 15 62 30 141 33 176 l5 62 126 1 c69 0 178 6 241 14 119
14 224 14 237 1z m1213 -331 c14 -17 46 -20 55 -5 3 6 13 10 21 10 10 0 14
-14 14 -57 0 -32 7 -103 15 -158 19 -130 19 -288 0 -340 -8 -22 -23 -93 -32
-158 l-18 -117 -35 -9 c-19 -5 -60 -12 -90 -16 -100 -12 -284 -43 -345 -59
-117 -29 -109 -34 -116 69 -11 145 -10 401 2 525 10 112 31 236 42 246 9 10
392 79 453 83 12 0 27 -6 34 -14z m-1538 -87 c10 -8 28 -68 47 -155 44 -202
42 -326 -14 -613 -13 -69 -27 -148 -30 -177 -8 -59 -7 -58 -108 -69 -51 -5
-75 -12 -93 -29 -32 -30 -193 -47 -399 -43 l-150 3 -17 54 c-32 98 -43 255
-29 409 14 166 29 232 82 378 l40 111 57 6 c31 4 156 35 277 70 221 65 307 79
337 55z m-1903 -52 c-13 -23 -23 -65 -29 -132 -5 -55 -16 -157 -24 -229 -9
-71 -16 -182 -16 -245 -1 -232 -25 -348 -87 -413 l-27 -27 -279 1 -278 1 -34
30 c-40 35 -67 77 -134 213 -59 118 -71 163 -70 270 0 153 12 207 70 308 29
51 75 121 102 157 43 56 55 66 91 72 22 4 64 11 91 16 28 5 184 10 347 11
l297 1 -20 -34z m3877 -723 c-20 -133 -45 -732 -51 -1251 -3 -254 -8 -475 -11
-491 -8 -39 -77 -71 -171 -80 -40 -4 -76 -10 -80 -15 -4 -4 -8 -22 -8 -39 0
-31 -2 -32 -60 -45 -33 -7 -80 -17 -105 -23 -144 -35 -287 -52 -580 -69 -91
-5 -182 -12 -202 -16 l-38 -7 44 45 c32 31 46 55 51 83 4 22 8 45 10 51 4 14
113 34 186 34 44 0 65 6 101 29 26 16 51 39 57 50 14 25 14 121 1 172 -5 22
-14 56 -20 77 -13 51 -58 102 -92 104 -16 1 -28 6 -28 11 0 5 24 34 54 65 57
60 106 141 106 176 1 12 7 32 15 46 21 36 18 65 -11 154 -32 95 -56 122 -117
131 -34 5 -47 13 -56 31 -17 38 -14 57 20 120 27 52 30 63 20 90 -6 17 -9 39
-5 48 8 21 -13 46 -38 46 -11 0 -42 -7 -70 -17 -41 -13 -57 -14 -81 -5 -37 14
-66 1 -68 -31 -1 -12 -2 -39 -3 -60 -1 -27 -10 -46 -32 -68 l-30 -30 -160 -2
c-173 -3 -216 -13 -222 -55 -2 -12 -19 -45 -38 -73 -31 -47 -34 -57 -34 -124
0 -70 -1 -73 -26 -79 -34 -9 -108 -70 -138 -116 -32 -47 -66 -153 -66 -207 0
-78 48 -133 116 -133 34 0 74 -36 74 -66 0 -17 -8 -23 -37 -29 -61 -11 -111
-43 -148 -93 -34 -47 -35 -48 -35 -154 0 -125 7 -149 63 -205 39 -41 40 -43
17 -43 -14 0 -70 -5 -125 -10 -55 -6 -176 -17 -270 -25 -93 -8 -262 -23 -375
-34 -113 -10 -286 -22 -385 -25 -99 -4 -260 -11 -358 -17 -98 -7 -180 -10
-182 -8 -2 3 10 32 27 66 51 104 50 288 -3 395 -22 43 -80 94 -126 109 -18 6
-33 16 -33 24 0 7 23 37 51 66 77 81 99 116 99 161 0 62 -21 131 -48 161 -23
24 -33 27 -89 27 -59 0 -63 1 -63 24 0 12 11 44 25 71 28 51 26 80 -6 90 -10
4 -19 14 -19 24 0 28 -21 41 -67 41 -25 0 -56 8 -75 20 -70 43 -98 20 -98 -80
0 -70 -12 -100 -40 -100 -11 0 -37 -16 -59 -35 -40 -36 -75 -44 -112 -24 -24
13 -19 34 23 102 17 27 28 54 24 63 -3 9 1 25 9 37 19 28 19 33 -5 57 -18 18
-33 20 -137 20 -96 0 -120 3 -135 17 -18 16 -21 16 -56 -2 -49 -26 -53 -55
-12 -101 27 -32 31 -42 28 -87 -3 -47 -5 -52 -28 -55 -96 -10 -123 -30 -247
-186 l-33 -41 0 -118 c0 -65 5 -127 10 -138 15 -27 103 -69 145 -69 20 0 45
-5 56 -11 19 -10 19 -10 -1 -40 -17 -24 -29 -29 -60 -29 -55 0 -142 -44 -179
-91 -42 -52 -61 -108 -61 -184 0 -52 5 -69 30 -106 27 -40 28 -44 11 -47 -20
-3 -291 42 -351 58 -60 17 -59 12 -48 165 5 77 11 449 15 826 l5 686 274 6
c273 7 313 4 403 -28 55 -19 66 -19 86 1 15 15 32 16 143 9 70 -5 159 -8 197
-8 294 4 716 11 1012 18 349 7 352 7 379 -14 33 -26 48 -26 71 -2 16 16 40 19
183 25 185 7 312 23 481 60 62 14 168 33 234 41 233 31 730 119 955 170 58 13
159 31 225 40 66 9 168 27 226 41 58 13 118 24 133 24 15 0 60 11 99 24 78 26
137 43 150 45 5 1 6 -16 3 -36z m-1077 -624 c-29 -57 -35 -134 -16 -182 9 -21
14 -43 11 -50 -2 -7 2 -21 10 -32 11 -16 26 -20 72 -20 l58 0 23 -64 c20 -55
21 -66 9 -90 -8 -14 -17 -42 -21 -61 -9 -41 -46 -103 -74 -122 -12 -8 -37 -36
-57 -62 -64 -84 -45 -161 43 -175 49 -8 64 -38 70 -146 l6 -81 -29 -11 c-16
-7 -65 -14 -109 -17 -44 -3 -90 -8 -102 -11 -18 -6 -22 -2 -28 26 -11 51 -105
136 -172 155 -29 8 -53 19 -53 23 0 4 10 16 23 27 51 44 88 64 120 64 42 0
134 68 143 107 13 50 -14 144 -75 263 -4 8 -28 21 -52 29 -81 24 -154 65 -157
86 -2 12 9 36 22 55 14 19 34 47 44 62 13 19 22 24 32 17 33 -20 70 5 70 46 0
14 7 26 18 29 30 10 93 81 107 122 9 26 21 41 37 45 47 14 49 11 27 -32z
m-369 -164 c0 -7 -11 -26 -24 -42 -57 -69 -75 -168 -38 -211 21 -26 136 -88
178 -96 26 -6 34 -16 62 -81 18 -41 32 -78 32 -83 0 -17 -46 -49 -79 -56 -47
-9 -129 -58 -174 -104 -28 -29 -40 -51 -44 -81 -8 -60 12 -84 89 -105 46 -13
74 -28 104 -58 l42 -40 -5 -82 c-4 -52 -11 -87 -21 -99 -23 -27 -170 -97 -203
-97 -16 0 -37 -9 -48 -21 -17 -19 -26 -20 -68 -14 -98 14 -175 47 -225 95
l-48 46 0 85 c0 66 4 90 19 113 24 36 56 55 93 56 36 0 79 17 94 38 8 10 13
45 14 83 l0 66 -50 47 c-32 30 -58 46 -75 46 -37 0 -65 17 -65 40 0 11 10 49
22 85 27 84 79 140 138 148 65 8 70 17 70 121 0 84 2 94 30 136 16 25 30 50
30 57 0 7 19 13 48 15 26 2 59 4 75 5 17 1 27 -3 27 -12z m-2865 -199 c-27
-35 -65 -124 -65 -150 0 -43 102 -115 162 -116 35 0 111 -74 129 -125 12 -33
12 -37 -12 -60 -14 -14 -68 -40 -124 -60 -138 -49 -166 -78 -145 -154 13 -49
46 -69 134 -81 55 -8 65 -13 99 -52 54 -60 67 -90 74 -166 l5 -67 -43 -43
c-69 -69 -108 -85 -203 -81 -77 4 -81 3 -91 -19 -10 -24 -11 -24 -115 -17
-134 8 -207 34 -272 96 -43 40 -48 50 -48 87 0 105 80 182 188 182 29 0 44 9
89 53 46 47 53 59 53 94 0 29 -6 45 -22 59 -40 34 -85 54 -123 54 -20 0 -49 7
-65 15 -29 15 -30 17 -30 97 0 79 1 83 39 132 72 94 97 116 133 116 39 0 107
29 128 55 10 12 15 42 15 101 l0 84 68 0 68 0 -26 -34z m428 -93 c-28 -76 -26
-132 3 -164 10 -11 27 -19 38 -18 12 1 44 1 73 0 l51 -1 12 -49 c13 -57 7 -75
-42 -116 -52 -44 -108 -132 -108 -172 0 -51 15 -70 70 -88 101 -33 135 -96
135 -245 -1 -74 -5 -94 -32 -152 -18 -37 -43 -79 -57 -93 -25 -25 -26 -25
-202 -25 l-177 0 52 41 c72 57 101 110 101 185 0 113 -33 193 -115 277 -32 33
-71 48 -158 62 -21 3 -35 10 -33 14 6 9 67 32 133 50 52 14 140 94 152 136 14
51 -20 142 -70 188 -38 36 -40 39 -26 60 8 12 25 24 38 25 46 7 89 65 89 122
0 29 1 30 49 30 l49 0 -25 -67z m3797 -1423 c-12 -123 -30 -292 -41 -375 -13
-100 -19 -211 -19 -333 0 -195 -24 -452 -43 -464 -7 -5 -30 -13 -52 -18 -22
-6 -101 -29 -175 -51 -187 -54 -758 -137 -1040 -150 -107 -4 -232 -13 -276
-18 -45 -6 -172 -13 -283 -17 l-201 -7 0 39 c0 73 20 229 46 359 14 72 28 181
31 242 5 97 3 126 -17 209 -32 133 -62 172 -143 189 -24 5 -26 9 -21 33 4 15
13 40 21 56 11 21 12 35 5 52 -8 17 -7 25 4 34 8 7 14 23 14 36 0 33 -46 54
-116 54 -39 0 -71 7 -101 22 -67 33 -77 22 -83 -91 -6 -103 -9 -107 -80 -117
-25 -3 -52 -8 -61 -10 -16 -5 -42 -64 -74 -174 -20 -66 -34 -343 -34 -694 l-1
-239 -87 7 c-327 25 -415 27 -815 21 l-428 -7 0 28 c0 48 8 51 95 42 203 -20
222 -20 259 -8 47 15 54 34 62 160 7 98 7 99 28 85 15 -11 51 -15 133 -15 112
0 113 0 113 -23 0 -31 33 -61 58 -52 11 3 25 20 32 38 14 41 28 273 32 542 4
252 -5 290 -83 366 l-48 47 14 57 c8 31 15 82 15 114 0 43 4 60 15 65 18 7 20
50 3 64 -7 5 -71 11 -142 13 -141 4 -133 8 -155 -63 -10 -30 -9 -47 3 -89 9
-29 16 -69 16 -90 0 -31 -4 -38 -25 -43 -14 -4 -49 -29 -77 -57 -54 -51 -86
-58 -74 -16 3 12 6 32 6 45 0 13 6 22 15 22 21 0 48 45 41 68 -9 27 -112 71
-185 78 -34 4 -64 11 -67 15 -10 16 -53 9 -64 -10 -5 -11 -7 -40 -3 -66 6 -45
4 -48 -38 -91 -52 -54 -99 -82 -99 -60 0 7 7 19 15 26 20 17 19 43 -4 64 -14
13 -47 19 -142 24 -68 4 -134 6 -147 4 -37 -5 -42 -31 -25 -115 17 -87 14
-107 -20 -107 -35 0 -74 -35 -103 -92 -39 -77 -84 -234 -84 -293 0 -30 -7 -82
-16 -116 -13 -51 -15 -101 -12 -254 4 -169 7 -195 26 -239 12 -27 22 -50 22
-52 0 -18 -335 12 -422 37 l-66 19 -6 63 c-22 251 -44 1583 -26 1600 3 3 32
-1 65 -9 124 -29 365 -63 500 -69 77 -3 228 -15 335 -27 218 -22 478 -20 810
7 96 8 297 19 445 25 245 10 442 26 955 76 100 10 278 18 415 19 185 2 292 8
465 28 124 15 309 31 412 37 175 10 255 20 403 55 33 7 87 19 120 26 62 12
154 56 191 90 11 10 27 19 35 19 8 1 25 7 39 15 l25 13 3 -201 c2 -146 -3
-264 -18 -427z m-3453 -37 c-3 -32 -11 -84 -18 -115 -12 -52 -11 -60 7 -93 10
-20 31 -45 46 -56 14 -11 36 -40 49 -65 21 -44 22 -53 13 -173 -5 -69 -9 -182
-9 -251 -1 -69 -2 -151 -3 -182 l-2 -58 -120 0 c-107 0 -121 -2 -138 -20 -19
-20 -19 -20 -25 47 -4 37 -7 136 -7 218 -1 129 -16 300 -36 411 -7 37 27 83
81 109 20 9 40 26 44 39 5 12 16 28 25 35 21 17 22 113 1 170 l-14 41 56 0 55
0 -5 -57z m-447 -93 c17 0 18 -8 13 -97 -5 -89 -3 -100 16 -125 12 -15 31 -28
43 -30 13 -2 29 -18 41 -42 18 -34 21 -68 29 -300 5 -143 11 -295 14 -336 7
-86 -2 -171 -20 -195 -11 -16 -21 -16 -107 -5 -52 6 -113 14 -135 16 -52 6
-56 20 -43 149 13 142 12 510 -2 536 -6 12 -36 46 -65 75 -88 85 -72 142 48
168 15 4 30 15 33 27 4 12 22 41 40 65 18 24 36 57 40 74 5 22 11 30 22 26 8
-3 23 -6 33 -6z m-388 -120 c-1 -14 -10 -55 -19 -92 -16 -64 -16 -69 2 -108
14 -30 26 -43 46 -47 15 -3 50 -29 79 -58 l51 -52 -4 -214 c-6 -271 -23 -570
-34 -580 -4 -4 -71 -3 -148 2 -77 5 -166 7 -197 3 l-57 -6 -27 54 c-26 50 -28
64 -35 228 -6 136 -5 190 7 245 8 39 14 93 14 122 0 57 38 191 76 266 20 37
29 47 50 47 67 0 99 52 92 152 l-5 69 56 -3 c53 -3 56 -4 53 -28z m2010 24 c4
-3 -4 -21 -17 -40 -13 -19 -29 -65 -36 -105 -11 -61 -11 -75 2 -98 14 -23 21
-26 74 -26 l60 0 24 -70 c36 -105 33 -259 -7 -465 -17 -85 -34 -210 -38 -277
l-7 -123 -207 0 -208 0 -7 228 c-4 141 -3 261 4 317 6 50 10 135 10 190 -1
191 41 286 134 298 21 3 47 13 58 23 21 19 39 73 39 122 l0 32 58 0 c32 0 61
-3 64 -6z"/>
<path d="M3279 8988 c-6 -12 -15 -91 -20 -177 -4 -86 -13 -212 -19 -281 -9
-115 -32 -391 -46 -553 -3 -46 -1 -73 7 -83 17 -21 57 -17 69 7 7 11 20 118
31 237 10 120 23 273 29 342 21 233 31 502 19 517 -18 20 -57 16 -70 -9z"/>
<path d="M3089 7860 c-86 -8 -145 -32 -152 -61 -7 -27 28 -63 51 -54 9 4 55
12 102 17 91 10 127 23 144 51 16 25 -4 52 -40 53 -16 1 -63 -2 -105 -6z"/>
</g>
</svg>
