<?xml version="1.0" standalone="no"?>
<!DOCTYPE svg PUBLIC "-//W3C//DTD SVG 20010904//EN"
 "http://www.w3.org/TR/2001/REC-SVG-20010904/DTD/svg10.dtd">
<svg version="1.0" xmlns="http://www.w3.org/2000/svg"
 width="570.000000pt" height="693.000000pt" viewBox="0 0 570.000000 693.000000"
 preserveAspectRatio="xMidYMid meet">
<metadata>
Created by potrace 1.16, written by Peter Selinger 2001-2019
</metadata>
<g transform="translate(0.000000,693.000000) scale(0.100000,-0.100000)"
fill="#000000" stroke="none">
<path d="M2468 6035 c-9 -20 -7 -34 15 -82 41 -94 61 -171 47 -188 -20 -24
-39 -211 -40 -376 0 -143 2 -157 20 -174 27 -24 25 -35 -6 -35 -55 0 -81 -33
-168 -217 -35 -75 -58 -145 -87 -265 -39 -165 -42 -185 -84 -708 -9 -107 -21
-244 -26 -305 -5 -60 -14 -189 -19 -285 -24 -439 -30 -513 -44 -630 -26 -218
-36 -333 -36 -397 0 -58 -10 -78 -25 -53 -9 15 -132 75 -180 89 -83 24 -229
51 -274 51 -68 0 -157 -24 -198 -53 l-36 -26 -36 24 c-20 12 -87 39 -149 59
-108 35 -117 36 -259 36 -143 0 -150 -1 -211 -30 -35 -16 -87 -46 -116 -65
-58 -39 -91 -90 -141 -223 -26 -71 -29 -74 -86 -102 -122 -62 -264 -223 -294
-333 -39 -144 26 -381 120 -443 31 -20 89 -21 119 -1 l23 15 -19 -38 c-25 -49
-36 -243 -19 -307 14 -52 83 -116 149 -137 111 -37 339 -48 428 -21 28 8 76
33 107 55 l57 39 0 -57 c0 -75 31 -139 110 -225 74 -81 135 -122 219 -148 151
-46 442 -77 567 -59 92 12 184 52 241 104 l40 36 7 -41 c10 -60 50 -132 95
-171 54 -46 251 -158 320 -181 46 -16 77 -18 176 -15 111 4 124 6 181 35 43
22 82 55 131 109 l71 78 15 -31 c25 -48 131 -139 204 -175 l68 -33 181 -3
c194 -4 301 7 369 37 51 23 108 78 135 132 l21 40 29 -21 c79 -56 211 -71 292
-32 94 46 176 165 218 314 24 86 25 150 5 208 -8 23 -15 44 -15 46 0 2 33 4
74 4 104 0 126 25 126 143 0 90 -15 137 -57 173 l-35 31 22 43 c34 68 36 128
5 296 -29 160 -50 222 -93 268 -29 31 -187 138 -262 177 -60 31 -170 32 -251
2 l-56 -20 -11 59 c-23 126 -101 225 -223 286 -123 62 -222 52 -336 -35 -24
-18 -43 -27 -43 -20 0 18 69 567 76 602 3 17 25 121 50 233 63 289 78 386 128
842 65 591 71 660 70 820 0 166 -11 206 -74 281 -21 25 -40 52 -41 60 -2 8 11
35 28 61 17 26 35 67 41 90 7 24 16 61 22 83 7 28 19 45 39 56 29 17 29 17 36
140 4 68 15 197 25 287 21 180 17 212 -24 212 -13 0 -28 -6 -34 -12 -6 -7 -16
-66 -23 -131 -10 -101 -15 -117 -28 -111 -36 15 -52 16 -66 4 -19 -16 -19 -39
0 -78 20 -38 32 -145 24 -197 -14 -87 -67 -267 -85 -292 -34 -45 -45 -48 -141
-35 -48 6 -196 14 -328 18 -152 4 -261 11 -296 20 -37 9 -100 13 -180 11 -110
-2 -127 0 -152 18 -27 19 -28 23 -23 85 3 36 14 106 25 155 12 50 21 127 21
172 0 45 4 93 9 106 7 17 5 33 -6 53 -8 16 -26 61 -40 99 -42 115 -60 145 -88
145 -17 0 -29 -8 -37 -25z m467 -909 c44 -9 157 -16 305 -20 130 -3 278 -11
329 -17 85 -12 94 -15 102 -38 6 -14 27 -44 48 -66 84 -91 83 -158 -15 -1055
-51 -468 -57 -505 -120 -790 -25 -113 -50 -230 -55 -260 -20 -122 -79 -617
-79 -665 0 -27 -14 -123 -32 -212 -26 -134 -29 -164 -19 -177 19 -23 48 -20
66 7 8 12 25 73 37 135 20 100 24 112 43 112 30 0 45 19 45 55 0 57 109 135
188 135 55 0 151 -51 205 -109 62 -66 79 -127 75 -267 -2 -95 0 -108 17 -120
10 -8 22 -14 27 -14 19 0 48 42 48 70 0 39 53 75 132 91 78 16 111 7 219 -58
129 -78 157 -100 180 -144 21 -42 69 -284 69 -349 0 -50 -32 -116 -72 -150
-22 -18 -29 -32 -27 -50 3 -21 10 -26 41 -28 24 -2 48 -13 68 -32 28 -26 30
-33 30 -94 0 -71 2 -69 -66 -66 -76 3 -78 4 -101 61 -19 47 -25 54 -49 54 -15
0 -32 -8 -38 -17 -12 -20 -6 -45 49 -193 32 -88 36 -108 32 -161 -11 -119 -87
-268 -160 -313 -81 -50 -178 -32 -271 49 -31 27 -59 50 -62 50 -21 0 -44 -25
-44 -48 0 -40 -43 -124 -78 -154 -57 -48 -90 -53 -327 -53 -219 0 -220 0 -270
27 -70 37 -132 93 -156 142 -30 58 -58 86 -88 86 -27 0 -69 -38 -148 -136 -27
-32 -61 -60 -97 -77 -50 -25 -67 -27 -163 -28 l-107 0 -91 45 c-49 24 -124 67
-166 94 -64 42 -78 57 -96 98 -11 27 -24 81 -28 119 -11 113 -45 166 -95 150
-30 -10 -60 -54 -60 -90 0 -68 -120 -140 -250 -151 -151 -12 -473 36 -570 86
-49 25 -131 105 -169 166 -35 54 -39 99 -20 214 10 61 9 66 -12 82 -28 23 -31
23 -65 -6 -89 -76 -134 -109 -182 -133 -51 -25 -57 -25 -195 -20 -163 5 -235
23 -280 68 l-29 30 4 119 c5 136 17 164 78 184 30 9 35 16 35 41 0 23 -6 32
-28 40 -24 8 -37 5 -78 -17 -45 -24 -49 -24 -49 -7 0 26 -33 41 -64 29 -21 -8
-30 -5 -47 13 -57 59 -95 240 -69 331 27 97 163 241 274 290 28 13 56 29 62
37 6 8 30 65 54 127 48 127 61 142 174 200 l71 37 132 -2 c123 -1 140 -4 242
-38 93 -31 115 -42 145 -76 20 -21 36 -44 36 -51 0 -20 32 -48 55 -48 37 0 49
24 37 72 -6 23 -9 45 -6 50 13 21 73 40 138 45 94 7 265 -31 363 -80 65 -33
72 -40 102 -100 31 -62 32 -69 36 -223 3 -87 8 -174 13 -193 9 -42 34 -61 59
-45 16 10 18 41 19 355 1 328 6 418 40 694 14 114 24 257 44 640 5 94 14 222
20 285 13 148 28 330 40 500 18 246 29 324 68 485 32 129 51 183 98 280 58
119 59 120 98 126 22 4 47 15 56 27 14 17 25 19 86 15 38 -2 89 0 114 5 25 5
52 8 60 6 8 -2 47 -10 85 -18z"/>
<path d="M3116 4711 c-20 -38 -57 -294 -59 -410 -2 -79 1 -95 16 -105 26 -17
51 4 59 50 4 21 14 102 23 179 9 77 23 172 31 211 17 85 12 104 -27 104 -21 0
-32 -7 -43 -29z"/>
<path d="M2681 4698 c-13 -33 -36 -219 -71 -568 -17 -168 -35 -341 -40 -385
-53 -451 -96 -1189 -70 -1220 15 -18 56 -20 66 -3 5 7 11 100 16 208 9 234 32
566 58 825 11 105 33 325 49 490 17 165 40 375 52 466 16 129 18 171 10 188
-16 29 -59 28 -70 -1z"/>
<path d="M3331 3852 c-16 -30 -58 -265 -90 -502 -17 -124 -47 -315 -66 -425
-127 -713 -196 -1163 -182 -1198 3 -9 15 -21 26 -27 38 -20 57 15 65 116 7 84
103 672 180 1105 19 108 49 299 66 425 17 126 43 288 57 361 22 109 24 135 13
148 -17 20 -57 19 -69 -3z"/>
<path d="M1245 1914 c-119 -62 -146 -207 -51 -269 l24 -16 -38 -82 c-62 -134
-77 -245 -40 -305 25 -41 89 -71 151 -72 58 0 84 18 76 52 -7 27 -30 38 -82
38 -48 0 -75 25 -75 68 1 58 18 119 57 199 29 59 43 77 69 88 85 35 48 129
-38 96 -22 -8 -32 -6 -53 11 -30 24 -27 48 13 91 33 35 63 34 107 -4 68 -60
121 -10 62 58 -53 60 -122 78 -182 47z"/>
<path d="M3744 1623 c-31 -6 -56 -37 -52 -65 2 -19 9 -23 38 -23 19 1 56 4 83
8 60 10 61 -2 3 -56 -54 -51 -63 -76 -38 -107 15 -18 33 -24 105 -31 167 -17
167 -37 2 -209 -92 -95 -106 -121 -79 -151 24 -27 40 -24 71 13 16 18 64 71
108 118 113 120 135 173 99 241 -18 36 -82 68 -135 69 -48 0 -53 8 -24 42 34
40 34 100 0 133 -21 22 -32 25 -92 24 -37 -1 -78 -4 -89 -6z"/>
<path d="M2480 1480 c-26 -26 -35 -65 -24 -109 8 -31 15 -38 52 -49 23 -8 42
-18 42 -24 0 -20 -23 -54 -61 -89 -59 -55 -49 -71 85 -134 141 -67 160 -71
187 -44 31 31 9 54 -91 96 -47 19 -86 36 -88 38 -2 1 9 20 23 41 32 47 39 74
33 128 -4 36 -2 44 16 52 12 5 22 20 24 36 3 25 -2 30 -54 53 -69 30 -117 32
-144 5z"/>
<path d="M3180 945 c-43 -32 -50 -43 -50 -82 0 -37 -10 -45 -64 -53 -48 -6
-65 -28 -48 -64 10 -22 18 -26 54 -26 63 0 120 36 136 85 7 22 22 48 32 58 27
24 27 83 1 97 -25 13 -22 14 -61 -15z"/>
</g>
</svg>
